<svg width="111" height="99" viewBox="0 0 111 99" fill="none" xmlns="http://www.w3.org/2000/svg">
<path d="M98.6667 12.375C105.469 12.375 111 17.9147 111 24.75V74.25C111 81.0756 105.469 86.625 98.6667 86.625H12.3333C5.52109 86.625 0 81.0756 0 74.25V24.75C0 17.9147 5.52109 12.375 12.3333 12.375H98.6667ZM52.4167 37.125C50.7208 37.125 49.3333 38.5172 49.3333 40.2188C49.3333 41.9203 50.7208 43.3125 52.4167 43.3125H95.5833C97.2792 43.3125 98.6667 41.9203 98.6667 40.2188C98.6667 38.5172 97.2792 37.125 95.5833 37.125H52.4167ZM52.4167 61.875H95.5833C97.2792 61.875 98.6667 60.4828 98.6667 58.7812C98.6667 57.0797 97.2792 55.6875 95.5833 55.6875H52.4167C50.7208 55.6875 49.3333 57.0797 49.3333 58.7812C49.3333 60.4828 50.7208 61.875 52.4167 61.875ZM31.6234 30.9375C31.6234 28.7912 29.8891 27.051 27.5766 27.051C25.6109 27.051 23.8766 28.7912 23.8766 30.9375V32.0977C22.7974 32.3297 21.6026 32.6584 20.8125 33.0838C17.9334 34.3986 15.4302 36.835 14.8212 40.3734C14.4801 42.3457 14.6612 44.26 15.4783 45.9809C16.2781 47.6824 17.5365 48.8812 18.8141 49.7514C21.0437 51.2789 23.9922 52.1684 26.2469 52.8451L26.6708 52.9611C29.3687 53.7926 31.1802 54.392 32.3172 55.2234C32.799 55.5715 32.9724 55.8422 33.0302 56.0162C33.1073 56.1709 33.2229 56.5189 33.088 57.2924C32.9724 57.9691 32.6062 58.5492 31.5464 58.9939C30.3708 59.4967 28.463 59.748 25.9964 59.3613C24.8401 59.168 22.7781 58.4719 20.9474 57.8531C20.5234 57.6984 20.0995 57.5631 19.7141 57.4277C17.6983 56.751 15.5149 57.8531 14.8424 59.8834C14.1698 61.9137 15.2625 64.0986 17.2821 64.6014C17.5153 64.8527 17.8043 64.9494 18.1358 65.0654C19.4828 65.5875 22.0458 66.3996 23.8766 66.825V68.0625C23.8766 70.2088 25.6109 71.949 27.5766 71.949C29.8891 71.949 31.6234 70.2088 31.6234 68.0625V66.999C32.6448 66.8057 33.6469 66.3416 34.5719 66.1096C37.6167 64.8141 40.0448 62.3004 40.6807 58.6266C41.0276 56.6156 40.8734 54.682 40.1026 52.9225C39.351 51.1822 38.137 49.9061 36.8458 48.9779C34.5141 47.257 31.3922 46.3289 29.0604 45.6135L28.7328 45.5748C26.1698 44.7434 24.3198 44.1633 23.1443 43.3512C22.6432 43.0031 22.4891 42.7711 22.4505 42.6744C22.412 42.5971 22.2964 42.365 22.412 41.7076C22.4891 41.3209 22.7781 40.6828 23.9922 40.1414C25.0714 39.5807 27.1526 39.2713 29.5036 39.4646C30.3516 39.774 32.9531 40.2768 33.7047 40.4701C35.7474 41.0309 37.8672 39.7934 38.4068 37.7244C38.9656 35.6748 37.7323 33.5479 35.6703 33.0064C34.8224 32.7744 32.8953 32.3877 31.6234 32.1557V30.9375Z" fill="#323978"/>
</svg>
