<svg width="34" height="34" viewBox="0 0 34 34" fill="none" xmlns="http://www.w3.org/2000/svg">
<path d="M16.9999 29.7501C15.2106 28.2238 13.552 26.5506 12.0416 24.7478C9.77492 22.0406 7.08325 18.0088 7.08325 14.1668C7.08227 12.2046 7.66339 10.2863 8.75307 8.65454C9.84275 7.0228 11.392 5.75099 13.2048 5.00007C15.0175 4.24915 17.0123 4.05288 18.9367 4.43609C20.861 4.8193 22.6284 5.76477 24.0153 7.15284C24.9386 8.07206 25.6704 9.16527 26.1684 10.3692C26.6664 11.5731 26.9207 12.8639 26.9166 14.1668C26.9166 18.0088 24.2249 22.0406 21.9583 24.7478C20.4478 26.5506 18.7893 28.2238 16.9999 29.7501ZM16.9999 9.91676C15.8728 9.91676 14.7917 10.3645 13.9947 11.1616C13.1977 11.9586 12.7499 13.0396 12.7499 14.1668C12.7499 15.2939 13.1977 16.3749 13.9947 17.172C14.7917 17.969 15.8728 18.4168 16.9999 18.4168C18.1271 18.4168 19.2081 17.969 20.0051 17.172C20.8022 16.3749 21.2499 15.2939 21.2499 14.1668C21.2499 13.0396 20.8022 11.9586 20.0051 11.1616C19.2081 10.3645 18.1271 9.91676 16.9999 9.91676Z" fill="#252525"/>
</svg>
