<svg width="96" height="96" viewBox="0 0 96 96" fill="none" xmlns="http://www.w3.org/2000/svg">
<path fill-rule="evenodd" clip-rule="evenodd" d="M52.4999 4.5C52.4999 3.30653 52.0258 2.16193 51.1819 1.31802C50.338 0.474106 49.1934 0 47.9999 0C46.8065 0 45.6619 0.474106 44.8179 1.31802C43.974 2.16193 43.4999 3.30653 43.4999 4.5V12H37.5959C35.7659 12 33.9719 12.48 32.3819 13.38L24.6539 17.802C24.4256 17.9326 24.167 18.0009 23.9039 18H10.4999C9.30645 18 8.16186 18.4741 7.31795 19.318C6.47403 20.1619 5.99993 21.3065 5.99993 22.5C5.99993 23.6935 6.47403 24.8381 7.31795 25.682C8.16186 26.5259 9.30645 27 10.4999 27H13.0679L0.395928 55.152C0.0216362 55.9849 -0.0904325 56.9119 0.0746057 57.81C0.239644 58.708 0.673979 59.5346 1.31993 60.18L4.49993 57L1.31993 60.18V60.186L1.33193 60.198L1.34393 60.21L1.37993 60.246L1.47593 60.336L1.74593 60.576C3.0078 61.6336 4.38921 62.5398 5.86193 63.276C9.64016 65.1181 13.7969 66.0509 17.9999 66C23.2799 66 27.3359 64.68 30.1379 63.276C31.6106 62.5397 32.992 61.6336 34.2539 60.576L34.5239 60.336L34.6199 60.246L34.6559 60.21L34.6679 60.198L34.6739 60.186L31.4999 57L34.6799 60.18C35.3259 59.5346 35.7602 58.708 35.9252 57.81C36.0903 56.9119 35.9782 55.9849 35.6039 55.152L22.9319 27H23.9039C25.7339 27 27.5279 26.52 29.1179 25.62L36.8519 21.198C37.0785 21.0684 37.3349 21.0001 37.5959 21H43.4999V78H28.4999C27.3065 78 26.1619 78.4741 25.3179 79.318C24.474 80.1619 23.9999 81.3065 23.9999 82.5C23.9999 83.6935 24.474 84.8381 25.3179 85.682C26.1619 86.5259 27.3065 87 28.4999 87H67.4999C68.6934 87 69.838 86.5259 70.6819 85.682C71.5258 84.8381 71.9999 83.6935 71.9999 82.5C71.9999 81.3065 71.5258 80.1619 70.6819 79.318C69.838 78.4741 68.6934 78 67.4999 78H52.4999V21H58.4039C58.6649 21.0001 58.9214 21.0684 59.1479 21.198L66.8879 25.614C68.4719 26.526 70.2659 27 72.0959 27H73.0679L60.3959 55.152C60.0216 55.9849 59.9096 56.9119 60.0746 57.81C60.2396 58.708 60.674 59.5346 61.3199 60.18L64.4999 57L61.3199 60.18V60.186L61.3319 60.198L61.3439 60.21L61.3799 60.246L61.4759 60.336L61.7459 60.576C63.0079 61.6335 64.3893 62.5397 65.8619 63.276C69.6402 65.1181 73.7969 66.0509 77.9999 66C83.2799 66 87.3359 64.68 90.1379 63.276C91.6107 62.5399 92.9921 61.6337 94.2539 60.576L94.5239 60.336L94.5839 60.276L94.6199 60.246L94.6559 60.21L94.6679 60.198L94.6739 60.186L91.4999 57L94.6799 60.18C95.3259 59.5346 95.7602 58.708 95.9252 57.81C96.0903 56.9119 95.9782 55.9849 95.6039 55.152L82.9379 27H85.4999C86.6934 27 87.838 26.5259 88.6819 25.682C89.5258 24.8381 89.9999 23.6935 89.9999 22.5C89.9999 21.3065 89.5258 20.1619 88.6819 19.318C87.838 18.4741 86.6934 18 85.4999 18H72.0959C71.8349 17.9999 71.5785 17.9316 71.3519 17.802L63.6119 13.386C62.0278 12.4798 60.2349 12.0021 58.4099 12H52.4999V4.5ZM10.1699 55.362C11.8799 56.172 14.4779 57 17.9999 57C21.5219 57 24.1199 56.172 25.8299 55.362L17.9999 37.962L10.1699 55.362ZM70.1699 55.362C71.8799 56.172 74.4779 57 77.9999 57C81.5219 57 84.1199 56.172 85.8299 55.362L77.9999 37.962L70.1699 55.362Z" fill="#323978"/>
</svg>
