<svg width="62" height="62" viewBox="0 0 62 62" fill="none" xmlns="http://www.w3.org/2000/svg">
<path d="M53.2812 6.78125H8.71875C7.64707 6.78125 6.78125 7.64707 6.78125 8.71875V53.2812C6.78125 54.3529 7.64707 55.2188 8.71875 55.2188H53.2812C54.3529 55.2188 55.2188 54.3529 55.2188 53.2812V8.71875C55.2188 7.64707 54.3529 6.78125 53.2812 6.78125ZM47.6867 20.9189H43.8178C40.7844 20.9189 40.1971 22.36 40.1971 24.4791V29.1473H47.4385L46.4939 36.4553H40.1971V55.2188H32.6469V36.4613H26.3318V29.1473H32.6469V23.7586C32.6469 17.5041 36.4674 14.0953 42.0498 14.0953C44.726 14.0953 47.0207 14.2951 47.6928 14.3859V20.9189H47.6867Z" fill="#E7E7E7"/>
</svg>
