<svg width="107" height="107" viewBox="0 0 107 107" fill="none" xmlns="http://www.w3.org/2000/svg">
<path d="M26.75 93.6252H80.25C75.7917 93.6252 66.875 90.9502 66.875 80.2502V71.3335H13.375V80.2502C13.375 90.9502 22.2917 93.6252 26.75 93.6252Z" fill="#323978"/>
<path d="M40.125 49.0417H57.9583M22.2917 57.9583V22.2917C22.2917 19.9268 23.2311 17.6588 24.9033 15.9866C26.5755 14.3144 28.8435 13.375 31.2083 13.375H84.7083C87.0732 13.375 89.3412 14.3144 91.0134 15.9866C92.6856 17.6588 93.625 19.9268 93.625 22.2917V80.25C93.625 84.7083 90.95 93.625 80.25 93.625L22.2917 57.9583ZM80.25 93.625H26.75C22.2917 93.625 13.375 90.95 13.375 80.25V71.3333H66.875V80.25C66.875 90.95 75.7917 93.625 80.25 93.625ZM40.125 31.2083H75.7917H40.125Z" stroke="#323978" stroke-width="9" stroke-linecap="round" stroke-linejoin="round"/>
</svg>
