<svg width="32" height="32" viewBox="0 0 32 32" fill="none" xmlns="http://www.w3.org/2000/svg">
<path d="M15.9997 16.0003C19.6816 16.0003 22.6663 13.0156 22.6663 9.33366C22.6663 5.65176 19.6816 2.66699 15.9997 2.66699C12.3178 2.66699 9.33301 5.65176 9.33301 9.33366C9.33301 13.0156 12.3178 16.0003 15.9997 16.0003Z" stroke="white" stroke-width="3"/>
<path d="M22.6666 18.667H23.1359C24.1107 18.6673 25.0518 19.0235 25.7825 19.6687C26.5131 20.3139 26.983 21.2037 27.1039 22.171L27.6253 26.3363C27.6721 26.7116 27.6387 27.0925 27.5271 27.4538C27.4155 27.8151 27.2284 28.1486 26.9781 28.4321C26.7278 28.7155 26.4201 28.9425 26.0753 29.0979C25.7306 29.2534 25.3567 29.3337 24.9786 29.3337H7.02125C6.64309 29.3337 6.26924 29.2534 5.92451 29.0979C5.57978 28.9425 5.27205 28.7155 5.02175 28.4321C4.77145 28.1486 4.5843 27.8151 4.47272 27.4538C4.36115 27.0925 4.32769 26.7116 4.37458 26.3363L4.89458 22.171C5.01551 21.2033 5.48581 20.3131 6.21703 19.6678C6.94825 19.0225 7.89002 18.6666 8.86525 18.667H9.33325" stroke="white" stroke-width="3" stroke-linecap="round" stroke-linejoin="round"/>
</svg>
