<svg width="113" height="113" viewBox="0 0 113 113" fill="none" xmlns="http://www.w3.org/2000/svg">
<path d="M61.2082 75.3333H51.7915C49.2019 75.3333 47.0832 73.2146 47.0832 70.625H14.1719V89.4583C14.1719 94.6375 18.4094 98.875 23.5886 98.875H89.4582C94.6373 98.875 98.8748 94.6375 98.8748 89.4583V70.625H65.9165C65.9165 73.2146 63.7978 75.3333 61.2082 75.3333ZM94.1665 32.9583H75.3332C75.3332 22.5529 66.9053 14.125 56.4998 14.125C46.0944 14.125 37.6665 22.5529 37.6665 32.9583H18.8332C13.654 32.9583 9.4165 37.1958 9.4165 42.375V56.5C9.4165 61.7263 13.6069 65.9167 18.8332 65.9167H47.0832V61.2083C47.0832 58.6188 49.2019 56.5 51.7915 56.5H61.2082C63.7978 56.5 65.9165 58.6188 65.9165 61.2083V65.9167H94.1665C99.3457 65.9167 103.583 61.6792 103.583 56.5V42.375C103.583 37.1958 99.3457 32.9583 94.1665 32.9583ZM47.0832 32.9583C47.0832 27.7792 51.3207 23.5417 56.4998 23.5417C61.679 23.5417 65.9165 27.7792 65.9165 32.9583H47.0361H47.0832Z" fill="#323978"/>
</svg>
