<svg width="109" height="109" viewBox="0 0 109 109" fill="none" xmlns="http://www.w3.org/2000/svg">
<path d="M86.2509 9.0835H40.9205C35.8748 9.0835 31.7918 13.1665 31.7918 18.2122V43.8136L10.4369 64.896C9.79702 65.5289 9.3596 66.3375 9.18011 67.2194C9.00063 68.1012 9.08718 69.0165 9.42877 69.8491C9.77037 70.6817 10.3516 71.394 11.0987 71.8957C11.8459 72.3974 12.7252 72.6658 13.6251 72.6668V95.3752C13.6251 96.5797 14.1036 97.7349 14.9553 98.5866C15.8071 99.4383 16.9623 99.9168 18.1668 99.9168H90.8335C92.038 99.9168 93.1932 99.4383 94.0449 98.5866C94.8966 97.7349 95.3751 96.5797 95.3751 95.3752V18.2077C95.3751 13.1665 91.2967 9.0835 86.2509 9.0835ZM49.6042 68.6293V90.8335H22.7085V65.5455L36.2744 52.1521L49.6042 65.7907V68.6293ZM59.0418 40.8752H49.9585V31.7918H59.0418V40.8752ZM77.2085 77.2085H68.1251V68.1252H77.2085V77.2085ZM77.2085 59.0418H68.1251V49.9585H77.2085V59.0418ZM77.2085 40.8752H68.1251V31.7918H77.2085V40.8752Z" fill="#323978"/>
<path d="M31.7915 68.125H40.8748V77.2083H31.7915V68.125Z" fill="#323978"/>
</svg>
