<svg width="117" height="117" viewBox="0 0 117 117" fill="none" xmlns="http://www.w3.org/2000/svg">
<path d="M58.5 107.25C31.5754 107.25 9.75 85.4246 9.75 58.5C9.75 31.5754 31.5754 9.75 58.5 9.75C85.4246 9.75 107.25 31.5754 107.25 58.5C107.25 85.4246 85.4246 107.25 58.5 107.25ZM48.9938 53.625C49.4161 51.5515 50.371 49.6237 51.7645 48.0313C53.158 46.4389 54.9421 45.2368 56.9412 44.5432C58.9404 43.8496 61.0857 43.6884 63.166 44.0756C65.2463 44.4627 67.19 45.3849 68.8058 46.7513L77.0981 41.2279C74.2506 38.1262 70.5707 35.9095 66.4976 34.8425C62.4245 33.7754 58.1304 33.903 54.1278 35.2101C50.1253 36.5172 46.5835 38.9486 43.9253 42.2139C41.267 45.4792 39.6046 49.4406 39.1365 53.625H34.125V63.375H39.1316C39.5989 67.5605 41.2611 71.523 43.9197 74.7893C46.5782 78.0556 50.1208 80.4876 54.1243 81.7949C58.1278 83.1021 62.4229 83.2293 66.4967 82.1614C70.5706 81.0934 74.2509 78.8753 77.0981 75.7721L68.8058 70.2439C67.1903 71.6102 65.247 72.5325 63.167 72.9199C61.087 73.3074 58.942 73.1466 56.9429 72.4536C54.9439 71.7605 53.1597 70.559 51.7659 68.9671C50.3721 67.3753 49.4167 65.4481 48.9938 63.375L73.125 63.3799V53.6299H48.9938V53.625Z" fill="#323978"/>
</svg>
