<svg width="54" height="54" viewBox="0 0 54 54" fill="none" xmlns="http://www.w3.org/2000/svg">
<path fill-rule="evenodd" clip-rule="evenodd" d="M2.25 5.96778C2.25 4.98176 2.64169 4.03613 3.33891 3.33892C4.03613 2.6417 4.98176 2.25 5.96777 2.25H43.0282C43.5168 2.24921 44.0008 2.3448 44.4525 2.5313C44.9041 2.7178 45.3145 2.99156 45.6602 3.33689C46.006 3.68222 46.2802 4.09235 46.4672 4.5438C46.6541 4.99524 46.7503 5.47914 46.75 5.96778V43.0282C46.7505 43.5169 46.6547 44.001 46.468 44.4526C46.2812 44.9043 46.0073 45.3147 45.6618 45.6604C45.3163 46.0061 44.906 46.2802 44.4545 46.4672C44.0029 46.6542 43.5189 46.7503 43.0302 46.75H5.96777C5.47938 46.75 4.99577 46.6538 4.54458 46.4668C4.09338 46.2798 3.68345 46.0058 3.3382 45.6604C2.99294 45.3149 2.71913 44.9049 2.53242 44.4536C2.3457 44.0023 2.24973 43.5186 2.25 43.0302V5.96778ZM19.8639 19.2166H25.8896V22.2426C26.7594 20.5031 28.9844 18.9375 32.3279 18.9375C38.738 18.9375 40.257 22.4024 40.257 28.7599V40.5362H33.7702V30.2081C33.7702 26.5875 32.9004 24.5445 30.6916 24.5445C27.6271 24.5445 26.3528 26.7473 26.3528 30.2081V40.5362H19.8639V19.2166ZM8.73891 40.2591H15.2278V18.9375H8.73891V40.257V40.2591ZM16.1562 11.9834C16.1685 12.539 16.0696 13.0914 15.8655 13.6083C15.6613 14.1251 15.356 14.596 14.9674 14.9932C14.5787 15.3905 14.1147 15.7061 13.6025 15.9216C13.0902 16.1371 12.5401 16.2481 11.9844 16.2481C11.4287 16.2481 10.8785 16.1371 10.3663 15.9216C9.85404 15.7061 9.39 15.3905 9.0014 14.9932C8.61279 14.596 8.30745 14.1251 8.10329 13.6083C7.89913 13.0914 7.80027 12.539 7.8125 11.9834C7.83651 10.8928 8.2866 9.85504 9.06636 9.09226C9.84612 8.32947 10.8936 7.90235 11.9844 7.90235C13.0752 7.90235 14.1226 8.32947 14.9024 9.09226C15.6822 9.85504 16.1322 10.8928 16.1562 11.9834Z" fill="#323978"/>
</svg>
