<svg width="34" height="34" viewBox="0 0 34 34" fill="none" xmlns="http://www.w3.org/2000/svg">
<path d="M17.0002 29.7501C15.2108 28.2238 13.5523 26.5506 12.0418 24.7478C9.77516 22.0406 7.0835 18.0088 7.0835 14.1668C7.08251 12.2046 7.66363 10.2863 8.75331 8.65454C9.84299 7.0228 11.3922 5.75099 13.205 5.00007C15.0178 4.24915 17.0126 4.05288 18.9369 4.43609C20.8613 4.8193 22.6287 5.76477 24.0155 7.15284C24.9388 8.07206 25.6707 9.16527 26.1687 10.3692C26.6667 11.5731 26.921 12.8639 26.9168 14.1668C26.9168 18.0088 24.2252 22.0406 21.9585 24.7478C20.4481 26.5506 18.7895 28.2238 17.0002 29.7501ZM17.0002 9.91676C15.873 9.91676 14.792 10.3645 13.995 11.1616C13.1979 11.9586 12.7502 13.0396 12.7502 14.1668C12.7502 15.2939 13.1979 16.3749 13.995 17.172C14.792 17.969 15.873 18.4168 17.0002 18.4168C18.1273 18.4168 19.2083 17.969 20.0054 17.172C20.8024 16.3749 21.2502 15.2939 21.2502 14.1668C21.2502 13.0396 20.8024 11.9586 20.0054 11.1616C19.2083 10.3645 18.1273 9.91676 17.0002 9.91676Z" fill="white"/>
</svg>
