<svg width="756" height="492" viewBox="0 0 756 492" fill="none" xmlns="http://www.w3.org/2000/svg">
<g clip-path="url(#clip0_91_2)">
<path d="M148.439 313.504L144.26 310.909C143.861 310.663 143.469 310.398 143.071 310.145C151.968 308.62 160.08 304.115 166.075 297.372C172.07 290.628 175.591 282.048 176.059 273.04C176.526 264.033 173.913 255.134 168.648 247.807C163.384 240.48 155.781 235.161 147.09 232.724L147.296 249.1L138.294 231.29H138.168C132.951 231.046 127.738 231.832 122.825 233.601C117.913 235.371 113.397 238.09 109.536 241.604C105.675 245.118 102.545 249.357 100.324 254.079C98.1031 258.802 96.8349 263.915 96.5919 269.128C96.5521 269.884 96.5919 270.635 96.5919 271.385C93.4628 267.813 90.6127 263.983 88.7325 259.788C84.9257 251.297 84.8526 241.672 85.1516 229.982C85.7495 206.808 86.7527 183.461 88.0549 160.188C97.4553 159.142 106.175 154.782 112.648 147.891C119.121 141 122.923 132.029 123.372 122.589C123.426 121.374 123.406 120.172 123.372 118.984C123.372 118.685 123.372 118.387 123.326 118.094C123.246 116.939 123.14 115.798 122.961 114.669C122.961 114.483 122.894 114.304 122.861 114.125C122.701 113.169 122.502 112.226 122.276 111.29C122.19 110.945 122.104 110.626 122.011 110.248C121.731 109.239 121.426 108.257 121.067 107.254C120.948 106.929 120.808 106.59 120.682 106.285C120.403 105.561 120.097 104.844 119.772 104.141C119.599 103.769 119.433 103.397 119.253 103.032C119.2 102.939 119.167 102.84 119.114 102.747C114.916 94.4584 107.941 87.9035 99.405 84.2235C90.8686 80.5434 81.3109 79.9711 72.3958 82.6064L72.6615 103.915L63.7591 86.3105C56.4386 90.5011 50.65 96.9195 47.2378 104.629C43.8256 112.339 42.9685 120.936 44.7915 129.167H44.7516C44.8114 129.452 44.8978 129.718 44.9642 130.003C45.0904 130.528 45.2233 131.046 45.3695 131.563C45.5555 132.227 45.7681 132.891 45.9873 133.555C46.1534 134.039 46.3129 134.531 46.4989 135.015C46.7713 135.719 47.0769 136.403 47.3825 137.086C47.5619 137.485 47.7213 137.896 47.914 138.288C48.4189 139.319 48.9681 140.321 49.5616 141.295C49.7676 141.64 50.0001 141.959 50.226 142.297C50.6512 142.961 51.0764 143.625 51.5547 144.242C51.8404 144.634 52.146 145.006 52.4449 145.391C52.8834 145.942 53.3286 146.486 53.7737 147.011C54.0992 147.389 54.438 147.747 54.7769 148.113C55.2685 148.624 55.7668 149.122 56.285 149.613C56.6238 149.938 56.9493 150.277 57.328 150.582C57.9127 151.1 58.5239 151.598 59.1417 152.082C59.454 152.321 59.7596 152.58 60.0785 152.819C61.0219 153.483 61.9919 154.147 62.995 154.811C63.1811 154.93 63.387 155.023 63.573 155.136C64.4168 155.627 65.2672 156.092 66.1441 156.523C66.5228 156.709 66.9082 156.868 67.2935 157.041C68.011 157.366 68.7352 157.705 69.4792 157.957C69.9111 158.123 70.3496 158.276 70.808 158.428C71.5388 158.674 72.2829 158.9 73.0336 159.092C73.4721 159.212 73.9172 159.338 74.3623 159.444C75.1729 159.637 76.0033 159.796 76.8404 159.942L76.9998 159.975C76.4551 169.791 75.9679 179.613 75.5382 189.442C73.1702 184.576 69.8316 180.244 65.7274 176.714C61.6232 173.183 56.84 170.528 51.6716 168.912C46.5032 167.296 41.0587 166.752 35.6724 167.315C30.2861 167.877 25.0718 169.534 20.3495 172.183L27.3785 191.434L12.902 177.493C5.14973 184.576 0.528369 194.444 0.0531864 204.929C-0.132019 208.608 0.208007 212.293 1.06302 215.876C2.88077 223.627 6.98727 230.653 12.85 236.043C18.7127 241.434 26.0611 244.94 33.9422 246.107C41.8234 247.274 49.8736 246.048 57.0489 242.588C64.2243 239.128 70.1937 233.594 74.1829 226.703C74.1829 227.698 74.1165 228.694 74.0899 229.697C73.8242 240.012 73.492 252.851 78.6408 264.315C82.1287 272.082 87.736 278.388 93.2568 284.044C96.8643 287.728 100.605 291.286 104.438 294.731C108.209 299.797 113.132 303.893 118.802 306.68C125.1 311.533 131.624 316.093 138.367 320.302L142.579 322.917C146.366 325.261 150.246 327.67 154.046 330.173C153.382 330.107 152.717 330.034 152.053 330C143.622 329.608 135.284 331.905 128.245 336.558C121.206 341.212 115.83 347.982 112.895 355.89L137.743 376.09L110.411 369.757C110.419 376.476 112.132 383.083 115.389 388.962C118.646 394.84 123.34 399.798 129.035 403.372C134.729 406.946 141.237 409.02 147.951 409.4C154.664 409.779 161.365 408.453 167.426 405.544C166.815 406.314 166.2 407.079 165.58 407.84C164.357 409.358 163.15 410.867 161.959 412.368C145.788 432.827 141.29 452.257 149.296 467.067L159.036 461.809C151.243 447.398 162.962 428.943 170.642 419.225C171.811 417.743 172.998 416.26 174.203 414.777C184.547 401.919 196.253 387.395 195.968 369.551C195.536 342.673 169.393 326.502 148.439 313.504Z" fill="#F9F9F9"/>
<path d="M533.112 232.518L537.291 229.922C537.69 229.677 538.082 229.411 538.48 229.159C529.585 227.629 521.475 223.12 515.484 216.374C509.493 209.629 505.976 201.047 505.512 192.04C505.049 183.033 507.665 174.137 512.932 166.812C518.199 159.488 525.803 154.172 534.494 151.737L534.288 168.114L543.29 150.303H543.403C548.62 150.06 553.833 150.845 558.746 152.615C563.659 154.385 568.174 157.104 572.035 160.618C575.896 164.131 579.026 168.37 581.247 173.093C583.468 177.816 584.736 182.929 584.979 188.141C585.019 188.898 584.979 189.648 584.979 190.398C588.108 186.827 590.959 182.997 592.839 178.801C596.646 170.311 596.719 160.686 596.42 148.996C595.822 125.822 594.819 102.475 593.516 79.2011C584.116 78.1554 575.396 73.7955 568.923 66.9044C562.45 60.0133 558.648 51.0423 558.199 41.6021C558.146 40.3873 558.166 39.1858 558.199 37.9976C558.199 37.6988 558.199 37.4001 558.245 37.108C558.325 35.953 558.431 34.8112 558.611 33.6827C558.611 33.4968 558.677 33.3176 558.71 33.1384C558.87 32.1824 559.069 31.2398 559.295 30.3038C559.381 29.9586 559.468 29.64 559.561 29.2616C559.84 28.2526 560.145 27.2701 560.504 26.2678C560.624 25.9425 560.763 25.6039 560.889 25.2986C561.168 24.575 561.474 23.8581 561.8 23.1544C561.972 22.7827 562.138 22.4109 562.324 22.0458C562.371 21.9529 562.404 21.8533 562.457 21.7604C566.654 13.4764 573.623 6.92419 582.154 3.24325C590.685 -0.43769 600.237 -1.01443 609.149 1.61334L608.883 22.9221L617.786 5.31748C625.109 9.50743 630.899 15.9265 634.313 23.6376C637.726 31.3487 638.584 39.9482 636.76 48.1806H636.8C636.74 48.4661 636.654 48.7316 636.587 49.017C636.461 49.5414 636.328 50.0592 636.182 50.577C635.996 51.2408 635.783 51.9047 635.564 52.5685C635.398 53.0531 635.238 53.5443 635.052 54.0289C634.78 54.7326 634.474 55.4163 634.169 56.1C633.989 56.4983 633.83 56.9099 633.637 57.3016C633.132 58.3327 632.583 59.3351 631.99 60.3087C631.784 60.6539 631.551 60.9725 631.325 61.3111C630.9 61.9749 630.475 62.6387 629.997 63.2561C629.711 63.6477 629.405 64.0195 629.106 64.4045C628.668 64.9555 628.223 65.4998 627.778 66.0242C627.452 66.4026 627.113 66.761 626.774 67.1262C626.289 67.6373 625.785 68.1352 625.266 68.6264C624.927 68.9517 624.602 69.2902 624.223 69.5956C623.639 70.1134 623.027 70.6112 622.41 71.0958C622.097 71.3348 621.792 71.5937 621.473 71.8327C620.529 72.4965 619.559 73.1603 618.556 73.791C618.37 73.9104 618.164 74.0034 617.978 74.1162C617.135 74.6075 616.284 75.0721 615.407 75.5036C615.028 75.6895 614.643 75.8488 614.258 76.0214C613.54 76.3467 612.816 76.6852 612.072 76.9375C611.64 77.1034 611.202 77.2561 610.743 77.4088C610.013 77.6544 609.268 77.8801 608.518 78.0726C608.079 78.1921 607.634 78.3182 607.189 78.4244C606.378 78.617 605.548 78.7763 604.711 78.9223H604.551C605.096 88.7425 605.583 98.5649 606.013 108.389C608.381 103.523 611.72 99.1915 615.824 95.661C619.928 92.1306 624.711 89.4757 629.88 87.8593C635.048 86.243 640.493 85.6994 645.879 86.2618C651.265 86.8243 656.48 88.4809 661.202 91.13L654.173 110.381L668.636 96.507C676.388 103.59 681.01 113.458 681.485 123.943C681.67 127.621 681.33 131.307 680.475 134.889C678.657 142.64 674.551 149.666 668.688 155.057C662.825 160.447 655.477 163.953 647.596 165.12C639.715 166.287 631.664 165.061 624.489 161.601C617.314 158.142 611.344 152.607 607.355 145.716C607.355 146.712 607.428 147.708 607.448 148.71C607.714 159.026 608.046 171.864 602.897 183.329C599.409 191.095 593.802 197.402 588.281 203.057C584.674 206.742 580.933 210.3 577.1 213.745C573.329 218.811 568.406 222.907 562.736 225.694C556.438 230.546 549.914 235.107 543.171 239.316L538.959 241.931C535.172 244.274 531.292 246.684 527.492 249.187C528.156 249.12 528.821 249.047 529.485 249.014C537.916 248.622 546.254 250.918 553.293 255.572C560.332 260.226 565.708 266.996 568.643 274.903L543.795 295.103L571.127 288.77C571.119 295.49 569.406 302.097 566.149 307.975C562.892 313.854 558.198 318.811 552.503 322.386C546.809 325.96 540.301 328.033 533.587 328.413C526.874 328.793 520.173 327.466 514.112 324.557C514.723 325.327 515.338 326.093 515.958 326.854C517.181 328.372 518.388 329.881 519.579 331.381C535.75 351.84 540.248 371.271 532.242 386.081L522.502 380.823C530.295 366.411 518.576 347.957 510.896 338.239C509.727 336.756 508.54 335.274 507.335 333.791C497.004 320.966 485.298 306.428 485.584 288.598C486.016 261.686 512.132 245.516 533.112 232.518Z" fill="#F9F9F9"/>
<path d="M427.02 492C608.711 492 756 482.192 756 470.094C756 457.995 608.711 448.188 427.02 448.188C245.33 448.188 98.0403 457.995 98.0403 470.094C98.0403 482.192 245.33 492 427.02 492Z" fill="#F9F9F9"/>
<path d="M438.069 470.757L319.686 469.244L320.031 466.21L325.758 416.165H429.724L437.371 466.21L437.956 470.001L438.069 470.757Z" fill="#2F2E41"/>
<path opacity="0.1" d="M437.956 470.001H378.874L319.686 469.244L320.031 466.21H437.371L437.956 470.001Z" fill="black"/>
<path d="M457.043 466.967H299.954V470.758H457.043V466.967Z" fill="#3F3D56"/>
<path d="M606.923 115.579C606.929 114.282 606.68 112.998 606.189 111.798C605.698 110.598 604.976 109.506 604.063 108.585C603.15 107.664 602.064 106.932 600.868 106.43C599.671 105.929 598.388 105.667 597.091 105.661H158.398C157.1 105.667 155.817 105.929 154.621 106.43C153.424 106.932 152.339 107.664 151.426 108.585C150.513 109.506 149.79 110.598 149.299 111.798C148.808 112.998 148.559 114.282 148.565 115.579V381.281H606.923V115.579Z" fill="#3F3D56"/>
<path d="M148.565 378.632V409.752C148.565 412.358 149.601 414.857 151.445 416.699C153.289 418.542 155.79 419.577 158.398 419.577H597.09C599.698 419.577 602.199 418.542 604.043 416.699C605.887 414.857 606.923 412.358 606.923 409.752V378.632H148.565Z" fill="#3F3D56"/>
<path d="M590.221 122.343H167.533V361.193H590.221V122.343Z" fill="#2F2E41"/>
<path d="M379.997 407.767C381.549 407.769 383.081 407.418 384.477 406.741C385.873 406.063 387.097 405.077 388.055 403.857C388.348 403.485 388.615 403.092 388.853 402.682L383.232 401.76L389.311 401.806C389.893 400.538 390.21 399.165 390.245 397.771C390.279 396.376 390.029 394.989 389.51 393.694L381.352 397.923L388.872 392.4C388.166 391.187 387.218 390.132 386.086 389.3C384.955 388.469 383.664 387.879 382.295 387.567C380.925 387.255 379.506 387.228 378.126 387.487C376.745 387.746 375.433 388.286 374.27 389.073C373.108 389.861 372.119 390.879 371.367 392.064C370.615 393.249 370.114 394.576 369.897 395.962C369.679 397.348 369.749 398.765 370.103 400.123C370.456 401.481 371.085 402.752 371.951 403.857C372.908 405.075 374.13 406.06 375.523 406.738C376.917 407.415 378.447 407.767 379.997 407.767Z" fill="#6C63FF"/>
<path opacity="0.1" d="M390.261 419.577L437.49 466.967L430.242 419.577H390.261Z" fill="black"/>
<path d="M517.108 451.918L529.83 444.483C528.107 441.551 525.909 438.924 523.326 436.71L499.336 444.165L518.131 433.119C513.477 430.571 508.239 429.279 502.933 429.368C497.627 429.458 492.436 430.926 487.87 433.629C483.305 436.332 479.522 440.176 476.895 444.783C474.268 449.39 472.887 454.602 472.888 459.904C472.888 476.772 486.574 477.356 503.448 477.356C520.323 477.356 534.009 476.772 534.009 459.904C534.014 455.638 533.122 451.417 531.392 447.517L517.108 451.918Z" fill="#57B894"/>
<path opacity="0.1" d="M520.35 468.315C518.993 466.96 517.479 465.772 515.839 464.777C513.534 463.243 511.142 461.683 508.418 461.159C506.033 460.701 503.562 461.086 501.11 460.953C496.88 460.694 492.898 458.869 489.942 455.835C488.201 454.042 486.84 451.852 484.747 450.464C482.495 448.991 479.638 448.672 476.974 449.037C476.197 449.153 475.427 449.313 474.668 449.515C473.469 452.836 472.857 456.34 472.861 459.871C472.861 476.739 486.547 477.323 503.422 477.323C511.614 477.323 519.055 477.183 524.542 475.112L523.625 473.4C522.753 471.573 521.652 469.865 520.35 468.315Z" fill="black"/>
<path opacity="0.3" d="M200.359 214.488H186.308V218.75H200.359V214.488Z" fill="#6C63FF"/>
<path opacity="0.3" d="M575.293 214.614H561.242V218.876H575.293V214.614Z" fill="#6C63FF"/>
<path opacity="0.3" d="M200.485 244.447H186.434V248.709H200.485V244.447Z" fill="#6C63FF"/>
<path opacity="0.3" d="M200.611 274.405H186.56V278.667H200.611V274.405Z" fill="#6C63FF"/>
<path opacity="0.3" d="M200.738 304.357H186.687V308.619H200.738V304.357Z" fill="#6C63FF"/>
<g opacity="0.2">
<path opacity="0.2" d="M204.345 216.54H200.359V216.706H204.345V216.54Z" fill="#F9F9F9"/>
<path opacity="0.2" d="M549.17 216.706H541.337V216.54H549.17V216.706ZM533.498 216.706H525.665V216.54H533.498V216.706ZM517.825 216.706H509.986V216.54H517.825V216.706ZM502.153 216.706H494.313V216.54H502.153V216.706ZM486.481 216.706H478.641V216.54H486.481V216.706ZM470.802 216.706H462.969V216.54H470.802V216.706ZM455.129 216.706H447.29V216.54H455.129V216.706ZM439.457 216.706H431.617V216.54H439.457V216.706ZM423.785 216.706H415.945V216.54H423.785V216.706ZM408.106 216.706H400.273V216.54H408.106V216.706ZM392.433 216.706H384.594V216.54H392.433V216.706ZM376.761 216.706H368.921V216.54H376.761V216.706ZM361.088 216.706H353.249V216.54H361.088V216.706ZM345.41 216.706H337.577V216.54H345.41V216.706ZM329.737 216.706H321.904V216.54H329.737V216.706ZM314.065 216.706H306.252V216.54H314.091L314.065 216.706ZM298.392 216.706H290.553V216.54H298.392V216.706ZM282.713 216.706H274.881V216.54H282.713V216.706ZM267.041 216.706H259.208V216.54H267.054L267.041 216.706ZM251.369 216.706H243.529V216.54H251.369V216.706ZM235.696 216.706H227.857V216.54H235.696V216.706ZM220.017 216.706H212.185V216.54H220.017V216.706Z" fill="#F9F9F9"/>
<path opacity="0.2" d="M560.995 216.54H557.009V216.706H560.995V216.54Z" fill="#F9F9F9"/>
<path opacity="0.2" d="M204.345 216.54H200.359V216.706H204.345V216.54Z" fill="#F9F9F9"/>
<path opacity="0.2" d="M549.17 216.706H541.337V216.54H549.17V216.706ZM533.498 216.706H525.665V216.54H533.498V216.706ZM517.825 216.706H509.986V216.54H517.825V216.706ZM502.153 216.706H494.313V216.54H502.153V216.706ZM486.481 216.706H478.641V216.54H486.481V216.706ZM470.802 216.706H462.969V216.54H470.802V216.706ZM455.129 216.706H447.29V216.54H455.129V216.706ZM439.457 216.706H431.617V216.54H439.457V216.706ZM423.785 216.706H415.945V216.54H423.785V216.706ZM408.106 216.706H400.273V216.54H408.106V216.706ZM392.433 216.706H384.594V216.54H392.433V216.706ZM376.761 216.706H368.921V216.54H376.761V216.706ZM361.088 216.706H353.249V216.54H361.088V216.706ZM345.41 216.706H337.577V216.54H345.41V216.706ZM329.737 216.706H321.904V216.54H329.737V216.706ZM314.065 216.706H306.252V216.54H314.091L314.065 216.706ZM298.392 216.706H290.553V216.54H298.392V216.706ZM282.713 216.706H274.881V216.54H282.713V216.706ZM267.041 216.706H259.208V216.54H267.054L267.041 216.706ZM251.369 216.706H243.529V216.54H251.369V216.706ZM235.696 216.706H227.857V216.54H235.696V216.706ZM220.017 216.706H212.185V216.54H220.017V216.706Z" fill="#F9F9F9"/>
<path opacity="0.2" d="M560.995 216.54H557.009V216.706H560.995V216.54Z" fill="#F9F9F9"/>
</g>
<path opacity="0.3" d="M200.359 184.616H186.308V188.878H200.359V184.616Z" fill="#6C63FF"/>
<path opacity="0.3" d="M575.293 184.742H561.242V189.004H575.293V184.742Z" fill="#6C63FF"/>
<g opacity="0.2">
<path opacity="0.2" d="M204.345 186.667H200.359V186.833H204.345V186.667Z" fill="#F9F9F9"/>
<path opacity="0.2" d="M549.17 186.833H541.337V186.667H549.17V186.833ZM533.498 186.833H525.665V186.667H533.498V186.833ZM517.825 186.833H509.986V186.667H517.825V186.833ZM502.153 186.833H494.313V186.667H502.153V186.833ZM486.481 186.833H478.641V186.667H486.481V186.833ZM470.802 186.833H462.969V186.667H470.802V186.833ZM455.129 186.833H447.29V186.667H455.129V186.833ZM439.457 186.833H431.617V186.667H439.457V186.833ZM423.785 186.833H415.945V186.667H423.785V186.833ZM408.106 186.833H400.273V186.667H408.106V186.833ZM392.433 186.833H384.594V186.667H392.433V186.833ZM376.761 186.833H368.921V186.667H376.761V186.833ZM361.088 186.833H353.249V186.667H361.088V186.833ZM345.41 186.833H337.577V186.667H345.41V186.833ZM329.737 186.833H321.904V186.667H329.737V186.833ZM314.065 186.833H306.252V186.667H314.091L314.065 186.833ZM298.392 186.833H290.553V186.667H298.392V186.833ZM282.713 186.833H274.881V186.667H282.713V186.833ZM267.041 186.833H259.208V186.667H267.054L267.041 186.833ZM251.369 186.833H243.529V186.667H251.369V186.833ZM235.696 186.833H227.857V186.667H235.696V186.833ZM220.017 186.833H212.185V186.667H220.017V186.833Z" fill="#F9F9F9"/>
<path opacity="0.2" d="M560.995 186.667H557.009V186.833H560.995V186.667Z" fill="#F9F9F9"/>
</g>
<path opacity="0.3" d="M575.293 244.447H561.242V248.709H575.293V244.447Z" fill="#6C63FF"/>
<g opacity="0.2">
<path opacity="0.2" d="M204.345 246.372H200.359V246.538H204.345V246.372Z" fill="#F9F9F9"/>
<path opacity="0.2" d="M549.17 246.531H541.337V246.365H549.17V246.531ZM533.498 246.531H525.665V246.365H533.498V246.531ZM517.825 246.531H509.986V246.365H517.825V246.531ZM502.153 246.531H494.313V246.365H502.153V246.531ZM486.481 246.531H478.641V246.365H486.481V246.531ZM470.802 246.531H462.969V246.365H470.802V246.531ZM455.129 246.531H447.29V246.365H455.129V246.531ZM439.457 246.531H431.617V246.365H439.457V246.531ZM423.785 246.531H415.945V246.365H423.785V246.531ZM408.106 246.531H400.273V246.365H408.106V246.531ZM392.433 246.531H384.594V246.365H392.433V246.531ZM376.761 246.531H368.921V246.365H376.761V246.531ZM361.088 246.531H353.249V246.365H361.088V246.531ZM345.41 246.531H337.577V246.365H345.41V246.531ZM329.737 246.531H321.904V246.365H329.737V246.531ZM314.065 246.531H306.252V246.365H314.091L314.065 246.531ZM298.392 246.531H290.553V246.365H298.392V246.531ZM282.713 246.531H274.881V246.365H282.713V246.531ZM267.041 246.531H259.208V246.365H267.054L267.041 246.531ZM251.369 246.531H243.529V246.365H251.369V246.531ZM235.696 246.531H227.857V246.365H235.696V246.531ZM220.017 246.531H212.185V246.365H220.017V246.531Z" fill="#F9F9F9"/>
<path opacity="0.2" d="M560.995 246.372H557.009V246.538H560.995V246.372Z" fill="#F9F9F9"/>
<path opacity="0.2" d="M204.345 246.372H200.359V246.538H204.345V246.372Z" fill="#F9F9F9"/>
<path opacity="0.2" d="M549.17 246.531H541.337V246.365H549.17V246.531ZM533.498 246.531H525.665V246.365H533.498V246.531ZM517.825 246.531H509.986V246.365H517.825V246.531ZM502.153 246.531H494.313V246.365H502.153V246.531ZM486.481 246.531H478.641V246.365H486.481V246.531ZM470.802 246.531H462.969V246.365H470.802V246.531ZM455.129 246.531H447.29V246.365H455.129V246.531ZM439.457 246.531H431.617V246.365H439.457V246.531ZM423.785 246.531H415.945V246.365H423.785V246.531ZM408.106 246.531H400.273V246.365H408.106V246.531ZM392.433 246.531H384.594V246.365H392.433V246.531ZM376.761 246.531H368.921V246.365H376.761V246.531ZM361.088 246.531H353.249V246.365H361.088V246.531ZM345.41 246.531H337.577V246.365H345.41V246.531ZM329.737 246.531H321.904V246.365H329.737V246.531ZM314.065 246.531H306.252V246.365H314.091L314.065 246.531ZM298.392 246.531H290.553V246.365H298.392V246.531ZM282.713 246.531H274.881V246.365H282.713V246.531ZM267.041 246.531H259.208V246.365H267.054L267.041 246.531ZM251.369 246.531H243.529V246.365H251.369V246.531ZM235.696 246.531H227.857V246.365H235.696V246.531ZM220.017 246.531H212.185V246.365H220.017V246.531Z" fill="#F9F9F9"/>
<path opacity="0.2" d="M560.995 246.372H557.009V246.538H560.995V246.372Z" fill="#F9F9F9"/>
</g>
<path opacity="0.3" d="M575.293 274.279H561.242V278.541H575.293V274.279Z" fill="#6C63FF"/>
<g opacity="0.2">
<path opacity="0.2" d="M204.345 276.197H200.359V276.363H204.345V276.197Z" fill="#F9F9F9"/>
<path opacity="0.2" d="M549.17 276.363H541.337V276.197H549.17V276.363ZM533.498 276.363H525.665V276.197H533.498V276.363ZM517.825 276.363H509.986V276.197H517.825V276.363ZM502.153 276.363H494.313V276.197H502.153V276.363ZM486.481 276.363H478.641V276.197H486.481V276.363ZM470.802 276.363H462.969V276.197H470.802V276.363ZM455.129 276.363H447.29V276.197H455.129V276.363ZM439.457 276.363H431.617V276.197H439.457V276.363ZM423.785 276.363H415.945V276.197H423.785V276.363ZM408.106 276.363H400.273V276.197H408.106V276.363ZM392.433 276.363H384.594V276.197H392.433V276.363ZM376.761 276.363H368.921V276.197H376.761V276.363ZM361.088 276.363H353.249V276.197H361.088V276.363ZM345.41 276.363H337.577V276.197H345.41V276.363ZM329.737 276.363H321.904V276.197H329.737V276.363ZM314.065 276.363H306.252V276.197H314.091L314.065 276.363ZM298.392 276.363H290.553V276.197H298.392V276.363ZM282.713 276.363H274.881V276.197H282.713V276.363ZM267.041 276.363H259.208V276.197H267.054L267.041 276.363ZM251.369 276.363H243.529V276.197H251.369V276.363ZM235.696 276.363H227.857V276.197H235.696V276.363ZM220.017 276.363H212.185V276.197H220.017V276.363Z" fill="#F9F9F9"/>
<path opacity="0.2" d="M560.995 276.197H557.009V276.363H560.995V276.197Z" fill="#F9F9F9"/>
<path opacity="0.2" d="M204.345 276.197H200.359V276.363H204.345V276.197Z" fill="#F9F9F9"/>
<path opacity="0.2" d="M549.17 276.363H541.337V276.197H549.17V276.363ZM533.498 276.363H525.665V276.197H533.498V276.363ZM517.825 276.363H509.986V276.197H517.825V276.363ZM502.153 276.363H494.313V276.197H502.153V276.363ZM486.481 276.363H478.641V276.197H486.481V276.363ZM470.802 276.363H462.969V276.197H470.802V276.363ZM455.129 276.363H447.29V276.197H455.129V276.363ZM439.457 276.363H431.617V276.197H439.457V276.363ZM423.785 276.363H415.945V276.197H423.785V276.363ZM408.106 276.363H400.273V276.197H408.106V276.363ZM392.433 276.363H384.594V276.197H392.433V276.363ZM376.761 276.363H368.921V276.197H376.761V276.363ZM361.088 276.363H353.249V276.197H361.088V276.363ZM345.41 276.363H337.577V276.197H345.41V276.363ZM329.737 276.363H321.904V276.197H329.737V276.363ZM314.065 276.363H306.252V276.197H314.091L314.065 276.363ZM298.392 276.363H290.553V276.197H298.392V276.363ZM282.713 276.363H274.881V276.197H282.713V276.363ZM267.041 276.363H259.208V276.197H267.054L267.041 276.363ZM251.369 276.363H243.529V276.197H251.369V276.363ZM235.696 276.363H227.857V276.197H235.696V276.363ZM220.017 276.363H212.185V276.197H220.017V276.363Z" fill="#F9F9F9"/>
<path opacity="0.2" d="M560.995 276.197H557.009V276.363H560.995V276.197Z" fill="#F9F9F9"/>
</g>
<path opacity="0.3" d="M575.293 304.104H561.242V308.366H575.293V304.104Z" fill="#6C63FF"/>
<g opacity="0.2">
<path opacity="0.2" d="M204.345 306.03H200.359V306.196H204.345V306.03Z" fill="#F9F9F9"/>
<path opacity="0.2" d="M549.17 306.196H541.337V306.03H549.17V306.196ZM533.498 306.196H525.665V306.03H533.498V306.196ZM517.825 306.196H509.986V306.03H517.825V306.196ZM502.153 306.196H494.313V306.03H502.153V306.196ZM486.481 306.196H478.641V306.03H486.481V306.196ZM470.802 306.196H462.969V306.03H470.802V306.196ZM455.129 306.196H447.29V306.03H455.129V306.196ZM439.457 306.196H431.617V306.03H439.457V306.196ZM423.785 306.196H415.945V306.03H423.785V306.196ZM408.106 306.196H400.273V306.03H408.106V306.196ZM392.433 306.196H384.594V306.03H392.433V306.196ZM376.761 306.196H368.921V306.03H376.761V306.196ZM361.088 306.196H353.249V306.03H361.088V306.196ZM345.41 306.196H337.577V306.03H345.41V306.196ZM329.737 306.196H321.904V306.03H329.737V306.196ZM314.065 306.196H306.252V306.03H314.091L314.065 306.196ZM298.392 306.196H290.553V306.03H298.392V306.196ZM282.713 306.196H274.881V306.03H282.713V306.196ZM267.041 306.196H259.208V306.03H267.054L267.041 306.196ZM251.369 306.196H243.529V306.03H251.369V306.196ZM235.696 306.196H227.857V306.03H235.696V306.196ZM220.017 306.196H212.185V306.03H220.017V306.196Z" fill="#F9F9F9"/>
<path opacity="0.2" d="M560.995 306.03H557.009V306.196H560.995V306.03Z" fill="#F9F9F9"/>
<path opacity="0.2" d="M204.345 306.03H200.359V306.196H204.345V306.03Z" fill="#F9F9F9"/>
<path opacity="0.2" d="M549.17 306.196H541.337V306.03H549.17V306.196ZM533.498 306.196H525.665V306.03H533.498V306.196ZM517.825 306.196H509.986V306.03H517.825V306.196ZM502.153 306.196H494.313V306.03H502.153V306.196ZM486.481 306.196H478.641V306.03H486.481V306.196ZM470.802 306.196H462.969V306.03H470.802V306.196ZM455.129 306.196H447.29V306.03H455.129V306.196ZM439.457 306.196H431.617V306.03H439.457V306.196ZM423.785 306.196H415.945V306.03H423.785V306.196ZM408.106 306.196H400.273V306.03H408.106V306.196ZM392.433 306.196H384.594V306.03H392.433V306.196ZM376.761 306.196H368.921V306.03H376.761V306.196ZM361.088 306.196H353.249V306.03H361.088V306.196ZM345.41 306.196H337.577V306.03H345.41V306.196ZM329.737 306.196H321.904V306.03H329.737V306.196ZM314.065 306.196H306.252V306.03H314.091L314.065 306.196ZM298.392 306.196H290.553V306.03H298.392V306.196ZM282.713 306.196H274.881V306.03H282.713V306.196ZM267.041 306.196H259.208V306.03H267.054L267.041 306.196ZM251.369 306.196H243.529V306.03H251.369V306.196ZM235.696 306.196H227.857V306.03H235.696V306.196ZM220.017 306.196H212.185V306.03H220.017V306.196Z" fill="#F9F9F9"/>
<path opacity="0.2" d="M560.995 306.03H557.009V306.196H560.995V306.03Z" fill="#F9F9F9"/>
</g>
<path d="M246.167 186.873V306.488" stroke="#F9F9F9" stroke-width="0.1" stroke-miterlimit="10"/>
<path d="M294.666 186.873V306.488" stroke="#F9F9F9" stroke-width="0.1" stroke-miterlimit="10"/>
<path d="M343.164 186.873V306.488" stroke="#F9F9F9" stroke-width="0.1" stroke-miterlimit="10"/>
<path d="M391.663 186.873V306.488" stroke="#F9F9F9" stroke-width="0.1" stroke-miterlimit="10"/>
<path d="M440.161 186.873V306.488" stroke="#F9F9F9" stroke-width="0.1" stroke-miterlimit="10"/>
<path d="M488.66 186.873V306.488" stroke="#F9F9F9" stroke-width="0.1" stroke-miterlimit="10"/>
<path d="M537.158 186.873V306.488" stroke="#F9F9F9" stroke-width="0.1" stroke-miterlimit="10"/>
<path opacity="0.3" d="M547.648 178.801L542.101 184.576C541.989 184.697 541.895 184.833 541.822 184.981L538.381 192.064C538.244 192.349 538.024 192.585 537.75 192.743C537.476 192.9 537.161 192.972 536.846 192.947L535.743 192.861C535.423 192.838 535.117 192.718 534.868 192.516C534.618 192.314 534.437 192.041 534.348 191.732L533.285 188.055C533.192 187.733 532.999 187.449 532.734 187.245C532.469 187.04 532.145 186.926 531.81 186.918C531.475 186.909 531.147 187.008 530.872 187.2C530.597 187.391 530.39 187.665 530.282 187.982L528.495 193.213C528.389 193.525 528.188 193.796 527.92 193.988C527.652 194.179 527.33 194.282 527 194.281H520.177C519.803 194.28 519.441 194.146 519.156 193.903C518.871 193.659 518.682 193.323 518.622 192.954L516.696 180.905C516.645 180.576 516.49 180.271 516.254 180.035C516.018 179.799 515.714 179.644 515.384 179.592C515.054 179.541 514.717 179.595 514.42 179.747C514.123 179.9 513.882 180.143 513.733 180.441L503.854 199.924C503.752 200.126 503.608 200.303 503.431 200.444C503.254 200.585 503.049 200.686 502.83 200.741C502.611 200.796 502.382 200.803 502.16 200.762C501.937 200.72 501.727 200.631 501.542 200.501L495.669 196.359C495.348 196.134 494.956 196.036 494.567 196.082C494.179 196.129 493.821 196.317 493.563 196.611L491.337 199.18C491.271 199.256 491.214 199.339 491.164 199.426L485.225 209.695C485.074 209.959 484.85 210.172 484.58 210.31C484.31 210.448 484.005 210.504 483.703 210.472L480.083 210.114C479.83 210.089 479.575 210.125 479.339 210.22L476.097 211.514C475.721 211.656 475.306 211.649 474.935 211.494C474.565 211.34 474.267 211.051 474.103 210.684L473.393 209.058C473.264 208.767 473.051 208.521 472.781 208.353C472.511 208.185 472.196 208.102 471.878 208.115L468.171 208.288C467.941 208.298 467.717 208.358 467.513 208.465C467.31 208.572 467.133 208.722 466.995 208.905L465.945 210.273C465.772 210.498 465.542 210.673 465.278 210.778C465.014 210.883 464.726 210.915 464.446 210.87C464.165 210.825 463.902 210.705 463.684 210.523C463.466 210.341 463.301 210.103 463.208 209.835L461.879 206.084C461.797 205.851 461.661 205.64 461.483 205.469C461.304 205.298 461.087 205.171 460.85 205.1C460.613 205.028 460.363 205.013 460.119 205.056C459.876 205.099 459.645 205.199 459.448 205.347L453.136 210.074L446.16 215.696C445.922 215.888 445.633 216.006 445.329 216.036C445.025 216.067 444.718 216.009 444.446 215.869L439.032 213.061C438.741 212.912 438.412 212.857 438.088 212.902L427.12 214.435C426.802 214.478 426.504 214.617 426.267 214.832C426.029 215.048 425.863 215.331 425.791 215.643L423.844 224.094C423.784 224.357 423.656 224.601 423.473 224.801C423.291 225.001 423.06 225.15 422.803 225.235C422.546 225.32 422.271 225.337 422.006 225.285C421.74 225.232 421.492 225.113 421.286 224.937C421.104 224.781 420.889 224.67 420.657 224.609C420.425 224.549 420.183 224.543 419.948 224.59C419.713 224.637 419.492 224.737 419.301 224.883C419.111 225.028 418.956 225.214 418.848 225.428L417.353 228.422C417.241 228.643 417.079 228.835 416.879 228.983C416.68 229.13 416.449 229.229 416.204 229.272L412.809 229.836C412.59 229.874 412.382 229.958 412.198 230.081L406.85 233.64C406.593 233.812 406.29 233.905 405.979 233.905H403.475C403.167 233.906 402.866 233.816 402.608 233.647C402.351 233.479 402.149 233.238 402.027 232.956L401.362 231.369C401.278 231.177 401.155 231.004 401.002 230.859C400.85 230.715 400.67 230.603 400.473 230.529C400.276 230.455 400.066 230.422 399.856 230.431C399.646 230.439 399.44 230.49 399.249 230.579L393.443 233.294C393.209 233.404 392.951 233.455 392.693 233.442C392.435 233.429 392.184 233.354 391.961 233.221L389.304 231.622C389.059 231.475 388.779 231.397 388.493 231.396H382.627C382.317 231.397 382.014 231.489 381.757 231.661L375.904 235.545C375.678 235.694 375.418 235.783 375.148 235.803C374.878 235.823 374.607 235.773 374.362 235.658L371.705 234.403C371.395 234.258 371.047 234.218 370.713 234.289C370.378 234.36 370.076 234.537 369.851 234.795L368.589 236.235C368.424 236.426 368.215 236.574 367.98 236.667C367.746 236.76 367.492 236.795 367.241 236.769C366.99 236.743 366.749 236.656 366.538 236.517C366.327 236.378 366.154 236.19 366.031 235.97L365.653 235.306C365.55 235.122 365.412 234.961 365.246 234.832C365.08 234.703 364.89 234.609 364.686 234.554C364.483 234.5 364.271 234.487 364.063 234.515C363.855 234.544 363.654 234.614 363.473 234.722L358.869 237.45C358.631 237.587 358.361 237.659 358.085 237.659C357.81 237.659 357.54 237.587 357.302 237.45L355.401 236.394C355.187 236.274 354.947 236.205 354.701 236.195C354.455 236.185 354.21 236.232 353.986 236.335L352.179 237.158C351.976 237.249 351.756 237.296 351.533 237.297C351.31 237.297 351.09 237.251 350.886 237.161C350.683 237.07 350.501 236.939 350.351 236.773C350.202 236.608 350.089 236.413 350.02 236.202L348.851 232.723C348.751 232.404 348.551 232.125 348.281 231.928C348.011 231.731 347.684 231.626 347.349 231.628H345.649C345.381 231.629 345.118 231.561 344.885 231.429L338.354 227.851C338.088 227.707 337.786 227.643 337.485 227.665C337.184 227.688 336.895 227.796 336.653 227.977L331.863 231.562C331.591 231.766 331.26 231.875 330.92 231.874H324.894C324.584 231.874 324.281 231.966 324.024 232.139L322.894 232.889C322.708 233.014 322.498 233.097 322.278 233.134C322.057 233.171 321.831 233.161 321.615 233.104C321.399 233.046 321.197 232.944 321.023 232.803C320.85 232.662 320.709 232.485 320.609 232.285L320.336 231.748C320.207 231.485 320.007 231.263 319.758 231.108C319.509 230.953 319.221 230.871 318.928 230.871H315.905C315.665 230.872 315.428 230.927 315.213 231.033C314.998 231.139 314.809 231.292 314.663 231.482L312.789 233.879C312.634 234.077 312.433 234.236 312.204 234.341C311.974 234.446 311.723 234.494 311.471 234.482C311.219 234.469 310.973 234.397 310.755 234.27C310.537 234.143 310.353 233.965 310.218 233.752L309.687 232.923C309.467 232.575 309.12 232.327 308.72 232.233C308.32 232.139 307.899 232.205 307.547 232.418L305.993 233.347C305.728 233.506 305.423 233.583 305.115 233.57C304.807 233.557 304.509 233.454 304.259 233.274L297.994 228.741C297.882 228.661 297.761 228.595 297.635 228.541L292.739 226.663C292.357 226.524 291.937 226.538 291.566 226.701C291.195 226.864 290.901 227.165 290.746 227.539L287.337 235.837C287.288 235.954 287.254 236.076 287.238 236.202L286.135 243.677C286.086 243.993 285.942 244.287 285.723 244.52L283.391 247.022C283.149 247.277 282.83 247.445 282.482 247.499C282.135 247.553 281.779 247.491 281.471 247.321L277.425 245.077C277.224 244.965 277 244.898 276.77 244.881C276.54 244.864 276.309 244.898 276.093 244.98C275.878 245.063 275.683 245.191 275.523 245.357C275.363 245.523 275.241 245.722 275.166 245.94L272.602 253.435C272.544 253.599 272.514 253.772 272.515 253.946V258.672C272.515 258.979 272.424 259.278 272.256 259.534C272.087 259.79 271.847 259.991 271.565 260.113L267.453 261.932C267.224 262.03 266.976 262.073 266.728 262.057C266.479 262.041 266.238 261.966 266.025 261.839L262.929 260.02C262.62 259.839 262.259 259.769 261.905 259.821L256.478 260.597C256.167 260.642 255.851 260.592 255.569 260.455C255.287 260.318 255.053 260.099 254.896 259.827L253.98 258.261C253.782 257.923 253.464 257.672 253.089 257.557L250.625 256.787C250.337 256.696 250.03 256.689 249.738 256.768C249.447 256.847 249.185 257.008 248.984 257.232L245.562 261.029C245.292 261.327 244.92 261.512 244.519 261.547L239.47 261.972C239.236 261.985 239.008 262.053 238.806 262.171L230.003 267.229C229.728 267.385 229.413 267.455 229.098 267.43C228.783 267.405 228.482 267.287 228.236 267.09L225.737 265.098C225.458 264.876 225.111 264.755 224.754 264.753H215.294C215.057 264.754 214.824 264.701 214.611 264.599C214.398 264.496 214.211 264.347 214.065 264.162L211.68 261.188C211.537 261.01 211.357 260.866 211.152 260.765C210.948 260.663 210.724 260.607 210.496 260.601C210.268 260.595 210.041 260.638 209.831 260.728C209.621 260.818 209.434 260.952 209.281 261.122L206.411 264.308C206.151 264.596 206.007 264.969 206.006 265.357V304.948C206.006 305.365 206.172 305.765 206.467 306.06C206.762 306.355 207.163 306.521 207.58 306.521H548.884C549.092 306.521 549.297 306.48 549.488 306.4C549.68 306.321 549.854 306.204 550 306.058C550.146 305.911 550.262 305.737 550.341 305.545C550.42 305.353 550.46 305.148 550.459 304.941L550.366 179.923C550.37 179.606 550.28 179.296 550.105 179.031C549.931 178.767 549.681 178.56 549.389 178.44C549.096 178.319 548.773 178.288 548.463 178.353C548.153 178.417 547.869 178.573 547.648 178.801Z" fill="#6C63FF"/>
<path opacity="0.3" d="M547.343 230.068L542.201 233.493C542.021 233.615 541.861 233.765 541.729 233.938L538.534 238.153C538.34 238.403 538.09 238.603 537.803 238.737C537.517 238.871 537.202 238.935 536.886 238.924L535.843 238.87C535.485 238.853 535.139 238.737 534.842 238.535C534.546 238.334 534.311 238.055 534.162 237.729L533.498 236.315C533.35 235.983 533.111 235.699 532.808 235.496C532.506 235.293 532.153 235.179 531.789 235.168C531.426 235.156 531.066 235.247 530.751 235.429C530.436 235.612 530.18 235.88 530.01 236.202L528.681 238.744C528.515 239.056 528.268 239.317 527.964 239.498C527.661 239.679 527.314 239.775 526.961 239.773H520.37C519.936 239.775 519.513 239.631 519.171 239.363C518.829 239.096 518.586 238.721 518.483 238.3L516.902 231.973C516.814 231.621 516.629 231.3 516.368 231.047C516.107 230.794 515.78 230.619 515.424 230.543C515.069 230.466 514.699 230.49 514.357 230.613C514.014 230.736 513.713 230.952 513.487 231.236L503.987 243.238C503.719 243.58 503.344 243.821 502.922 243.923C502.5 244.025 502.056 243.983 501.662 243.803L495.556 241.048C495.236 240.898 494.882 240.838 494.531 240.875C494.18 240.911 493.845 241.042 493.563 241.254L491.377 242.867C491.273 242.945 491.177 243.034 491.092 243.132L485.325 249.512C485.131 249.734 484.889 249.909 484.617 250.024C484.346 250.139 484.052 250.191 483.757 250.175L479.99 249.936C479.785 249.924 479.579 249.942 479.379 249.989L475.984 250.859C475.597 250.96 475.188 250.939 474.813 250.799C474.439 250.659 474.117 250.406 473.891 250.076L473.506 249.505C473.322 249.237 473.073 249.019 472.783 248.872C472.493 248.725 472.17 248.652 471.845 248.662L468.058 248.775C467.621 248.782 467.2 248.942 466.869 249.226L465.939 250.003C465.718 250.187 465.46 250.321 465.182 250.394C464.904 250.467 464.613 250.478 464.33 250.425C464.048 250.372 463.78 250.258 463.547 250.09C463.314 249.921 463.121 249.703 462.982 249.452L461.999 247.673C461.759 247.238 461.362 246.911 460.889 246.759C460.416 246.607 459.903 246.642 459.455 246.856L453.083 249.916L446.034 253.554C445.804 253.672 445.553 253.743 445.295 253.763C445.037 253.782 444.778 253.75 444.533 253.667L438.919 251.808C438.667 251.725 438.4 251.694 438.135 251.715L427.266 252.638C426.897 252.676 426.547 252.816 426.253 253.043C425.96 253.269 425.735 253.573 425.605 253.919L424.031 258.314C423.936 258.578 423.784 258.818 423.587 259.018C423.391 259.219 423.153 259.374 422.89 259.473C422.628 259.573 422.347 259.615 422.066 259.596C421.786 259.577 421.513 259.497 421.267 259.363L421.2 259.329C420.797 259.106 420.327 259.034 419.875 259.126C419.423 259.219 419.019 259.47 418.736 259.834L417.5 261.414C417.172 261.825 416.694 262.09 416.171 262.151L412.77 262.516C412.578 262.535 412.39 262.582 412.212 262.655L406.824 264.959C406.581 265.058 406.322 265.11 406.06 265.111H403.469C403.152 265.111 402.839 265.034 402.559 264.886C402.279 264.738 402.039 264.523 401.861 264.262L401.489 263.717C401.255 263.377 400.92 263.12 400.531 262.983C400.141 262.845 399.718 262.835 399.323 262.954L393.284 264.779C392.87 264.904 392.426 264.888 392.022 264.733L389.218 263.658C389.006 263.574 388.781 263.529 388.554 263.525H382.534C382.274 263.525 382.016 263.579 381.777 263.684L375.798 266.22C375.378 266.401 374.907 266.427 374.469 266.293L371.513 265.41C371.225 265.324 370.921 265.306 370.625 265.357C370.329 265.407 370.048 265.526 369.805 265.702L368.51 266.651C368.117 266.938 367.632 267.068 367.149 267.015C366.666 266.962 366.22 266.731 365.899 266.366L365.706 266.147C365.445 265.849 365.099 265.638 364.714 265.542C364.329 265.446 363.924 265.469 363.554 265.609L358.737 267.448C358.308 267.604 357.837 267.604 357.408 267.448L355.296 266.691C354.91 266.558 354.492 266.547 354.1 266.658L352.107 267.236C351.67 267.361 351.203 267.331 350.787 267.149C350.371 266.967 350.032 266.645 349.828 266.24L349.084 264.746C348.921 264.424 348.673 264.152 348.366 263.963C348.058 263.773 347.704 263.672 347.343 263.671H345.616C345.39 263.675 345.165 263.639 344.951 263.565L338.248 261.215C338.007 261.129 337.751 261.091 337.496 261.105C337.24 261.119 336.99 261.183 336.76 261.294L331.863 263.644C331.6 263.769 331.312 263.835 331.02 263.837H324.834C324.572 263.838 324.313 263.89 324.07 263.99L322.808 264.534C322.413 264.701 321.974 264.734 321.559 264.627C321.143 264.521 320.774 264.28 320.509 263.943C320.328 263.709 320.095 263.52 319.829 263.39C319.563 263.26 319.271 263.193 318.975 263.193H315.852C315.402 263.192 314.966 263.347 314.617 263.631L312.803 265.118C312.43 265.427 311.955 265.584 311.471 265.559C310.988 265.535 310.531 265.33 310.192 264.985L309.78 264.574C309.514 264.306 309.176 264.121 308.806 264.043C308.437 263.964 308.053 263.994 307.7 264.129L305.893 264.826C305.399 265.01 304.852 264.991 304.372 264.773L298.014 261.825C297.902 261.772 297.784 261.732 297.662 261.706L292.673 260.478C292.279 260.38 291.865 260.408 291.488 260.558C291.111 260.708 290.791 260.972 290.573 261.314L287.437 266.2C287.317 266.388 287.23 266.594 287.178 266.811L286.228 270.96C286.114 271.433 285.831 271.849 285.431 272.128L283.358 273.549C283.106 273.722 282.816 273.833 282.512 273.873C282.208 273.912 281.899 273.878 281.611 273.774L277.346 272.261C276.9 272.103 276.412 272.114 275.973 272.29C275.534 272.466 275.174 272.795 274.961 273.217L272.715 277.412C272.567 277.695 272.49 278.009 272.489 278.328V280.22C272.487 280.645 272.347 281.058 272.089 281.395C271.831 281.733 271.47 281.978 271.061 282.092L267.327 283.128C266.931 283.24 266.509 283.221 266.125 283.074L262.869 281.846C262.594 281.741 262.299 281.7 262.005 281.727L256.392 282.238C256.092 282.267 255.791 282.226 255.51 282.117C255.23 282.009 254.979 281.837 254.777 281.614L254.113 280.877C253.836 280.567 253.465 280.357 253.057 280.28L250.499 279.762C250.237 279.712 249.969 279.716 249.708 279.772C249.448 279.827 249.202 279.935 248.984 280.087L245.616 282.484C245.314 282.695 244.96 282.819 244.593 282.842L239.43 283.114C239.235 283.126 239.043 283.167 238.859 283.234L229.897 286.553C229.646 286.648 229.377 286.689 229.11 286.673C228.842 286.657 228.58 286.584 228.342 286.46L225.751 285.132C225.478 284.993 225.175 284.92 224.868 284.92H215.234C214.789 284.92 214.358 284.768 214.012 284.488L211.68 282.623C211.349 282.359 210.942 282.209 210.518 282.197C210.095 282.185 209.68 282.311 209.335 282.557L206.837 284.336C206.584 284.516 206.378 284.754 206.236 285.03C206.094 285.306 206.02 285.612 206.02 285.922V304.582C206.02 305.098 206.225 305.593 206.59 305.958C206.955 306.322 207.45 306.527 207.966 306.527H548.513C549.029 306.527 549.524 306.322 549.889 305.958C550.254 305.593 550.459 305.098 550.459 304.582L550.366 231.714C550.371 231.361 550.279 231.012 550.1 230.707C549.921 230.401 549.662 230.15 549.351 229.981C549.04 229.812 548.689 229.73 548.335 229.745C547.981 229.761 547.638 229.872 547.343 230.068Z" fill="#6C63FF"/>
<path d="M548.718 234.224C551.287 234.224 553.369 232.143 553.369 229.577C553.369 227.011 551.287 224.93 548.718 224.93C546.15 224.93 544.068 227.011 544.068 229.577C544.068 232.143 546.15 234.224 548.718 234.224Z" fill="#6C63FF"/>
<path opacity="0.3" d="M548.419 275.547L542.101 277.651C541.98 277.693 541.864 277.749 541.756 277.817L538.288 280.107C538.035 280.272 537.738 280.355 537.437 280.346L535.278 280.293C535.077 280.289 534.879 280.244 534.697 280.161C534.514 280.077 534.35 279.958 534.215 279.809L532.886 278.348C532.754 278.202 532.595 278.084 532.416 278.001C532.238 277.917 532.045 277.87 531.848 277.862C531.651 277.854 531.455 277.885 531.271 277.954C531.086 278.023 530.917 278.127 530.774 278.262L528.535 280.36C528.263 280.619 527.901 280.765 527.525 280.765H519.765C519.489 280.766 519.217 280.69 518.982 280.544C518.747 280.399 518.558 280.19 518.436 279.941L516.663 276.403C516.57 276.219 516.44 276.055 516.281 275.924C516.121 275.793 515.936 275.696 515.737 275.641C515.538 275.585 515.33 275.571 515.125 275.601C514.921 275.631 514.725 275.703 514.55 275.812L503.568 282.763C503.236 282.971 502.835 283.04 502.452 282.955L494.931 281.262C494.653 281.197 494.362 281.215 494.094 281.316L491.35 282.331C491.278 282.354 491.209 282.385 491.144 282.424L485.079 285.783C484.845 285.911 484.581 285.975 484.315 285.969L479.824 285.823C479.746 285.816 479.668 285.816 479.591 285.823L475.273 286.374C474.897 286.42 474.517 286.323 474.21 286.102L473.333 285.438C473.073 285.247 472.758 285.146 472.436 285.152L467.699 285.219C467.509 285.219 467.322 285.257 467.148 285.332L465.022 286.228C464.761 286.335 464.476 286.367 464.198 286.319C463.921 286.271 463.662 286.145 463.454 285.956L461.713 284.416C461.536 284.256 461.322 284.142 461.09 284.083C460.859 284.024 460.617 284.022 460.384 284.077L453.116 285.83L445.642 287.761C445.441 287.805 445.232 287.805 445.031 287.761L438.719 286.712C438.618 286.706 438.516 286.706 438.414 286.712L426.741 287.237C426.517 287.247 426.298 287.308 426.102 287.414C425.905 287.521 425.735 287.672 425.605 287.854L423.844 290.277C423.669 290.523 423.421 290.709 423.136 290.81C422.851 290.911 422.541 290.922 422.25 290.841L420.37 290.324C420.169 290.271 419.96 290.26 419.756 290.292C419.551 290.324 419.355 290.398 419.18 290.51L417.3 291.711C417.084 291.845 416.837 291.923 416.583 291.937L412.597 292.156C412.521 292.149 412.446 292.149 412.371 292.156L406.617 293.384C406.515 293.405 406.41 293.416 406.305 293.417H402.93C402.617 293.417 402.312 293.317 402.06 293.132L401.183 292.468C401.028 292.353 400.852 292.269 400.665 292.222C400.478 292.176 400.284 292.167 400.093 292.196L392.911 293.271C392.746 293.298 392.578 293.298 392.413 293.271L389.038 292.607C388.945 292.597 388.852 292.597 388.759 292.607H382.282C382.18 292.597 382.078 292.597 381.976 292.607L375.405 294.001C375.23 294.034 375.05 294.034 374.874 294.001L370.961 293.41C370.714 293.377 370.463 293.404 370.23 293.49L367.719 294.406C367.517 294.482 367.301 294.511 367.086 294.493C366.871 294.474 366.663 294.409 366.476 294.3L365.287 293.636C364.985 293.458 364.628 293.397 364.284 293.464L358.305 294.599C358.127 294.632 357.944 294.632 357.767 294.599L354.89 294.088C354.734 294.064 354.575 294.064 354.418 294.088L351.243 294.546C351.016 294.58 350.784 294.561 350.566 294.49C350.347 294.418 350.149 294.296 349.987 294.134L348.937 293.132C348.656 292.857 348.28 292.703 347.887 292.7H345.37C345.286 292.707 345.201 292.707 345.117 292.7L337.769 291.412C337.57 291.369 337.364 291.369 337.165 291.412L331.611 292.74C331.497 292.767 331.381 292.78 331.265 292.78H324.575C324.473 292.77 324.371 292.77 324.269 292.78L322.004 293.264C321.622 293.37 321.215 293.323 320.868 293.132L320.243 292.727C320.005 292.575 319.728 292.495 319.446 292.494H315.4C315.208 292.495 315.019 292.534 314.842 292.607L312.012 293.762C311.817 293.844 311.607 293.882 311.395 293.874C311.184 293.866 310.978 293.812 310.789 293.716L309.288 292.959C308.996 292.813 308.665 292.767 308.345 292.826L305.381 293.397C305.18 293.44 304.972 293.44 304.77 293.397L297.901 291.804H297.748L291.908 291.08C291.519 291.036 291.128 291.146 290.819 291.386L287.497 293.961C287.311 294.105 287.163 294.292 287.065 294.506L286.321 296.159C286.237 296.34 286.117 296.503 285.969 296.638C285.82 296.773 285.646 296.876 285.457 296.942L282.906 297.812C282.67 297.897 282.415 297.918 282.169 297.871L276.495 296.862C276.269 296.823 276.036 296.837 275.816 296.903C275.596 296.968 275.394 297.084 275.226 297.241L272.974 299.345C272.826 299.484 272.708 299.651 272.628 299.838C272.548 300.024 272.508 300.224 272.509 300.427C272.509 300.783 272.38 301.128 272.145 301.396C271.911 301.665 271.587 301.839 271.233 301.887L266.975 302.478C266.816 302.505 266.655 302.505 266.496 302.478L262.643 301.748C262.528 301.735 262.412 301.735 262.297 301.748L255.86 302.04C255.589 302.051 255.321 301.989 255.082 301.861L253.953 301.244C253.78 301.144 253.587 301.083 253.388 301.064L250.007 300.726C249.782 300.703 249.555 300.73 249.342 300.805L245.356 302.219C245.209 302.272 245.054 302.301 244.898 302.306L239.231 302.458C239.153 302.452 239.076 302.452 238.998 302.458L229.398 304.231C229.19 304.274 228.975 304.274 228.767 304.231L225.498 303.394C225.376 303.365 225.252 303.35 225.126 303.348H214.822C214.633 303.35 214.445 303.314 214.271 303.242L211.042 301.954C210.704 301.825 210.33 301.825 209.992 301.954L206.989 303.023C206.701 303.123 206.452 303.311 206.276 303.56C206.1 303.808 206.005 304.105 206.006 304.41V305.074C206.005 305.268 206.043 305.46 206.116 305.64C206.19 305.819 206.298 305.983 206.436 306.12C206.573 306.258 206.735 306.367 206.915 306.441C207.094 306.516 207.287 306.554 207.481 306.554H548.964C549.158 306.554 549.351 306.516 549.53 306.441C549.709 306.367 549.872 306.258 550.009 306.12C550.146 305.983 550.255 305.819 550.329 305.64C550.402 305.46 550.44 305.268 550.439 305.074L550.352 277.014C550.362 276.776 550.313 276.54 550.212 276.324C550.11 276.109 549.958 275.921 549.768 275.778C549.578 275.634 549.357 275.537 549.122 275.497C548.887 275.457 548.646 275.474 548.419 275.547Z" fill="#6C63FF"/>
<path d="M292.938 265.423C295.507 265.423 297.589 263.343 297.589 260.777C297.589 258.21 295.507 256.13 292.938 256.13C290.37 256.13 288.288 258.21 288.288 260.777C288.288 263.343 290.37 265.423 292.938 265.423Z" fill="#6C63FF"/>
<path d="M516.164 236.215C518.733 236.215 520.815 234.135 520.815 231.569C520.815 229.002 518.733 226.922 516.164 226.922C513.596 226.922 511.514 229.002 511.514 231.569C511.514 234.135 513.596 236.215 516.164 236.215Z" fill="#6C63FF"/>
<path d="M400.565 267.415C403.134 267.415 405.216 265.335 405.216 262.768C405.216 260.202 403.134 258.122 400.565 258.122C397.997 258.122 395.915 260.202 395.915 262.768C395.915 265.335 397.997 267.415 400.565 267.415Z" fill="#6C63FF"/>
<path d="M461.022 250.819C463.591 250.819 465.673 248.739 465.673 246.173C465.673 243.606 463.591 241.526 461.022 241.526C458.454 241.526 456.372 243.606 456.372 246.173C456.372 248.739 458.454 250.819 461.022 250.819Z" fill="#6C63FF"/>
<path d="M551.03 231.675C551.029 231.324 550.932 230.98 550.751 230.679C550.57 230.378 550.311 230.132 550.001 229.967C549.691 229.801 549.342 229.723 548.991 229.74C548.64 229.756 548.3 229.868 548.007 230.062L542.865 233.487C542.685 233.609 542.525 233.759 542.393 233.932L539.198 238.147C539.004 238.397 538.754 238.597 538.467 238.731C538.181 238.865 537.866 238.929 537.55 238.917L536.507 238.864C536.149 238.846 535.803 238.73 535.506 238.529C535.21 238.327 534.975 238.048 534.826 237.722L534.162 236.308C534.014 235.976 533.775 235.692 533.472 235.49C533.17 235.287 532.817 235.173 532.453 235.161C532.09 235.149 531.73 235.24 531.415 235.423C531.1 235.606 530.844 235.874 530.674 236.195L529.345 238.738C529.179 239.05 528.932 239.31 528.628 239.492C528.325 239.673 527.978 239.768 527.625 239.767H521.034C520.6 239.769 520.177 239.624 519.835 239.357C519.493 239.09 519.25 238.715 519.147 238.293L517.566 231.967C517.478 231.614 517.293 231.293 517.032 231.04C516.771 230.788 516.444 230.613 516.088 230.536C515.733 230.46 515.363 230.484 515.021 230.606C514.678 230.729 514.377 230.945 514.151 231.23L504.651 243.232C504.383 243.573 504.008 243.814 503.586 243.917C503.164 244.019 502.72 243.977 502.326 243.796L496.22 241.041C495.9 240.892 495.546 240.832 495.195 240.868C494.844 240.905 494.509 241.035 494.227 241.247L492.041 242.86C491.937 242.938 491.841 243.027 491.756 243.126L485.989 249.505C485.795 249.727 485.553 249.902 485.281 250.017C485.01 250.132 484.716 250.184 484.421 250.169L480.654 249.93C480.449 249.918 480.243 249.936 480.043 249.983L476.648 250.853C476.261 250.954 475.852 250.933 475.477 250.792C475.103 250.652 474.781 250.4 474.555 250.069L474.17 249.498C473.986 249.23 473.737 249.013 473.447 248.865C473.157 248.718 472.834 248.646 472.509 248.655L468.722 248.768C468.285 248.775 467.864 248.935 467.533 249.22L466.603 249.996C466.383 250.181 466.124 250.315 465.846 250.388C465.568 250.461 465.277 250.471 464.994 250.419C464.712 250.366 464.444 250.251 464.211 250.083C463.978 249.915 463.785 249.697 463.646 249.445L462.663 247.666C462.423 247.231 462.026 246.905 461.553 246.753C461.08 246.601 460.567 246.636 460.119 246.85L453.747 249.91L446.698 253.548C446.468 253.666 446.217 253.737 445.959 253.756C445.701 253.776 445.442 253.743 445.197 253.661L439.583 251.802C439.331 251.719 439.064 251.687 438.799 251.709L427.93 252.638C427.561 252.676 427.211 252.817 426.917 253.043C426.624 253.269 426.399 253.573 426.269 253.919L424.695 258.314C424.6 258.578 424.448 258.818 424.252 259.019C424.055 259.219 423.817 259.374 423.554 259.474C423.292 259.573 423.011 259.615 422.73 259.596C422.45 259.577 422.177 259.497 421.931 259.363L421.864 259.33C421.461 259.106 420.991 259.034 420.539 259.126C420.087 259.219 419.683 259.47 419.4 259.834L418.164 261.414C417.836 261.825 417.358 262.09 416.835 262.151L413.434 262.516C413.242 262.535 413.054 262.582 412.876 262.655L407.488 264.959C407.245 265.059 406.986 265.11 406.724 265.112H404.133C403.816 265.111 403.503 265.034 403.223 264.886C402.943 264.738 402.703 264.524 402.525 264.262L402.153 263.718C401.919 263.377 401.584 263.12 401.195 262.983C400.805 262.845 400.382 262.835 399.987 262.954L393.948 264.78C393.534 264.904 393.09 264.888 392.686 264.733L389.882 263.658C389.67 263.574 389.445 263.529 389.218 263.525H383.198C382.938 263.525 382.68 263.579 382.441 263.684L376.462 266.22C376.042 266.401 375.571 266.427 375.133 266.293L372.177 265.41C371.889 265.324 371.585 265.306 371.289 265.357C370.993 265.408 370.712 265.526 370.469 265.702L369.174 266.652C368.781 266.938 368.296 267.068 367.813 267.015C367.33 266.962 366.884 266.731 366.563 266.366L366.37 266.147C366.109 265.849 365.763 265.638 365.378 265.542C364.993 265.446 364.589 265.469 364.218 265.609L359.401 267.448C358.972 267.605 358.501 267.605 358.072 267.448L355.96 266.691C355.574 266.558 355.156 266.547 354.764 266.658L352.771 267.236C352.334 267.362 351.867 267.331 351.451 267.149C351.035 266.967 350.696 266.646 350.492 266.24L349.748 264.746C349.586 264.424 349.337 264.153 349.03 263.963C348.722 263.773 348.368 263.672 348.007 263.671H346.28C346.054 263.675 345.829 263.639 345.615 263.565L338.912 261.215C338.671 261.129 338.415 261.091 338.16 261.105C337.904 261.119 337.654 261.183 337.424 261.295L332.527 263.645C332.264 263.77 331.976 263.835 331.684 263.837H325.498C325.236 263.838 324.977 263.89 324.734 263.99L323.472 264.534C323.077 264.701 322.638 264.734 322.223 264.628C321.807 264.521 321.439 264.28 321.173 263.943C320.992 263.709 320.759 263.52 320.493 263.39C320.227 263.26 319.935 263.193 319.639 263.193H316.516C316.066 263.193 315.63 263.347 315.281 263.631L313.467 265.118C313.094 265.427 312.619 265.584 312.135 265.56C311.652 265.535 311.195 265.33 310.856 264.985L310.444 264.574C310.178 264.306 309.84 264.122 309.47 264.043C309.101 263.964 308.717 263.994 308.365 264.129L306.557 264.826C306.063 265.01 305.516 264.991 305.036 264.773L298.678 261.826C298.566 261.772 298.448 261.732 298.326 261.706L293.337 260.478C292.943 260.38 292.529 260.408 292.152 260.558C291.775 260.708 291.455 260.973 291.237 261.314L288.101 266.2C287.981 266.388 287.894 266.594 287.842 266.811L286.892 270.96C286.778 271.434 286.495 271.849 286.095 272.128L284.022 273.549C283.77 273.723 283.48 273.834 283.176 273.873C282.872 273.912 282.563 273.878 282.275 273.774L278.01 272.261C277.564 272.104 277.076 272.114 276.637 272.29C276.198 272.466 275.838 272.795 275.625 273.217L273.379 277.412C273.231 277.695 273.154 278.009 273.153 278.328V280.22C273.151 280.645 273.011 281.058 272.753 281.396C272.495 281.733 272.134 281.978 271.725 282.092L267.991 283.128C267.595 283.24 267.173 283.221 266.789 283.075L263.533 281.847C263.258 281.741 262.963 281.7 262.67 281.727L257.056 282.238C256.757 282.267 256.455 282.226 256.174 282.118C255.894 282.009 255.643 281.837 255.441 281.614L254.777 280.877C254.5 280.567 254.129 280.357 253.721 280.28L251.163 279.762C250.901 279.713 250.633 279.716 250.372 279.772C250.112 279.828 249.866 279.935 249.648 280.087L246.28 282.484C245.978 282.695 245.624 282.82 245.257 282.842L240.094 283.114C239.899 283.127 239.707 283.167 239.523 283.234L230.561 286.553C230.31 286.648 230.042 286.689 229.774 286.673C229.506 286.657 229.244 286.585 229.006 286.46L226.415 285.133C226.142 284.993 225.839 284.92 225.532 284.92H215.898C215.453 284.92 215.022 284.768 214.676 284.489L212.344 282.623C212.013 282.359 211.606 282.209 211.183 282.197C210.759 282.185 210.344 282.312 209.999 282.557L207.501 284.336C207.248 284.516 207.042 284.754 206.9 285.03C206.758 285.306 206.684 285.612 206.684 285.922" stroke="#6C63FF" stroke-miterlimit="10"/>
<path opacity="0.2" d="M575.293 333.764H186.64V333.831H575.293V333.764Z" fill="#F9F9F9"/>
<path opacity="0.3" d="M246.433 337.117C248.267 337.117 249.754 335.631 249.754 333.798C249.754 331.965 248.267 330.479 246.433 330.479C244.598 330.479 243.111 331.965 243.111 333.798C243.111 335.631 244.598 337.117 246.433 337.117Z" fill="#6C63FF"/>
<path opacity="0.3" d="M294.931 337.117C296.766 337.117 298.253 335.631 298.253 333.798C298.253 331.965 296.766 330.479 294.931 330.479C293.097 330.479 291.609 331.965 291.609 333.798C291.609 335.631 293.097 337.117 294.931 337.117Z" fill="#6C63FF"/>
<path opacity="0.3" d="M343.43 337.117C345.264 337.117 346.752 335.631 346.752 333.798C346.752 331.965 345.264 330.479 343.43 330.479C341.595 330.479 340.108 331.965 340.108 333.798C340.108 335.631 341.595 337.117 343.43 337.117Z" fill="#6C63FF"/>
<path opacity="0.3" d="M391.928 337.117C393.763 337.117 395.25 335.631 395.25 333.798C395.25 331.965 393.763 330.479 391.928 330.479C390.094 330.479 388.606 331.965 388.606 333.798C388.606 335.631 390.094 337.117 391.928 337.117Z" fill="#6C63FF"/>
<path opacity="0.3" d="M440.427 337.117C442.261 337.117 443.749 335.631 443.749 333.798C443.749 331.965 442.261 330.479 440.427 330.479C438.592 330.479 437.105 331.965 437.105 333.798C437.105 335.631 438.592 337.117 440.427 337.117Z" fill="#6C63FF"/>
<path opacity="0.3" d="M488.925 337.117C490.76 337.117 492.247 335.631 492.247 333.798C492.247 331.965 490.76 330.479 488.925 330.479C487.091 330.479 485.604 331.965 485.604 333.798C485.604 335.631 487.091 337.117 488.925 337.117Z" fill="#6C63FF"/>
<path opacity="0.3" d="M537.424 337.117C539.259 337.117 540.746 335.631 540.746 333.798C540.746 331.965 539.259 330.479 537.424 330.479C535.59 330.479 534.103 331.965 534.103 333.798C534.103 335.631 535.59 337.117 537.424 337.117Z" fill="#6C63FF"/>
<path d="M159.248 461.796C157.255 458.138 159.514 453.658 162.098 450.398C164.683 447.139 167.818 443.76 167.752 439.584C167.652 433.61 161.308 430.079 156.239 426.912C152.474 424.56 149.003 421.768 145.901 418.594C144.603 417.374 143.528 415.936 142.725 414.346C141.676 412.009 141.702 409.354 141.769 406.798C141.995 398.266 142.418 389.749 143.038 381.248" stroke="#3F3D56" stroke-width="4" stroke-miterlimit="10"/>
<path d="M133.398 380.796C133.468 379.236 133.931 377.718 134.744 376.384C135.557 375.05 136.693 373.942 138.048 373.162L140.134 377.285L140.068 372.293C141.066 372 142.105 371.875 143.144 371.921C144.979 372.012 146.746 372.644 148.222 373.737C149.698 374.83 150.817 376.336 151.438 378.064C152.058 379.791 152.153 381.664 151.709 383.446C151.266 385.227 150.304 386.838 148.946 388.074C147.588 389.31 145.893 390.117 144.077 390.392C142.26 390.667 140.403 390.398 138.739 389.62C137.075 388.841 135.679 387.588 134.727 386.017C133.776 384.447 133.311 382.63 133.391 380.796H133.398Z" fill="#57B894"/>
<path d="M150.027 443.853C151.005 445.747 152.605 447.247 154.558 448.103C156.512 448.959 158.7 449.117 160.757 448.553C162.814 447.988 164.614 446.734 165.856 445.001C167.097 443.268 167.705 441.161 167.577 439.033C167.449 436.906 166.593 434.887 165.152 433.315C163.711 431.743 161.774 430.714 159.664 430.399C157.554 430.085 155.4 430.505 153.564 431.589C151.727 432.672 150.319 434.354 149.575 436.351L155.401 441.084L148.99 439.604C148.993 441.082 149.348 442.539 150.027 443.853Z" fill="#57B894"/>
<path d="M154.631 425.763C156.947 425.927 159.242 425.218 161.062 423.777C162.882 422.336 164.097 420.267 164.468 417.976C164.839 415.685 164.338 413.338 163.065 411.398C161.791 409.457 159.837 408.062 157.587 407.488L157.64 411.325L155.528 407.15C154.304 407.09 153.081 407.272 151.928 407.686C150.776 408.1 149.716 408.737 148.811 409.561C147.905 410.385 147.171 411.38 146.651 412.488C146.132 413.596 145.836 414.796 145.781 416.018C145.727 417.093 145.862 418.17 146.18 419.198C146.74 421.029 147.853 422.642 149.365 423.817C150.878 424.992 152.717 425.672 154.631 425.763Z" fill="#57B894"/>
<path d="M131.996 410.715C133.427 410.767 134.851 410.489 136.157 409.901C137.463 409.313 138.615 408.432 139.524 407.327C140.434 406.221 141.075 404.92 141.398 403.526C141.722 402.132 141.719 400.682 141.389 399.289C141.06 397.897 140.413 396.599 139.499 395.497C138.585 394.395 137.429 393.519 136.12 392.937C134.812 392.355 133.386 392.083 131.955 392.142C130.524 392.2 129.126 392.589 127.87 393.276L129.518 397.79L126.129 394.537C124.314 396.199 123.231 398.512 123.12 400.97C123.076 401.833 123.154 402.698 123.352 403.539C123.818 405.51 124.913 407.277 126.472 408.572C128.032 409.867 129.971 410.619 131.996 410.715Z" fill="#57B894"/>
<path opacity="0.1" d="M134.653 383.279C136.806 383.511 138.899 384.182 141.058 384.314C143.217 384.447 145.589 383.929 146.957 382.256C147.688 381.354 148.06 380.205 148.678 379.223C149.268 378.304 150.076 377.545 151.03 377.012C151.592 378.187 151.902 379.467 151.937 380.769C151.973 382.071 151.734 383.366 151.236 384.57C150.739 385.774 149.993 386.86 149.049 387.758C148.104 388.655 146.981 389.344 145.752 389.78C144.524 390.216 143.218 390.389 141.918 390.288C140.618 390.187 139.354 389.814 138.208 389.194C137.062 388.573 136.059 387.719 135.265 386.686C134.47 385.653 133.902 384.465 133.597 383.199C133.951 383.212 134.303 383.239 134.653 383.279Z" fill="black"/>
<path opacity="0.1" d="M131.996 410.715C133.604 410.797 135.206 410.46 136.644 409.737C138.083 409.014 139.309 407.931 140.203 406.593C141.097 405.255 141.628 403.708 141.744 402.103C141.86 400.498 141.557 398.891 140.865 397.438C140.125 397.935 139.489 398.571 138.992 399.31C138.327 400.313 137.922 401.468 137.145 402.391C135.69 404.097 133.212 404.654 130.96 404.555C128.707 404.455 126.535 403.811 124.316 403.605C124.004 403.605 123.691 403.559 123.373 403.552C123.839 405.519 124.933 407.28 126.488 408.572C128.043 409.864 129.976 410.616 131.996 410.715Z" fill="black"/>
<path opacity="0.1" d="M154.631 425.764C156.227 425.847 157.818 425.517 159.25 424.807C160.682 424.096 161.907 423.029 162.806 421.708C163.704 420.387 164.247 418.856 164.382 417.264C164.516 415.673 164.238 414.073 163.573 412.62C162.8 413.125 162.124 413.766 161.58 414.512C160.856 415.534 160.404 416.709 159.587 417.652C158.012 419.404 155.368 420.022 152.99 419.962C150.611 419.902 148.452 419.351 146.16 419.172C146.717 421.011 147.831 422.632 149.347 423.812C150.864 424.993 152.71 425.675 154.631 425.764Z" fill="black"/>
<path opacity="0.1" d="M150.027 443.853C151.036 446.105 152.899 447.865 155.206 448.746C157.514 449.626 160.076 449.554 162.331 448.546C164.585 447.538 166.347 445.677 167.228 443.371C168.109 441.065 168.037 438.505 167.028 436.252C166.259 436.752 165.569 437.366 164.982 438.071C164.091 439.153 163.507 440.381 162.484 441.39C160.577 443.262 157.501 444.045 154.757 444.105C153.177 444.111 151.597 444.027 150.027 443.853Z" fill="black"/>
<path d="M173.313 457.587C173.313 457.587 165.952 457.362 163.733 455.782C161.514 454.202 152.438 452.323 151.867 454.852C151.296 457.382 140.805 467.465 149.11 467.505C157.415 467.545 168.416 466.21 170.635 464.85C172.854 463.489 173.313 457.587 173.313 457.587Z" fill="#656380"/>
<path opacity="0.2" d="M148.964 466.622C157.275 466.689 168.27 465.334 170.482 463.967C172.17 462.938 172.841 459.254 173.067 457.561H173.313C173.313 457.561 172.847 463.489 170.655 464.863C168.463 466.237 157.441 467.572 149.13 467.518C146.731 467.518 145.907 466.649 145.954 465.388C146.266 466.131 147.176 466.609 148.964 466.622Z" fill="black"/>
<path d="M637.106 375.877C636.622 377.263 636.438 378.736 636.567 380.199C636.89 381.659 637.576 383.015 638.56 384.142C639.054 384.927 639.821 385.502 640.713 385.755C641.176 385.798 641.641 385.714 642.059 385.511C642.477 385.309 642.832 384.996 643.085 384.607C643.584 383.821 643.88 382.925 643.948 381.998C644.136 379.527 644.013 377.043 643.583 374.603C643.304 372.551 643.231 370.294 642.686 368.31C641.278 368.31 639.65 368.051 638.866 369.392C637.863 371.138 637.624 373.926 637.106 375.877Z" fill="#FFC0C6"/>
<path d="M644.812 339.333C644.467 340.309 643.982 341.239 643.663 342.228C643.358 343.257 643.136 344.309 642.998 345.374C642.012 351.625 640.681 357.817 639.012 363.922C638.418 365.715 638.083 367.583 638.016 369.471L641.816 369.338C642.173 369.281 642.539 369.362 642.839 369.564C643.164 369.856 643.384 370.5 643.796 370.334C644.508 366.686 645.007 363 645.29 359.295C645.443 356.639 645.37 354.037 645.543 351.415C645.875 346.191 647.43 340.236 645.397 335.185C645.473 336.592 645.274 338.001 644.812 339.333Z" fill="#3F3D56"/>
<path opacity="0.1" d="M644.812 339.333C644.467 340.309 643.982 341.239 643.663 342.228C643.358 343.257 643.136 344.309 642.998 345.374C642.012 351.625 640.681 357.817 639.012 363.922C638.418 365.715 638.083 367.583 638.016 369.471L641.816 369.338C642.173 369.281 642.539 369.362 642.839 369.564C643.164 369.856 643.384 370.5 643.796 370.334C644.508 366.686 645.007 363 645.29 359.295C645.443 356.639 645.37 354.037 645.543 351.415C645.875 346.191 647.43 340.236 645.397 335.185C645.473 336.592 645.274 338.001 644.812 339.333Z" fill="black"/>
<path d="M649.536 308.041C648.606 308.837 648.287 310.112 648.014 311.307L645.809 321.012C645.304 323.229 644.799 325.446 644.48 327.697C643.085 337.096 644.699 346.762 643.151 356.135C642.703 358.224 642.406 360.343 642.261 362.474C642.194 366.378 643.703 370.261 643.078 374.111C642.868 374.795 642.868 375.525 643.078 376.209C643.397 376.873 644.473 377.085 644.772 376.441C644.825 376.324 644.859 376.198 644.872 376.07L647.171 361.578C647.722 358.133 648.267 354.635 647.888 351.163C647.629 348.8 646.938 346.436 647.317 344.087C647.566 342.922 647.906 341.779 648.333 340.668C650.552 334.03 650.247 326.814 648.998 319.95C648.745 318.953 648.673 317.919 648.785 316.896C649.091 315.217 650.393 313.929 651.27 312.469C651.934 311.367 653.077 308.944 652.598 307.616C652.107 306.063 650.473 307.238 649.536 308.041Z" fill="#3F3D56"/>
<path d="M653.216 448.36C652.91 448.328 652.601 448.383 652.326 448.519C652.093 448.688 651.912 448.918 651.801 449.183C651.064 450.703 650.545 452.463 649.144 453.445C648.438 453.886 647.663 454.205 646.852 454.388L640.607 456.167C639.803 456.392 638.886 456.724 638.613 457.494C638.341 458.264 638.926 459.207 639.676 459.658C640.793 460.19 642.031 460.419 643.264 460.322L652.306 460.455C653.165 460.516 654.028 460.428 654.857 460.196C655.913 459.824 656.804 458.981 657.913 458.869C658.817 458.769 659.687 459.161 660.571 459.36C662.411 459.765 664.318 459.36 666.145 458.895C666.476 458.849 666.785 458.701 667.028 458.47C667.227 458.182 667.322 457.837 667.301 457.488C667.374 455.941 667.4 454.401 667.394 452.841C667.394 451.44 667.228 449.814 666.065 449.044C665.529 448.738 664.933 448.554 664.318 448.506C660.61 448.035 656.95 448.387 653.216 448.36Z" fill="#575A88"/>
<path d="M677.14 468.016C676.885 468.619 676.561 469.192 676.177 469.722L672.37 475.484C670.815 477.827 669.207 480.337 669.101 483.145C671.638 484.121 674.363 484.513 677.073 484.293C678.43 484.258 679.751 483.847 680.887 483.105C682.521 481.903 683.166 479.786 683.697 477.847C683.735 477.589 683.865 477.353 684.063 477.183C684.401 476.951 684.86 477.183 685.272 477.097C686.115 476.991 686.408 475.929 686.468 475.106C686.636 472.481 686.412 469.845 685.803 467.286C685.757 466.966 685.616 466.668 685.398 466.429C685.145 466.24 684.843 466.127 684.528 466.104C682.627 465.779 680.727 465.401 678.821 465.122C676.303 464.717 677.851 466.204 677.14 468.016Z" fill="#575A88"/>
<path d="M645.702 365.342C643.862 367.679 643.271 370.799 643.41 373.766C643.55 376.733 644.367 379.628 645.051 382.522C646.174 387.232 646.986 392.011 647.483 396.827C647.561 398.175 647.784 399.51 648.147 400.81C648.473 401.819 648.978 402.762 649.27 403.778C649.629 405.012 649.662 406.327 649.994 407.568C650.443 408.909 651.017 410.205 651.708 411.438C654.744 417.638 655.395 424.715 655.448 431.618C655.448 433.484 655.448 435.342 655.621 437.194C656.007 440.952 657.169 445.16 654.917 448.187C655.488 450.245 658.239 450.637 660.338 450.365C662.805 450.058 665.218 449.41 667.507 448.44C666.842 447.032 665.872 445.393 665.919 443.793C666.059 442.542 666.377 441.317 666.862 440.155C668.065 436.504 668.191 432.601 668.257 428.757C668.306 427.571 668.288 426.383 668.204 425.199C668.087 424.106 667.91 423.02 667.673 421.946L665.102 409.075C664.65 406.814 664.59 404.492 664.922 402.211C665.406 399.506 666.324 396.897 667.64 394.484C670.716 388.277 671.779 381.281 672.383 374.377C672.709 370.606 672.788 366.411 670.39 363.483C668.907 361.793 666.9 360.648 664.69 360.231C662.499 359.831 660.262 359.744 658.046 359.972C653.602 360.344 648.459 361.85 645.702 365.342Z" fill="#3F3D56"/>
<path d="M646.24 366.995C645.39 369.85 647.503 372.631 648.592 375.406C649.217 377.006 649.529 378.725 650.486 380.179C651.668 381.951 653.701 383 654.983 384.706C656.266 386.412 656.638 388.41 657.641 390.183C658.644 391.955 660.298 393.429 661.229 395.274C662.637 398.029 662.431 401.335 663.421 404.269C664.125 406.373 665.447 408.252 665.959 410.423C666.185 411.399 666.244 412.414 666.497 413.37C667.088 415.654 668.709 417.645 668.875 420.008C668.982 421.555 668.463 423.254 669.281 424.569C669.772 425.372 670.662 425.843 671.274 426.56C671.721 427.212 672.043 427.942 672.224 428.711L673.552 433.059C674.835 437.281 674.981 441.642 676.21 445.884C677.439 450.126 678.309 454.713 676.874 458.895C676.296 460.628 675.333 462.407 675.818 464.166C676.025 464.788 676.365 465.357 676.815 465.834C677.264 466.311 677.813 466.684 678.422 466.927C679.648 467.397 680.949 467.643 682.262 467.651C684.023 467.744 685.916 467.651 687.371 466.675C686.657 461.343 686.372 455.962 686.521 450.584C686.687 447.079 687.185 443.587 687.185 440.076C687.111 437.852 686.901 435.635 686.554 433.437C686.156 430.149 685.454 426.904 684.455 423.746C683.898 422.334 683.432 420.888 683.059 419.418C682.847 418.415 682.78 417.386 682.634 416.371C682.488 415.355 682.269 414.379 682.05 413.337L681.159 409.234C680.96 408.332 680.415 407.542 680.375 406.619L680.103 400.645C679.665 390.86 679.239 380.916 681.598 371.436C680.223 367.36 677.904 363.065 673.951 361.359C672.324 360.71 670.587 360.379 668.835 360.384C660.763 360.131 653.535 363.59 646.24 366.995Z" fill="#3F3D56"/>
<path d="M652.273 300.082C652.652 300.329 653 300.621 653.309 300.951C653.678 301.403 653.97 301.912 654.173 302.458C654.925 304.276 655.373 306.204 655.501 308.167C659.813 305.143 663.778 301.654 667.327 297.765C665.739 297.884 664.278 296.749 663.52 295.355C662.853 293.91 662.47 292.351 662.391 290.761C662.351 290.463 658.252 292.202 657.92 292.381C656.458 293.178 655.09 294.127 653.661 294.977C652.975 295.396 652.268 295.779 651.542 296.125C650.877 296.431 649.828 296.57 649.276 297.008C647.808 298.19 651.369 299.451 652.273 300.082Z" fill="#FFC0C6"/>
<path d="M651.608 304.576C651.442 305.857 651.661 307.165 651.469 308.44C651.196 310.278 650.14 311.878 649.343 313.564C647.164 318.297 647.35 323.721 647.25 328.925C647.15 334.621 646.679 340.296 646.2 345.972L645.33 356.361C645.177 358.153 645.024 359.959 644.666 361.731C644.476 362.478 644.385 363.245 644.393 364.015C644.506 364.941 644.78 365.839 645.204 366.67C645.599 367.776 646.232 368.782 647.057 369.618C647.478 370.027 648.017 370.293 648.598 370.378C649.18 370.463 649.773 370.361 650.293 370.089L651.077 367.732C651.105 368.675 651.487 369.573 652.147 370.248C652.806 370.923 653.695 371.326 654.638 371.377C655.315 371.353 655.985 371.237 656.631 371.031L662.776 369.365C664.105 369.065 665.397 368.62 666.629 368.038C669.287 366.624 671.067 363.968 672.024 361.127C672.981 358.286 673.173 355.266 673.286 352.278C673.532 345.381 673.346 338.418 671.885 331.7C671.273 328.879 670.436 326.104 669.931 323.263C669.344 319.43 669.055 315.557 669.068 311.679L668.855 302.08C668.912 300.889 668.711 299.7 668.264 298.595C668.028 298.05 667.627 297.593 667.116 297.289C666.606 296.985 666.012 296.85 665.42 296.902C663.58 297.247 663.148 299.617 662.152 301.204C661.301 302.565 659.873 303.441 658.498 304.271C657.594 304.815 656.465 305.373 655.535 304.868C654.604 304.364 654.611 302.737 653.654 302.319C652.385 301.635 651.721 303.594 651.608 304.576Z" fill="#F9F9F9"/>
<path d="M660.411 307.271C658.67 311.719 657.754 316.438 656.877 321.138C655.953 326.203 655.123 331.401 655.966 336.479C657.561 346.085 664.856 353.845 667.34 363.258C667.772 364.891 668.058 366.577 668.669 368.157C669.619 370.812 671.327 373.069 673.007 375.306C673.911 376.508 675.246 377.855 676.668 377.371C677.724 377.006 678.189 375.804 678.993 375.021C680.116 373.926 681.837 373.733 683.405 373.806C684.973 373.879 686.58 374.165 688.102 373.806C689.623 373.448 691.071 372.087 690.919 370.487C690.819 369.485 690.115 368.668 689.59 367.832C688.062 365.548 687.477 362.773 687.032 360.058C684.474 344.399 685.617 328.301 682.9 312.668C682.561 310.676 682.136 308.685 681.013 307.052C680.46 306.358 679.948 305.633 679.478 304.881C679.053 304.065 678.867 303.115 678.309 302.379C677.512 301.33 676.143 300.938 674.888 300.533C673.179 299.982 671.52 299.292 669.925 298.469C668.716 297.845 667.002 296.119 665.779 296.942C664.557 297.765 663.633 300.639 662.975 301.887C662.02 303.632 661.163 305.43 660.411 307.271Z" fill="#3F3D56"/>
<path d="M665.673 371.987C664.729 372.206 663.726 371.908 662.776 372.12C661.215 372.479 660.318 374.065 659.614 375.499C659.355 375.942 659.194 376.436 659.142 376.946C659.124 377.201 659.188 377.455 659.324 377.671C659.46 377.887 659.662 378.054 659.9 378.148C660.163 378.186 660.432 378.151 660.677 378.047C660.922 377.943 661.133 377.773 661.288 377.557C661.592 377.123 661.949 376.728 662.351 376.382C663.454 375.645 664.955 376.428 665.812 377.437C666.669 378.446 667.314 379.714 668.47 380.318C669.139 380.617 669.857 380.792 670.589 380.836C671.357 380.962 672.14 380.962 672.908 380.836C673.294 380.774 673.66 380.622 673.975 380.391C674.29 380.16 674.546 379.858 674.721 379.508C674.891 379.05 674.965 378.563 674.941 378.075L675.054 371.436C675.1 371.048 675.021 370.655 674.828 370.315C674.595 370.045 674.288 369.851 673.944 369.757C672.708 369.286 670.031 367.686 668.789 368.489C667.4 369.471 667.666 371.529 665.673 371.987Z" fill="#FFC0C6"/>
<path d="M652.911 299.976C659.413 299.976 664.683 294.709 664.683 288.213C664.683 281.716 659.413 276.45 652.911 276.45C646.409 276.45 641.138 281.716 641.138 288.213C641.138 294.709 646.409 299.976 652.911 299.976Z" fill="#FFC0C6"/>
<path d="M651.755 286.932C651.665 286.507 651.461 286.116 651.163 285.801C650.865 285.486 650.486 285.259 650.067 285.146C649.741 285.12 649.417 285.074 649.097 285.006C647.988 284.628 648.014 282.935 647.064 282.258C646.34 281.747 645.343 282.013 644.553 282.398C643.762 282.783 642.965 283.3 642.088 283.254C641.54 283.183 641.029 282.938 640.629 282.556C640.23 282.174 639.964 281.674 639.869 281.13C639.704 280.033 639.915 278.912 640.467 277.95C642.234 274.485 645.935 272.5 649.516 270.987C651.068 270.265 652.714 269.767 654.405 269.506C656.11 269.249 657.85 269.62 659.302 270.548C659.76 270.867 660.159 271.252 660.631 271.551C661.094 271.824 661.573 272.07 662.065 272.288C666.796 274.657 669.261 280.605 667.965 285.737C667.513 287.522 666.636 289.202 666.364 291.014C666.326 291.506 666.2 291.987 665.992 292.435C665.387 293.497 663.919 293.596 662.67 293.563C662.337 293.592 662.004 293.513 661.72 293.337C661.461 293.078 661.295 292.739 661.248 292.375C660.757 290.383 659.986 288.346 658.372 287.064C657.508 286.401 656.113 286.055 655.409 286.898C655.127 287.344 654.904 287.823 654.744 288.326C654.399 289.036 653.336 289.839 652.479 289.653C651.276 289.368 652.04 288.04 651.755 286.932Z" fill="#3F3D56"/>
<path opacity="0.1" d="M680.748 302.638C679.333 302.472 679.06 309.88 677.632 309.886C677.227 309.886 677.3 308.326 676.967 308.559C676.635 308.791 677.824 313.869 677.632 314.268C676.908 315.761 678.349 309.415 677.632 310.909C676.682 312.86 677.114 313.498 676.622 315.615C675.532 320.262 670.105 323.634 671.207 328.268C672.492 333.338 673.429 338.49 674.011 343.688C674.206 345.348 674.235 347.022 674.097 348.687C673.719 352.298 672.064 355.637 670.397 358.87C668.935 361.698 667.447 364.513 666.258 367.46C665.879 368.177 665.762 369.003 665.926 369.797C666.417 371.29 668.397 371.45 669.912 371.881C673.014 372.764 675.665 375.864 678.814 375.14C680.223 370.865 680.057 366.358 681.286 362.023C682.548 357.582 685.498 353.719 686.455 349.205C686.787 347.338 686.947 345.445 686.933 343.549L687.398 322.605C687.459 321.36 687.417 320.113 687.272 318.875C687.043 317.603 686.707 316.353 686.269 315.137L683.837 307.835C683.199 305.884 682.747 302.876 680.748 302.638Z" fill="black"/>
<path d="M681.757 302.637C680.339 302.471 678.913 302.392 677.485 302.398C677.068 302.328 676.639 302.417 676.284 302.647C675.929 302.876 675.672 303.231 675.565 303.64L673.393 308.107C672.376 310.028 671.572 312.053 670.994 314.148C669.905 318.795 671.114 323.621 672.217 328.254C673.502 333.325 674.438 338.477 675.02 343.675C675.215 345.334 675.244 347.009 675.107 348.674C674.728 352.285 673.074 355.624 671.406 358.857C669.945 361.685 668.457 364.499 667.267 367.447C666.885 368.162 666.768 368.99 666.935 369.783C667.427 371.277 669.407 371.436 670.921 371.868C674.024 372.751 676.675 375.851 679.824 375.127C681.232 370.852 681.066 366.345 682.295 362.01C683.558 357.569 686.507 353.705 687.464 349.191C687.796 347.325 687.956 345.432 687.942 343.536L688.401 322.592C688.468 321.347 688.426 320.099 688.274 318.861C688.051 317.589 687.718 316.339 687.278 315.124L684.846 307.822C684.209 305.884 683.757 302.876 681.757 302.637Z" fill="#3F3D56"/>
</g>
<defs>
<clipPath id="clip0_91_2">
<rect width="756" height="492" fill="white"/>
</clipPath>
</defs>
</svg>
