<svg width="169" height="48" viewBox="0 0 169 48" fill="none" xmlns="http://www.w3.org/2000/svg">
<path d="M9.22241 0.0374735C10.7123 0.0374735 11.8613 0.199851 12.6694 0.524606C13.4774 0.824379 14.1719 1.14913 14.7527 1.49887C15.0557 1.67374 15.2956 1.81114 15.4724 1.91106C15.6744 1.986 15.8638 2.02347 16.0406 2.02347C16.2931 2.02347 16.4699 1.88608 16.5709 1.61129C16.6971 1.33649 16.7981 0.924303 16.8739 0.374719H17.7451C17.7198 0.849361 17.682 1.42393 17.6315 2.09842C17.6062 2.74793 17.581 3.60978 17.5557 4.68397C17.5557 5.75816 17.5557 7.16959 17.5557 8.91827H16.6845C16.5835 7.61925 16.2805 6.35771 15.7754 5.13363C15.2704 3.90955 14.5507 2.91031 13.6163 2.13589C12.7072 1.33649 11.5835 0.936795 10.2451 0.936795C9.03302 0.936795 8.03555 1.27404 7.25272 1.94853C6.4699 2.62302 6.07848 3.55982 6.07848 4.75891C6.07848 5.75816 6.33101 6.62001 6.83606 7.34446C7.3411 8.04393 8.07342 8.73092 9.03302 9.40541C10.0179 10.0799 11.2047 10.8918 12.5936 11.8411C13.8057 12.6155 14.8916 13.3899 15.8512 14.1643C16.8108 14.9387 17.581 15.8131 18.1618 16.7873C18.7426 17.7616 19.033 18.9232 19.033 20.2722C19.033 21.921 18.5911 23.2824 17.7072 24.3566C16.8486 25.4308 15.7123 26.2427 14.2981 26.7923C12.884 27.3169 11.331 27.5792 9.63907 27.5792C8.07342 27.5792 6.82343 27.4293 5.88909 27.1295C4.95475 26.8298 4.17193 26.5175 3.54062 26.1927C2.98506 25.843 2.55577 25.6681 2.25274 25.6681C2.00022 25.6681 1.81083 25.8055 1.68456 26.0803C1.58355 26.3551 1.49517 26.7673 1.41941 27.3169H0.548206C0.598711 26.7174 0.623963 26.0179 0.623963 25.2185C0.649216 24.4191 0.661842 23.3824 0.661842 22.1083C0.687094 20.8093 0.699721 19.173 0.699721 17.1995H1.57093C1.67194 18.8483 1.94971 20.3971 2.40426 21.846C2.88405 23.2699 3.60375 24.4191 4.56334 25.2934C5.54818 26.1678 6.84868 26.6049 8.46484 26.6049C9.34867 26.6049 10.1315 26.455 10.8133 26.1553C11.5204 25.8305 12.0886 25.3559 12.5178 24.7313C12.9471 24.1068 13.1618 23.3324 13.1618 22.4081C13.1618 21.3589 12.9093 20.4471 12.4042 19.6727C11.9244 18.8982 11.2552 18.1738 10.3966 17.4993C9.56332 16.8248 8.5911 16.1378 7.47999 15.4384C6.29313 14.6639 5.18202 13.8895 4.14667 13.1151C3.11133 12.3407 2.278 11.4539 1.64669 10.4546C1.04063 9.45537 0.737599 8.26876 0.737599 6.8948C0.737599 5.32099 1.12901 4.03446 1.91184 3.03521C2.71991 2.01098 3.76789 1.26155 5.05576 0.786907C6.36889 0.287285 7.75777 0.0374735 9.22241 0.0374735Z" fill="white"/>
<path d="M50.0171 0.524606C49.9161 1.79865 49.8403 3.02272 49.7898 4.19684C49.7646 5.37095 49.7519 6.27027 49.7519 6.8948C49.7519 7.44439 49.7646 7.96899 49.7898 8.46861C49.8151 8.96824 49.8403 9.39292 49.8656 9.74265H48.9944C48.5903 7.64424 48.0726 5.98299 47.4413 4.75891C46.8353 3.53483 46.103 2.67298 45.2444 2.17336C44.3858 1.64876 43.3757 1.38645 42.2141 1.38645H41.3429V22.7828C41.3429 23.7821 41.4439 24.5315 41.6459 25.0311C41.8732 25.5307 42.2772 25.868 42.858 26.0429C43.4388 26.1927 44.2848 26.2802 45.3959 26.3052V27.0546C44.6131 27.0296 43.5651 27.0046 42.252 26.9796C40.9641 26.9547 39.6131 26.9422 38.199 26.9422C36.8101 26.9422 35.4969 26.9547 34.2596 26.9796C33.0222 27.0046 32.0247 27.0296 31.2672 27.0546V26.3052C32.4035 26.2802 33.2621 26.1927 33.8429 26.0429C34.4237 25.868 34.8151 25.5307 35.0172 25.0311C35.2192 24.5315 35.3202 23.7821 35.3202 22.7828V1.38645H34.4869C33.3252 1.38645 32.3151 1.64876 31.4566 2.17336C30.598 2.67298 29.8657 3.53483 29.2596 4.75891C28.6535 5.95801 28.1232 7.61925 27.6687 9.74265H26.7975C26.848 9.39292 26.8733 8.96824 26.8733 8.46861C26.8985 7.96899 26.9111 7.44439 26.9111 6.8948C26.9111 6.27027 26.8859 5.37095 26.8354 4.19684C26.8101 3.02272 26.747 1.79865 26.646 0.524606C27.8076 0.549587 29.0702 0.574568 30.4338 0.599549C31.8227 0.62453 33.2116 0.63702 34.6005 0.63702C35.9894 0.63702 37.2394 0.63702 38.3505 0.63702C39.4868 0.63702 40.7368 0.63702 42.1005 0.63702C43.4893 0.63702 44.8782 0.62453 46.2671 0.599549C47.656 0.574568 48.906 0.549587 50.0171 0.524606Z" fill="white"/>
<path d="M81.5309 0.524606V1.27404C80.7228 1.37397 80.1041 1.58631 79.6749 1.91106C79.2708 2.21083 79.0057 2.69797 78.8794 3.37246C78.7531 4.04695 78.69 4.99623 78.69 6.22031V16.1503C78.69 17.7741 78.5764 19.2605 78.3491 20.6095C78.1218 21.9584 77.7178 23.1201 77.137 24.0943C76.4804 25.1685 75.5208 26.0179 74.2582 26.6424C72.9956 27.2669 71.3921 27.5792 69.4476 27.5792C68.286 27.5792 67.0992 27.4418 65.887 27.167C64.6749 26.9172 63.5891 26.4301 62.6295 25.7056C61.8214 25.0311 61.2027 24.2692 60.7734 23.4198C60.3441 22.5705 60.0537 21.5712 59.9022 20.4221C59.7507 19.248 59.6749 17.8615 59.6749 16.2627V4.49661C59.6749 3.57231 59.5992 2.89781 59.4477 2.47314C59.3214 2.02347 59.0563 1.7237 58.6522 1.57381C58.2482 1.39895 57.6421 1.29902 56.8341 1.27404V0.524606C57.4654 0.549587 58.3113 0.574568 59.3719 0.599549C60.4578 0.62453 61.5815 0.63702 62.7431 0.63702C63.9047 0.63702 65.0158 0.62453 66.0764 0.599549C67.1623 0.574568 68.0587 0.549587 68.7658 0.524606V1.27404C67.9072 1.29902 67.2507 1.39895 66.7961 1.57381C66.3668 1.7237 66.0764 2.02347 65.9249 2.47314C65.7734 2.89781 65.6976 3.57231 65.6976 4.49661V18.6235C65.6976 19.8725 65.7734 20.9842 65.9249 21.9584C66.1017 22.9077 66.3795 23.7071 66.7582 24.3566C67.1623 24.9812 67.7052 25.4558 68.387 25.7806C69.0688 26.1053 69.9148 26.2677 70.9249 26.2677C72.6926 26.2677 74.0688 25.8555 75.0537 25.0311C76.0638 24.2067 76.7708 23.0701 77.1749 21.6212C77.6042 20.1473 77.8188 18.4611 77.8188 16.5625V6.66997C77.8188 5.29601 77.7304 4.2468 77.5536 3.52234C77.3769 2.77291 77.0233 2.23581 76.493 1.91106C75.988 1.58631 75.2052 1.37397 74.1446 1.27404V0.524606C74.6244 0.549587 75.2557 0.574568 76.0385 0.599549C76.8213 0.62453 77.5537 0.63702 78.2355 0.63702C78.8415 0.63702 79.435 0.62453 80.0158 0.599549C80.6218 0.574568 81.1269 0.549587 81.5309 0.524606Z" fill="white"/>
<path d="M100.336 0.524606C105.311 0.524606 109.01 1.64876 111.434 3.89706C113.859 6.12038 115.071 9.31797 115.071 13.4898C115.071 16.2128 114.477 18.5985 113.29 20.6469C112.103 22.6704 110.374 24.2442 108.101 25.3684C105.854 26.4925 103.152 27.0546 99.995 27.0546C99.5909 27.0546 99.0606 27.0421 98.4041 27.0171C97.7475 26.9921 97.0657 26.9796 96.3586 26.9796C95.6515 26.9547 95.0202 26.9422 94.4647 26.9422C93.3536 26.9422 92.2551 26.9547 91.1692 26.9796C90.1086 26.9796 89.2627 27.0046 88.6314 27.0546V26.3052C89.4394 26.2552 90.0455 26.1553 90.4495 26.0054C90.8536 25.8555 91.1187 25.5557 91.245 25.1061C91.3965 24.6564 91.4723 23.9819 91.4723 23.0826V4.49661C91.4723 3.57231 91.3965 2.89781 91.245 2.47314C91.1187 2.02347 90.841 1.7237 90.4117 1.57381C90.0076 1.39895 89.4142 1.29902 88.6314 1.27404V0.524606C89.2627 0.549587 90.1086 0.587058 91.1692 0.63702C92.2551 0.662001 93.3283 0.662001 94.3889 0.63702C95.298 0.612039 96.3207 0.587058 97.4571 0.562078C98.6187 0.537097 99.5783 0.524606 100.336 0.524606ZM100.298 1.1991C99.1364 1.1991 98.3788 1.41144 98.0253 1.83612C97.6717 2.2608 97.495 3.12265 97.495 4.42167V23.1575C97.495 24.4566 97.6717 25.3184 98.0253 25.7431C98.404 26.1678 99.1742 26.3801 100.336 26.3801C102.457 26.3801 104.124 25.893 105.336 24.9187C106.573 23.9195 107.457 22.4706 107.987 20.572C108.518 18.6734 108.783 16.3627 108.783 13.6397C108.783 10.8418 108.492 8.53106 107.912 6.70744C107.356 4.85884 106.46 3.48487 105.222 2.58555C103.985 1.66125 102.343 1.1991 100.298 1.1991Z" fill="white"/>
<path d="M134.524 0.524606V1.27404C133.716 1.29902 133.098 1.39895 132.668 1.57381C132.264 1.7237 131.999 2.02347 131.873 2.47314C131.746 2.89781 131.683 3.57231 131.683 4.49661V23.0826C131.683 23.9819 131.746 24.6564 131.873 25.1061C132.024 25.5557 132.302 25.8555 132.706 26.0054C133.11 26.1553 133.716 26.2552 134.524 26.3052V27.0546C133.842 27.0046 132.984 26.9796 131.949 26.9796C130.913 26.9547 129.865 26.9422 128.805 26.9422C127.567 26.9422 126.418 26.9547 125.358 26.9796C124.322 26.9796 123.476 27.0046 122.82 27.0546V26.3052C123.628 26.2552 124.234 26.1553 124.638 26.0054C125.042 25.8555 125.307 25.5557 125.433 25.1061C125.585 24.6564 125.661 23.9819 125.661 23.0826V4.49661C125.661 3.57231 125.585 2.89781 125.433 2.47314C125.307 2.02347 125.029 1.7237 124.6 1.57381C124.196 1.39895 123.603 1.29902 122.82 1.27404V0.524606C123.476 0.549587 124.322 0.574568 125.358 0.599549C126.418 0.62453 127.567 0.63702 128.805 0.63702C129.865 0.63702 130.913 0.62453 131.949 0.599549C132.984 0.574568 133.842 0.549587 134.524 0.524606Z" fill="white"/>
<path d="M155.629 0C158.306 0 160.641 0.537095 162.636 1.61129C164.657 2.68548 166.222 4.23431 167.333 6.25778C168.444 8.25627 169 10.6919 169 13.5648C169 16.3627 168.432 18.8108 167.295 20.9092C166.159 23.0076 164.568 24.6439 162.523 25.818C160.503 26.9921 158.192 27.5792 155.591 27.5792C152.914 27.5792 150.566 27.0421 148.546 25.9679C146.551 24.8937 144.998 23.3449 143.886 21.3214C142.775 19.2979 142.22 16.8623 142.22 14.0144C142.22 11.2165 142.788 8.76839 143.924 6.66997C145.086 4.57155 146.664 2.93529 148.659 1.76117C150.679 0.587058 153.003 0 155.629 0ZM155.477 0.674491C154.063 0.674491 152.826 1.23657 151.765 2.36072C150.73 3.48487 149.922 5.0337 149.341 7.00722C148.785 8.98073 148.508 11.2665 148.508 13.8645C148.508 16.5125 148.823 18.8233 149.455 20.7968C150.111 22.7453 150.982 24.2567 152.068 25.3309C153.179 26.3801 154.404 26.9047 155.742 26.9047C157.157 26.9047 158.381 26.3426 159.417 25.2185C160.477 24.0943 161.285 22.5455 161.841 20.572C162.422 18.5735 162.712 16.2877 162.712 13.7147C162.712 11.0417 162.384 8.73092 161.727 6.78238C161.096 4.83385 160.225 3.33499 159.114 2.28578C158.028 1.21159 156.816 0.674491 155.477 0.674491Z" fill="white"/>
<path d="M4.01644 33.7737C4.7087 33.7737 5.2377 33.8512 5.60342 34.0062C5.96915 34.1613 6.28916 34.3293 6.56345 34.5102C6.72019 34.6006 6.84427 34.6717 6.93571 34.7234C7.0402 34.7621 7.13816 34.7815 7.22959 34.7815C7.36021 34.7815 7.45164 34.7105 7.50388 34.5683C7.56919 34.4262 7.62144 34.213 7.66062 33.9287H8.11125C8.09819 34.1613 8.07859 34.4391 8.05247 34.7621C8.03941 35.0723 8.02635 35.4857 8.01329 36.0026C8.01329 36.5194 8.01329 37.1978 8.01329 38.0377H7.56266C7.52348 37.4045 7.3798 36.7908 7.13163 36.1964C6.89652 35.602 6.54386 35.1175 6.07364 34.7428C5.61648 34.368 5.02871 34.1807 4.31032 34.1807C3.64418 34.1807 3.08907 34.381 2.64497 34.7815C2.21394 35.1692 1.99842 35.686 1.99842 36.3321C1.99842 36.9006 2.1421 37.3787 2.42946 37.7663C2.71681 38.1411 3.10866 38.4964 3.605 38.8323C4.1144 39.1554 4.68911 39.5172 5.32913 39.9177C5.98221 40.3312 6.56998 40.7447 7.09244 41.1582C7.61491 41.5587 8.02635 42.0045 8.32676 42.4955C8.62718 42.9865 8.77739 43.5809 8.77739 44.2787C8.77739 45.1185 8.57493 45.8163 8.17002 46.3719C7.77818 46.9146 7.24918 47.3216 6.58304 47.593C5.9169 47.8643 5.18545 48 4.38869 48C3.65725 48 3.076 47.9225 2.64497 47.7674C2.21394 47.6124 1.84822 47.4508 1.5478 47.2829C1.26044 47.102 1.0384 47.0115 0.881657 47.0115C0.751042 47.0115 0.65308 47.0826 0.587772 47.2247C0.535525 47.3669 0.48981 47.5801 0.450625 47.8643H0C0.0261232 47.5801 0.0391848 47.2506 0.0391848 46.8758C0.0522463 46.4882 0.0587771 45.9843 0.0587771 45.3641C0.0718387 44.7438 0.0783696 43.9621 0.0783696 43.0188H0.528994C0.581241 43.82 0.724918 44.5694 0.960027 45.2671C1.2082 45.9649 1.58045 46.527 2.07679 46.9534C2.5862 47.3669 3.25887 47.5736 4.09481 47.5736C4.5389 47.5736 4.95034 47.4896 5.32913 47.3216C5.70792 47.1537 6.01486 46.8888 6.24997 46.527C6.48508 46.1652 6.60263 45.7 6.60263 45.1315C6.60263 44.6017 6.47202 44.1365 6.21079 43.736C5.96262 43.3354 5.60995 42.9672 5.1528 42.6312C4.7087 42.2823 4.18624 41.927 3.58541 41.5652C2.97151 41.1776 2.3968 40.7899 1.86128 40.4023C1.32575 40.0146 0.894719 39.5624 0.568179 39.0455C0.254701 38.5287 0.097962 37.9149 0.097962 37.2043C0.097962 36.4161 0.280824 35.77 0.646549 35.2661C1.02533 34.7621 1.50861 34.3874 2.09639 34.1419C2.69722 33.8964 3.33724 33.7737 4.01644 33.7737Z" fill="white"/>
<path d="M10.4562 34.0062C10.7566 34.0192 11.1419 34.0321 11.6122 34.045C12.0954 34.0579 12.5722 34.0644 13.0424 34.0644C13.6694 34.0644 14.2637 34.0579 14.8253 34.045C15.4 34.0321 15.8049 34.0256 16.04 34.0256C17.6989 34.0256 18.9397 34.381 19.7626 35.0916C20.5855 35.8023 20.9969 36.7197 20.9969 37.8439C20.9969 38.309 20.912 38.8 20.7422 39.3169C20.5855 39.8208 20.3047 40.2924 19.8997 40.7318C19.4948 41.1582 18.9462 41.507 18.254 41.7784C17.5617 42.0497 16.6801 42.1854 15.609 42.1854H13.689V41.7978H15.4131C16.2882 41.7978 16.9544 41.6233 17.4115 41.2745C17.8817 40.9256 18.1952 40.4669 18.3519 39.8983C18.5217 39.3298 18.6066 38.7161 18.6066 38.0571C18.6066 36.8295 18.3846 35.9121 17.9405 35.3048C17.4964 34.6975 16.7258 34.3939 15.6286 34.3939C15.067 34.3939 14.6947 34.5037 14.5118 34.7234C14.342 34.943 14.2571 35.3888 14.2571 36.0607V45.6354C14.2571 46.1135 14.3094 46.4753 14.4139 46.7208C14.5184 46.9534 14.7143 47.1084 15.0016 47.186C15.289 47.2635 15.7135 47.3087 16.2752 47.3216V47.7287C15.9225 47.7028 15.4653 47.6899 14.9037 47.6899C14.342 47.677 13.7608 47.6705 13.16 47.6705C12.6375 47.6705 12.1346 47.677 11.6513 47.6899C11.1811 47.6899 10.7828 47.7028 10.4562 47.7287V47.341C10.9003 47.3152 11.2334 47.2635 11.4554 47.186C11.6775 47.1084 11.8211 46.9534 11.8865 46.7208C11.9648 46.4882 12.004 46.1393 12.004 45.6742V36.0607C12.004 35.5826 11.9648 35.2338 11.8865 35.0141C11.8211 34.7815 11.6709 34.6265 11.4358 34.5489C11.2138 34.4585 10.8872 34.4068 10.4562 34.3939V34.0062Z" fill="white"/>
<path d="M27.2394 33.9287L32.0199 46.1006C32.2028 46.5787 32.4118 46.9017 32.6469 47.0697C32.8951 47.2376 33.1236 47.3281 33.3326 47.341V47.7287C33.0191 47.7028 32.6469 47.6899 32.2159 47.6899C31.7979 47.677 31.3734 47.6705 30.9423 47.6705C30.3938 47.6705 29.8844 47.677 29.4141 47.6899C28.9439 47.6899 28.5651 47.7028 28.2778 47.7287V47.341C28.9439 47.3152 29.3619 47.2053 29.5317 47.0115C29.7146 46.8048 29.6754 46.3719 29.4141 45.7129L25.8875 36.2933L26.201 35.9444L22.9487 44.3562C22.7135 44.9377 22.5699 45.4222 22.5176 45.8098C22.4784 46.1975 22.5111 46.5011 22.6156 46.7208C22.7331 46.9405 22.9291 47.0955 23.2034 47.186C23.4776 47.2764 23.8172 47.3281 24.2222 47.341V47.7287C23.8303 47.7028 23.4319 47.6899 23.027 47.6899C22.6352 47.677 22.2629 47.6705 21.9103 47.6705C21.5968 47.6705 21.316 47.677 21.0678 47.6899C20.8327 47.6899 20.6172 47.7028 20.4212 47.7287V47.341C20.6955 47.2764 20.9698 47.1149 21.2441 46.8565C21.5184 46.598 21.7796 46.1587 22.0278 45.5385L26.5732 33.9287C26.6777 33.9287 26.7888 33.9287 26.9063 33.9287C27.0239 33.9287 27.1349 33.9287 27.2394 33.9287ZM29.2966 42.1467V42.5343H23.4581L23.654 42.1467H29.2966Z" fill="white"/>
<path d="M33.5691 34.0062C33.8695 34.0192 34.2548 34.0321 34.7251 34.045C35.2083 34.0579 35.6851 34.0644 36.1553 34.0644C36.7823 34.0644 37.3766 34.0579 37.9382 34.045C38.5129 34.0321 38.9178 34.0256 39.1529 34.0256C40.2632 34.0256 41.184 34.1678 41.9155 34.452C42.66 34.7363 43.2086 35.1369 43.5612 35.6537C43.9269 36.1576 44.1098 36.7391 44.1098 37.3981C44.1098 37.7986 44.0249 38.225 43.8551 38.6773C43.6984 39.1166 43.4175 39.5301 43.0126 39.9177C42.6077 40.2924 42.0591 40.6026 41.3669 40.8481C40.6746 41.0936 39.793 41.2163 38.7219 41.2163H36.841V40.8287H38.526C39.4011 40.8287 40.0672 40.6866 40.5244 40.4023C40.9946 40.1051 41.3081 39.7175 41.4648 39.2394C41.6346 38.7484 41.7195 38.2057 41.7195 37.6113C41.7195 36.5905 41.4975 35.8023 41.0534 35.2467C40.6093 34.6782 39.8387 34.3939 38.7415 34.3939C38.1798 34.3939 37.8076 34.5037 37.6247 34.7234C37.4549 34.943 37.37 35.3888 37.37 36.0607V45.6742C37.37 46.1393 37.4092 46.4882 37.4876 46.7208C37.5659 46.9534 37.7162 47.1084 37.9382 47.186C38.1603 47.2635 38.4868 47.3152 38.9178 47.341V47.7287C38.6043 47.7028 38.206 47.6899 37.7227 47.6899C37.2525 47.677 36.7692 47.6705 36.2729 47.6705C35.7243 47.6705 35.2083 47.677 34.7251 47.6899C34.2548 47.6899 33.8695 47.7028 33.5691 47.7287V47.341C34.0132 47.3152 34.3463 47.2635 34.5683 47.186C34.7904 47.1084 34.934 46.9534 34.9993 46.7208C35.0777 46.4882 35.1169 46.1393 35.1169 45.6742V36.0607C35.1169 35.5826 35.0777 35.2338 34.9993 35.0141C34.934 34.7815 34.7838 34.6265 34.5487 34.5489C34.3267 34.4585 34.0001 34.4068 33.5691 34.3939V34.0062ZM36.8802 40.8868C37.5464 40.9127 38.0819 40.945 38.4868 40.9837C38.8917 41.0096 39.2313 41.0354 39.5056 41.0613C39.7799 41.0871 40.0346 41.1194 40.2697 41.1582C41.2493 41.2874 41.9612 41.5458 42.4053 41.9335C42.8624 42.3211 43.1759 42.9155 43.3457 43.7166L43.8355 45.6936C43.9531 46.2492 44.0772 46.6433 44.2078 46.8758C44.3514 47.1084 44.5604 47.2247 44.8347 47.2247C45.0437 47.2118 45.2135 47.1537 45.3441 47.0503C45.4878 46.934 45.638 46.7789 45.7948 46.5851L46.069 46.7983C45.7686 47.1989 45.4552 47.5025 45.1286 47.7093C44.8021 47.9031 44.3645 48 43.8159 48C43.2543 48 42.771 47.8579 42.3661 47.5736C41.9742 47.2764 41.6934 46.7208 41.5236 45.9067L41.1318 43.9686C41.0142 43.4129 40.8836 42.9349 40.7399 42.5343C40.5962 42.1208 40.3938 41.7978 40.1326 41.5652C39.8844 41.3326 39.5187 41.2163 39.0354 41.2163H36.9194L36.8802 40.8868Z" fill="white"/>
<path d="M58.111 34.0062V34.3939C57.8498 34.4585 57.569 34.6329 57.2685 34.9172C56.9812 35.2015 56.7134 35.6602 56.4653 36.2933L52.0178 47.8062C51.9655 47.8062 51.9133 47.8062 51.861 47.8062C51.8088 47.8062 51.75 47.8062 51.6847 47.8062C51.6325 47.8062 51.5802 47.8062 51.528 47.8062C51.4757 47.8062 51.4235 47.8062 51.3712 47.8062L46.5123 35.6343C46.3164 35.1562 46.1009 34.8332 45.8658 34.6652C45.6307 34.4973 45.4086 34.4068 45.1996 34.3939V34.0062C45.5 34.0192 45.8658 34.0321 46.2968 34.045C46.7409 34.0579 47.1719 34.0644 47.5899 34.0644C48.1254 34.0644 48.6283 34.0579 49.0985 34.045C49.5818 34.0321 49.9671 34.0192 50.2545 34.0062V34.3939C49.8234 34.4068 49.4904 34.4585 49.2553 34.5489C49.0201 34.6394 48.8895 34.8009 48.8634 35.0335C48.8503 35.2531 48.9287 35.5826 49.0985 36.022L52.7231 45.3834L52.3704 45.7711L55.5444 37.5144C55.8448 36.7262 55.995 36.1124 55.995 35.6731C55.995 35.2208 55.8514 34.8978 55.564 34.704C55.2767 34.5102 54.8587 34.4068 54.3101 34.3939V34.0062C54.715 34.0192 55.1134 34.0321 55.5052 34.045C55.8971 34.0579 56.2693 34.0644 56.622 34.0644C56.9485 34.0644 57.2294 34.0579 57.4645 34.045C57.6996 34.0321 57.9151 34.0192 58.111 34.0062Z" fill="white"/>
<path d="M64.0588 34.0062V34.3939C63.6278 34.4068 63.3013 34.4585 63.0792 34.5489C62.8572 34.6265 62.707 34.7815 62.6286 35.0141C62.5502 35.2338 62.511 35.5826 62.511 36.0607V45.6742C62.511 46.1393 62.5502 46.4882 62.6286 46.7208C62.707 46.9534 62.8572 47.1084 63.0792 47.186C63.3013 47.2635 63.6278 47.3152 64.0588 47.341V47.7287C63.7454 47.7028 63.347 47.6899 62.8637 47.6899C62.3935 47.677 61.9102 47.6705 61.4139 47.6705C60.8653 47.6705 60.3493 47.677 59.8661 47.6899C59.3958 47.6899 59.0105 47.7028 58.7101 47.7287V47.341C59.1542 47.3152 59.4873 47.2635 59.7093 47.186C59.9314 47.1084 60.075 46.9534 60.1404 46.7208C60.2187 46.4882 60.2579 46.1393 60.2579 45.6742V36.0607C60.2579 35.5826 60.2187 35.2338 60.1404 35.0141C60.075 34.7815 59.9248 34.6265 59.6897 34.5489C59.4677 34.4585 59.1411 34.4068 58.7101 34.3939V34.0062C59.0105 34.0192 59.3958 34.0321 59.8661 34.045C60.3493 34.0579 60.8653 34.0644 61.4139 34.0644C61.9102 34.0644 62.3935 34.0579 62.8637 34.045C63.347 34.0321 63.7454 34.0192 64.0588 34.0062Z" fill="white"/>
<path d="M75.5906 34.0062C75.5384 34.4973 75.4992 34.9753 75.4731 35.4405C75.46 35.8928 75.4535 36.2416 75.4535 36.4871C75.4535 36.7326 75.46 36.9652 75.4731 37.1849C75.4861 37.4045 75.4992 37.5854 75.5123 37.7276H75.0616C74.9702 36.9006 74.8265 36.2481 74.6306 35.77C74.4478 35.2919 74.1669 34.956 73.7881 34.7621C73.4224 34.5554 72.9065 34.452 72.2403 34.452H70.8885C70.4705 34.452 70.1505 34.4908 69.9284 34.5683C69.7195 34.6329 69.5758 34.7751 69.4974 34.9947C69.419 35.2015 69.3799 35.531 69.3799 35.9832V45.7517C69.3799 46.191 69.419 46.5205 69.4974 46.7402C69.5758 46.9598 69.7195 47.1084 69.9284 47.186C70.1505 47.2506 70.4705 47.2829 70.8885 47.2829H72.162C72.9065 47.2829 73.4943 47.1666 73.9253 46.934C74.3694 46.7014 74.7024 46.3202 74.9245 45.7905C75.1596 45.2607 75.3359 44.5371 75.4535 43.6197H75.9041C75.8649 43.9944 75.8453 44.4854 75.8453 45.0927C75.8453 45.3511 75.8519 45.7259 75.8649 46.2169C75.8911 46.7079 75.9302 47.2118 75.9825 47.7287C75.3164 47.7028 74.5653 47.6899 73.7294 47.6899C72.8934 47.677 72.1489 47.6705 71.4958 47.6705C71.1954 47.6705 70.8101 47.6705 70.3399 47.6705C69.8697 47.6705 69.3603 47.677 68.8117 47.6899C68.2761 47.6899 67.7276 47.6963 67.1659 47.7093C66.6173 47.7093 66.0883 47.7157 65.5789 47.7287V47.341C66.023 47.3152 66.3561 47.2635 66.5781 47.186C66.8002 47.1084 66.9439 46.9534 67.0092 46.7208C67.0875 46.4882 67.1267 46.1393 67.1267 45.6742V36.0607C67.1267 35.5826 67.0875 35.2338 67.0092 35.0141C66.9439 34.7815 66.7937 34.6265 66.5585 34.5489C66.3365 34.4585 66.01 34.4068 65.5789 34.3939V34.0062C66.0883 34.0192 66.6173 34.0321 67.1659 34.045C67.7276 34.045 68.2761 34.0515 68.8117 34.0644C69.3603 34.0644 69.8697 34.0644 70.3399 34.0644C70.8101 34.0644 71.1954 34.0644 71.4958 34.0644C72.0967 34.0644 72.7759 34.0644 73.5334 34.0644C74.3041 34.0515 74.9898 34.0321 75.5906 34.0062ZM72.3383 40.6349C72.3383 40.6349 72.3383 40.6995 72.3383 40.8287C72.3383 40.9579 72.3383 41.0225 72.3383 41.0225H68.7921C68.7921 41.0225 68.7921 40.9579 68.7921 40.8287C68.7921 40.6995 68.7921 40.6349 68.7921 40.6349H72.3383ZM72.9065 38.0765C72.8542 38.813 72.8281 39.375 72.8281 39.7627C72.8412 40.1503 72.8477 40.5057 72.8477 40.8287C72.8477 41.1517 72.8542 41.507 72.8673 41.8947C72.8804 42.2823 72.913 42.8444 72.9653 43.5809H72.5146C72.4493 43.1545 72.3644 42.7475 72.2599 42.3599C72.1554 41.9593 71.966 41.6363 71.6918 41.3908C71.4305 41.1453 71.0191 41.0225 70.4574 41.0225V40.6349C70.8754 40.6349 71.202 40.5509 71.4371 40.3829C71.6852 40.2149 71.8746 39.9953 72.0052 39.7239C72.1358 39.4526 72.2273 39.1748 72.2795 38.8905C72.3448 38.5933 72.4036 38.322 72.4559 38.0765H72.9065Z" fill="white"/>
<path d="M77.6711 34.0062C77.9715 34.0192 78.3568 34.0321 78.8271 34.045C79.3103 34.0579 79.7871 34.0644 80.2573 34.0644C80.8843 34.0644 81.4786 34.0579 82.0402 34.045C82.6149 34.0321 83.0198 34.0256 83.2549 34.0256C84.3652 34.0256 85.286 34.1678 86.0175 34.452C86.762 34.7363 87.3106 35.1369 87.6632 35.6537C88.0289 36.1576 88.2118 36.7391 88.2118 37.3981C88.2118 37.7986 88.1269 38.225 87.9571 38.6773C87.8004 39.1166 87.5195 39.5301 87.1146 39.9177C86.7097 40.2924 86.1611 40.6026 85.4689 40.8481C84.7766 41.0936 83.895 41.2163 82.8239 41.2163H80.943V40.8287H82.628C83.5031 40.8287 84.1693 40.6866 84.6264 40.4023C85.0966 40.1051 85.4101 39.7175 85.5668 39.2394C85.7366 38.7484 85.8215 38.2057 85.8215 37.6113C85.8215 36.5905 85.5995 35.8023 85.1554 35.2467C84.7113 34.6782 83.9407 34.3939 82.8435 34.3939C82.2819 34.3939 81.9096 34.5037 81.7267 34.7234C81.5569 34.943 81.472 35.3888 81.472 36.0607V45.6742C81.472 46.1393 81.5112 46.4882 81.5896 46.7208C81.668 46.9534 81.8182 47.1084 82.0402 47.186C82.2622 47.2635 82.5888 47.3152 83.0198 47.341V47.7287C82.7063 47.7028 82.308 47.6899 81.8247 47.6899C81.3545 47.677 80.8712 47.6705 80.3749 47.6705C79.8263 47.6705 79.3103 47.677 78.8271 47.6899C78.3568 47.6899 77.9715 47.7028 77.6711 47.7287V47.341C78.1152 47.3152 78.4483 47.2635 78.6703 47.186C78.8924 47.1084 79.036 46.9534 79.1013 46.7208C79.1797 46.4882 79.2189 46.1393 79.2189 45.6742V36.0607C79.2189 35.5826 79.1797 35.2338 79.1013 35.0141C79.036 34.7815 78.8858 34.6265 78.6507 34.5489C78.4287 34.4585 78.1021 34.4068 77.6711 34.3939V34.0062ZM80.9822 40.8868C81.6484 40.9127 82.1839 40.945 82.5888 40.9837C82.9937 41.0096 83.3333 41.0354 83.6076 41.0613C83.8819 41.0871 84.1366 41.1194 84.3717 41.1582C85.3513 41.2874 86.0632 41.5458 86.5073 41.9335C86.9644 42.3211 87.2779 42.9155 87.4477 43.7166L87.9375 45.6936C88.0551 46.2492 88.1792 46.6433 88.3098 46.8758C88.4534 47.1084 88.6624 47.2247 88.9367 47.2247C89.1457 47.2118 89.3155 47.1537 89.4461 47.0503C89.5898 46.934 89.74 46.7789 89.8968 46.5851L90.171 46.7983C89.8706 47.1989 89.5572 47.5025 89.2306 47.7093C88.9041 47.9031 88.4665 48 87.9179 48C87.3563 48 86.873 47.8579 86.4681 47.5736C86.0762 47.2764 85.7954 46.7208 85.6256 45.9067L85.2338 43.9686C85.1162 43.4129 84.9856 42.9349 84.8419 42.5343C84.6982 42.1208 84.4958 41.7978 84.2346 41.5652C83.9864 41.3326 83.6207 41.2163 83.1374 41.2163H81.0214L80.9822 40.8868Z" fill="white"/>
<path d="M96.0113 34.0062V34.3939C95.5802 34.4068 95.2537 34.4585 95.0316 34.5489C94.8096 34.6265 94.6594 34.7815 94.581 35.0141C94.5026 35.2338 94.4635 35.5826 94.4635 36.0607V45.6742C94.4635 46.1393 94.5026 46.4882 94.581 46.7208C94.6594 46.9534 94.8096 47.1084 95.0316 47.186C95.2537 47.2635 95.5802 47.3152 96.0113 47.341V47.7287C95.6978 47.7028 95.2994 47.6899 94.8161 47.6899C94.3459 47.677 93.8626 47.6705 93.3663 47.6705C92.8177 47.6705 92.3018 47.677 91.8185 47.6899C91.3483 47.6899 90.963 47.7028 90.6625 47.7287V47.341C91.1066 47.3152 91.4397 47.2635 91.6617 47.186C91.8838 47.1084 92.0275 46.9534 92.0928 46.7208C92.1712 46.4882 92.2103 46.1393 92.2103 45.6742V36.0607C92.2103 35.5826 92.1712 35.2338 92.0928 35.0141C92.0275 34.7815 91.8773 34.6265 91.6422 34.5489C91.4201 34.4585 91.0936 34.4068 90.6625 34.3939V34.0062C90.963 34.0192 91.3483 34.0321 91.8185 34.045C92.3018 34.0579 92.8177 34.0644 93.3663 34.0644C93.8626 34.0644 94.3459 34.0579 94.8161 34.045C95.2994 34.0321 95.6978 34.0192 96.0113 34.0062Z" fill="white"/>
<path d="M102.315 34.0062C102.615 34.0192 103 34.0321 103.471 34.045C103.954 34.0579 104.431 34.0644 104.901 34.0644C105.528 34.0644 106.122 34.0579 106.684 34.045C107.258 34.0321 107.663 34.0256 107.898 34.0256C109.009 34.0256 109.93 34.1678 110.661 34.452C111.406 34.7363 111.954 35.1369 112.307 35.6537C112.672 36.1576 112.855 36.7391 112.855 37.3981C112.855 37.7986 112.77 38.225 112.601 38.6773C112.444 39.1166 112.163 39.5301 111.758 39.9177C111.353 40.2924 110.805 40.6026 110.112 40.8481C109.42 41.0936 108.538 41.2163 107.467 41.2163H105.587V40.8287H107.272C108.147 40.8287 108.813 40.6866 109.27 40.4023C109.74 40.1051 110.054 39.7175 110.21 39.2394C110.38 38.7484 110.465 38.2057 110.465 37.6113C110.465 36.5905 110.243 35.8023 109.799 35.2467C109.355 34.6782 108.584 34.3939 107.487 34.3939C106.925 34.3939 106.553 34.5037 106.37 34.7234C106.2 34.943 106.116 35.3888 106.116 36.0607V45.6742C106.116 46.1393 106.155 46.4882 106.233 46.7208C106.311 46.9534 106.462 47.1084 106.684 47.186C106.906 47.2635 107.232 47.3152 107.663 47.341V47.7287C107.35 47.7028 106.952 47.6899 106.468 47.6899C105.998 47.677 105.515 47.6705 105.018 47.6705C104.47 47.6705 103.954 47.677 103.471 47.6899C103 47.6899 102.615 47.7028 102.315 47.7287V47.341C102.759 47.3152 103.092 47.2635 103.314 47.186C103.536 47.1084 103.68 46.9534 103.745 46.7208C103.823 46.4882 103.862 46.1393 103.862 45.6742V36.0607C103.862 35.5826 103.823 35.2338 103.745 35.0141C103.68 34.7815 103.529 34.6265 103.294 34.5489C103.072 34.4585 102.746 34.4068 102.315 34.3939V34.0062ZM105.626 40.8868C106.292 40.9127 106.827 40.945 107.232 40.9837C107.637 41.0096 107.977 41.0354 108.251 41.0613C108.525 41.0871 108.78 41.1194 109.015 41.1582C109.995 41.2874 110.707 41.5458 111.151 41.9335C111.608 42.3211 111.921 42.9155 112.091 43.7166L112.581 45.6936C112.699 46.2492 112.823 46.6433 112.953 46.8758C113.097 47.1084 113.306 47.2247 113.58 47.2247C113.789 47.2118 113.959 47.1537 114.09 47.0503C114.233 46.934 114.384 46.7789 114.54 46.5851L114.815 46.7983C114.514 47.1989 114.201 47.5025 113.874 47.7093C113.548 47.9031 113.11 48 112.561 48C112 48 111.517 47.8579 111.112 47.5736C110.72 47.2764 110.439 46.7208 110.269 45.9067L109.877 43.9686C109.76 43.4129 109.629 42.9349 109.485 42.5343C109.342 42.1208 109.139 41.7978 108.878 41.5652C108.63 41.3326 108.264 41.2163 107.781 41.2163H105.665L105.626 40.8868Z" fill="white"/>
<path d="M121.164 33.9287L125.945 46.1006C126.128 46.5787 126.337 46.9017 126.572 47.0697C126.82 47.2376 127.048 47.3281 127.257 47.341V47.7287C126.944 47.7028 126.572 47.6899 126.141 47.6899C125.723 47.677 125.298 47.6705 124.867 47.6705C124.319 47.6705 123.809 47.677 123.339 47.6899C122.869 47.6899 122.49 47.7028 122.203 47.7287V47.341C122.869 47.3152 123.287 47.2053 123.457 47.0115C123.639 46.8048 123.6 46.3719 123.339 45.7129L119.812 36.2933L120.126 35.9444L116.873 44.3562C116.638 44.9377 116.495 45.4222 116.442 45.8098C116.403 46.1975 116.436 46.5011 116.54 46.7208C116.658 46.9405 116.854 47.0955 117.128 47.186C117.402 47.2764 117.742 47.3281 118.147 47.341V47.7287C117.755 47.7028 117.357 47.6899 116.952 47.6899C116.56 47.677 116.188 47.6705 115.835 47.6705C115.522 47.6705 115.241 47.677 114.993 47.6899C114.757 47.6899 114.542 47.7028 114.346 47.7287V47.341C114.62 47.2764 114.895 47.1149 115.169 46.8565C115.443 46.598 115.704 46.1587 115.953 45.5385L120.498 33.9287C120.603 33.9287 120.714 33.9287 120.831 33.9287C120.949 33.9287 121.06 33.9287 121.164 33.9287ZM123.221 42.1467V42.5343H117.383L117.579 42.1467H123.221Z" fill="white"/>
<path d="M143.403 34.0062V34.3939C142.959 34.4068 142.626 34.4585 142.404 34.5489C142.182 34.6265 142.031 34.7815 141.953 35.0141C141.888 35.2338 141.855 35.5826 141.855 36.0607V45.6742C141.855 46.1393 141.888 46.4882 141.953 46.7208C142.031 46.9534 142.182 47.1084 142.404 47.186C142.626 47.2635 142.959 47.3152 143.403 47.341V47.7287C143.076 47.7028 142.671 47.6899 142.188 47.6899C141.705 47.677 141.215 47.6705 140.719 47.6705C140.17 47.6705 139.654 47.677 139.171 47.6899C138.688 47.6899 138.302 47.7028 138.015 47.7287V47.341C138.459 47.3152 138.792 47.2635 139.014 47.186C139.249 47.1084 139.406 46.9534 139.484 46.7208C139.563 46.4882 139.602 46.1393 139.602 45.6742V35.0723L139.7 35.111L134.88 47.8062H134.567L129.512 35.2467V45.1702C129.512 45.7129 129.551 46.1393 129.63 46.4494C129.708 46.7466 129.878 46.9598 130.139 47.089C130.4 47.2183 130.799 47.3022 131.334 47.341V47.7287C131.086 47.7028 130.766 47.6899 130.374 47.6899C129.995 47.677 129.636 47.6705 129.296 47.6705C128.97 47.6705 128.643 47.677 128.317 47.6899C127.99 47.6899 127.723 47.7028 127.514 47.7287V47.341C127.945 47.3022 128.271 47.2247 128.493 47.1084C128.715 46.9792 128.865 46.766 128.944 46.4688C129.022 46.1716 129.061 45.7646 129.061 45.2478V36.0607C129.061 35.5826 129.022 35.2338 128.944 35.0141C128.865 34.7815 128.715 34.6265 128.493 34.5489C128.271 34.4585 127.945 34.4068 127.514 34.3939V34.0062C127.723 34.0192 127.99 34.0321 128.317 34.045C128.643 34.0579 128.97 34.0644 129.296 34.0644C129.675 34.0644 130.054 34.0579 130.433 34.045C130.825 34.0321 131.158 34.0192 131.432 34.0062L135.762 45.0152L135.39 45.2671L139.641 34.0644C139.811 34.0644 139.987 34.0644 140.17 34.0644C140.353 34.0644 140.536 34.0644 140.719 34.0644C141.215 34.0644 141.705 34.0579 142.188 34.045C142.671 34.0321 143.076 34.0192 143.403 34.0062Z" fill="white"/>
<path d="M144.924 34.0062C145.225 34.0192 145.61 34.0321 146.08 34.045C146.563 34.0579 147.04 34.0644 147.51 34.0644C148.137 34.0644 148.732 34.0579 149.293 34.045C149.868 34.0321 150.273 34.0256 150.508 34.0256C152.167 34.0256 153.408 34.381 154.231 35.0916C155.054 35.8023 155.465 36.7197 155.465 37.8439C155.465 38.309 155.38 38.8 155.21 39.3169C155.054 39.8208 154.773 40.2924 154.368 40.7318C153.963 41.1582 153.414 41.507 152.722 41.7784C152.03 42.0497 151.148 42.1854 150.077 42.1854H148.157V41.7978H149.881C150.756 41.7978 151.422 41.6233 151.88 41.2745C152.35 40.9256 152.663 40.4669 152.82 39.8983C152.99 39.3298 153.075 38.7161 153.075 38.0571C153.075 36.8295 152.853 35.9121 152.409 35.3048C151.964 34.6975 151.194 34.3939 150.097 34.3939C149.535 34.3939 149.163 34.5037 148.98 34.7234C148.81 34.943 148.725 35.3888 148.725 36.0607V45.6354C148.725 46.1135 148.777 46.4753 148.882 46.7208C148.986 46.9534 149.182 47.1084 149.47 47.186C149.757 47.2635 150.182 47.3087 150.743 47.3216V47.7287C150.391 47.7028 149.933 47.6899 149.372 47.6899C148.81 47.677 148.229 47.6705 147.628 47.6705C147.106 47.6705 146.603 47.677 146.119 47.6899C145.649 47.6899 145.251 47.7028 144.924 47.7287V47.341C145.368 47.3152 145.701 47.2635 145.923 47.186C146.146 47.1084 146.289 46.9534 146.355 46.7208C146.433 46.4882 146.472 46.1393 146.472 45.6742V36.0607C146.472 35.5826 146.433 35.2338 146.355 35.0141C146.289 34.7815 146.139 34.6265 145.904 34.5489C145.682 34.4585 145.355 34.4068 144.924 34.3939V34.0062Z" fill="white"/>
<path d="M161.707 33.9287L166.488 46.1006C166.671 46.5787 166.88 46.9017 167.115 47.0697C167.363 47.2376 167.592 47.3281 167.801 47.341V47.7287C167.487 47.7028 167.115 47.6899 166.684 47.6899C166.266 47.677 165.841 47.6705 165.41 47.6705C164.862 47.6705 164.352 47.677 163.882 47.6899C163.412 47.6899 163.033 47.7028 162.746 47.7287V47.341C163.412 47.3152 163.83 47.2053 164 47.0115C164.183 46.8048 164.143 46.3719 163.882 45.7129L160.356 36.2933L160.669 35.9444L157.417 44.3562C157.182 44.9377 157.038 45.4222 156.986 45.8098C156.946 46.1975 156.979 46.5011 157.084 46.7208C157.201 46.9405 157.397 47.0955 157.671 47.186C157.946 47.2764 158.285 47.3281 158.69 47.341V47.7287C158.298 47.7028 157.9 47.6899 157.495 47.6899C157.103 47.677 156.731 47.6705 156.378 47.6705C156.065 47.6705 155.784 47.677 155.536 47.6899C155.301 47.6899 155.085 47.7028 154.889 47.7287V47.341C155.164 47.2764 155.438 47.1149 155.712 46.8565C155.986 46.598 156.248 46.1587 156.496 45.5385L161.041 33.9287C161.146 33.9287 161.257 33.9287 161.374 33.9287C161.492 33.9287 161.603 33.9287 161.707 33.9287ZM163.765 42.1467V42.5343H157.926L158.122 42.1467H163.765Z" fill="white"/>
</svg>
