<svg width="132" height="51" viewBox="0 0 132 51" fill="none" xmlns="http://www.w3.org/2000/svg">
<path d="M8.3318 11.091C9.47247 11.091 10.3521 11.2167 10.9708 11.468C11.5895 11.7 12.1211 11.9513 12.5658 12.222C12.7978 12.3573 12.9815 12.4637 13.1168 12.541C13.2715 12.599 13.4165 12.628 13.5518 12.628C13.7451 12.628 13.8805 12.5217 13.9578 12.309C14.0545 12.0963 14.1318 11.7773 14.1898 11.352H14.8568C14.8375 11.7193 14.8085 12.164 14.7698 12.686C14.7505 13.1887 14.7311 13.8557 14.7118 14.687C14.7118 15.5183 14.7118 16.6107 14.7118 17.964H14.0448C13.9675 16.9587 13.7355 15.9823 13.3488 15.035C12.9621 14.0877 12.4111 13.3143 11.6958 12.715C10.9998 12.0963 10.1395 11.787 9.1148 11.787C8.1868 11.787 7.42314 12.048 6.8238 12.57C6.22447 13.092 5.9248 13.817 5.9248 14.745C5.9248 15.5183 6.11814 16.1853 6.5048 16.746C6.89147 17.2873 7.45214 17.819 8.1868 18.341C8.9408 18.863 9.84947 19.4913 10.9128 20.226C11.8408 20.8253 12.6721 21.4247 13.4068 22.024C14.1415 22.6233 14.7311 23.3 15.1758 24.054C15.6205 24.808 15.8428 25.707 15.8428 26.751C15.8428 28.027 15.5045 29.0807 14.8278 29.912C14.1705 30.7433 13.3005 31.3717 12.2178 31.797C11.1351 32.203 9.94614 32.406 8.6508 32.406C7.45214 32.406 6.49514 32.29 5.7798 32.058C5.06447 31.826 4.46514 31.5843 3.9818 31.333C3.55647 31.0623 3.2278 30.927 2.9958 30.927C2.80247 30.927 2.65747 31.0333 2.5608 31.246C2.48347 31.4587 2.4158 31.7777 2.3578 32.203H1.6908C1.72947 31.739 1.7488 31.1977 1.7488 30.579C1.76814 29.9603 1.7778 29.158 1.7778 28.172C1.79714 27.1667 1.8068 25.9003 1.8068 24.373H2.4738C2.55114 25.649 2.7638 26.8477 3.1118 27.969C3.47914 29.071 4.03014 29.9603 4.7648 30.637C5.5188 31.3137 6.51447 31.652 7.7518 31.652C8.42847 31.652 9.0278 31.536 9.5498 31.304C10.0911 31.0527 10.5261 30.6853 10.8548 30.202C11.1835 29.7187 11.3478 29.1193 11.3478 28.404C11.3478 27.592 11.1545 26.8863 10.7678 26.287C10.4005 25.6877 9.88814 25.127 9.2308 24.605C8.5928 24.083 7.84847 23.5513 6.9978 23.01C6.08914 22.4107 5.23847 21.8113 4.4458 21.212C3.65314 20.6127 3.01514 19.9263 2.5318 19.153C2.0678 18.3797 1.8358 17.4613 1.8358 16.398C1.8358 15.18 2.13547 14.1843 2.7348 13.411C3.35347 12.6183 4.1558 12.0383 5.1418 11.671C6.14714 11.2843 7.21047 11.091 8.3318 11.091ZM39.5644 11.468C39.487 12.454 39.429 13.4013 39.3904 14.31C39.371 15.2187 39.3614 15.9147 39.3614 16.398C39.3614 16.8233 39.371 17.2293 39.3904 17.616C39.4097 18.0027 39.429 18.3313 39.4484 18.602H38.7814C38.472 16.978 38.0757 15.6923 37.5924 14.745C37.1284 13.7977 36.5677 13.1307 35.9104 12.744C35.253 12.338 34.4797 12.135 33.5904 12.135H32.9234V28.694C32.9234 29.4673 33.0007 30.0473 33.1554 30.434C33.3294 30.8207 33.6387 31.0817 34.0834 31.217C34.528 31.333 35.1757 31.4007 36.0264 31.42V32C35.427 31.9807 34.6247 31.9613 33.6194 31.942C32.6334 31.9227 31.599 31.913 30.5164 31.913C29.453 31.913 28.4477 31.9227 27.5004 31.942C26.553 31.9613 25.7894 31.9807 25.2094 32V31.42C26.0794 31.4007 26.7367 31.333 27.1814 31.217C27.626 31.0817 27.9257 30.8207 28.0804 30.434C28.235 30.0473 28.3124 29.4673 28.3124 28.694V12.135H27.6744C26.785 12.135 26.0117 12.338 25.3544 12.744C24.697 13.1307 24.1364 13.7977 23.6724 14.745C23.2084 15.673 22.8024 16.9587 22.4544 18.602H21.7874C21.826 18.3313 21.8454 18.0027 21.8454 17.616C21.8647 17.2293 21.8744 16.8233 21.8744 16.398C21.8744 15.9147 21.855 15.2187 21.8164 14.31C21.797 13.4013 21.7487 12.454 21.6714 11.468C22.5607 11.4873 23.5274 11.5067 24.5714 11.526C25.6347 11.5453 26.698 11.555 27.7614 11.555C28.8247 11.555 29.7817 11.555 30.6324 11.555C31.5024 11.555 32.4594 11.555 33.5034 11.555C34.5667 11.555 35.63 11.5453 36.6934 11.526C37.7567 11.5067 38.7137 11.4873 39.5644 11.468ZM63.6914 11.468V12.048C63.0728 12.1253 62.5991 12.2897 62.2704 12.541C61.9611 12.773 61.7581 13.15 61.6614 13.672C61.5648 14.194 61.5164 14.9287 61.5164 15.876V23.561C61.5164 24.8177 61.4294 25.968 61.2554 27.012C61.0814 28.056 60.7721 28.955 60.3274 29.709C59.8248 30.5403 59.0901 31.1977 58.1234 31.681C57.1568 32.1643 55.9291 32.406 54.4404 32.406C53.5511 32.406 52.6424 32.2997 51.7144 32.087C50.7864 31.8937 49.9551 31.5167 49.2204 30.956C48.6018 30.434 48.1281 29.8443 47.7994 29.187C47.4708 28.5297 47.2484 27.7563 47.1324 26.867C47.0164 25.9583 46.9584 24.8853 46.9584 23.648V14.542C46.9584 13.8267 46.9004 13.3047 46.7844 12.976C46.6878 12.628 46.4848 12.396 46.1754 12.28C45.8661 12.1447 45.4021 12.0673 44.7834 12.048V11.468C45.2668 11.4873 45.9144 11.5067 46.7264 11.526C47.5578 11.5453 48.4181 11.555 49.3074 11.555C50.1968 11.555 51.0474 11.5453 51.8594 11.526C52.6908 11.5067 53.3771 11.4873 53.9184 11.468V12.048C53.2611 12.0673 52.7584 12.1447 52.4104 12.28C52.0818 12.396 51.8594 12.628 51.7434 12.976C51.6274 13.3047 51.5694 13.8267 51.5694 14.542V25.475C51.5694 26.4417 51.6274 27.302 51.7434 28.056C51.8788 28.7907 52.0914 29.4093 52.3814 29.912C52.6908 30.3953 53.1064 30.7627 53.6284 31.014C54.1504 31.2653 54.7981 31.391 55.5714 31.391C56.9248 31.391 57.9784 31.072 58.7324 30.434C59.5058 29.796 60.0471 28.9163 60.3564 27.795C60.6851 26.6543 60.8494 25.3493 60.8494 23.88V16.224C60.8494 15.1607 60.7818 14.3487 60.6464 13.788C60.5111 13.208 60.2404 12.7923 59.8344 12.541C59.4478 12.2897 58.8484 12.1253 58.0364 12.048V11.468C58.4038 11.4873 58.8871 11.5067 59.4864 11.526C60.0858 11.5453 60.6464 11.555 61.1684 11.555C61.6324 11.555 62.0868 11.5453 62.5314 11.526C62.9954 11.5067 63.3821 11.4873 63.6914 11.468ZM78.0886 11.468C81.8973 11.468 84.7296 12.338 86.5856 14.078C88.4416 15.7987 89.3696 18.2733 89.3696 21.502C89.3696 23.6093 88.9153 25.4557 88.0066 27.041C87.0979 28.607 85.7736 29.825 84.0336 30.695C82.3129 31.565 80.2443 32 77.8276 32C77.5183 32 77.1123 31.9903 76.6096 31.971C76.1069 31.9517 75.5849 31.942 75.0436 31.942C74.5023 31.9227 74.0189 31.913 73.5936 31.913C72.7429 31.913 71.9019 31.9227 71.0706 31.942C70.2586 31.942 69.6109 31.9613 69.1276 32V31.42C69.7463 31.3813 70.2103 31.304 70.5196 31.188C70.8289 31.072 71.0319 30.84 71.1286 30.492C71.2446 30.144 71.3026 29.622 71.3026 28.926V14.542C71.3026 13.8267 71.2446 13.3047 71.1286 12.976C71.0319 12.628 70.8193 12.396 70.4906 12.28C70.1813 12.1447 69.7269 12.0673 69.1276 12.048V11.468C69.6109 11.4873 70.2586 11.5163 71.0706 11.555C71.9019 11.5743 72.7236 11.5743 73.5356 11.555C74.2316 11.5357 75.0146 11.5163 75.8846 11.497C76.7739 11.4777 77.5086 11.468 78.0886 11.468ZM78.0596 11.99C77.1703 11.99 76.5903 12.1543 76.3196 12.483C76.0489 12.8117 75.9136 13.4787 75.9136 14.484V28.984C75.9136 29.9893 76.0489 30.6563 76.3196 30.985C76.6096 31.3137 77.1993 31.478 78.0886 31.478C79.7126 31.478 80.9886 31.101 81.9166 30.347C82.8639 29.5737 83.5406 28.4523 83.9466 26.983C84.3526 25.5137 84.5556 23.7253 84.5556 21.618C84.5556 19.4527 84.3333 17.6643 83.8886 16.253C83.4633 14.8223 82.7769 13.759 81.8296 13.063C80.8823 12.3477 79.6256 11.99 78.0596 11.99ZM104.263 11.468V12.048C103.645 12.0673 103.171 12.1447 102.842 12.28C102.533 12.396 102.33 12.628 102.233 12.976C102.137 13.3047 102.088 13.8267 102.088 14.542V28.926C102.088 29.622 102.137 30.144 102.233 30.492C102.349 30.84 102.562 31.072 102.871 31.188C103.181 31.304 103.645 31.3813 104.263 31.42V32C103.741 31.9613 103.084 31.942 102.291 31.942C101.499 31.9227 100.696 31.913 99.8844 31.913C98.937 31.913 98.0574 31.9227 97.2454 31.942C96.4527 31.942 95.805 31.9613 95.3024 32V31.42C95.921 31.3813 96.385 31.304 96.6944 31.188C97.0037 31.072 97.2067 30.84 97.3034 30.492C97.4194 30.144 97.4774 29.622 97.4774 28.926V14.542C97.4774 13.8267 97.4194 13.3047 97.3034 12.976C97.2067 12.628 96.994 12.396 96.6654 12.28C96.356 12.1447 95.9017 12.0673 95.3024 12.048V11.468C95.805 11.4873 96.4527 11.5067 97.2454 11.526C98.0574 11.5453 98.937 11.555 99.8844 11.555C100.696 11.555 101.499 11.5453 102.291 11.526C103.084 11.5067 103.741 11.4873 104.263 11.468ZM120.421 11.062C122.47 11.062 124.259 11.4777 125.786 12.309C127.333 13.1403 128.531 14.339 129.382 15.905C130.233 17.4517 130.658 19.3367 130.658 21.56C130.658 23.7253 130.223 25.62 129.353 27.244C128.483 28.868 127.265 30.1343 125.699 31.043C124.152 31.9517 122.383 32.406 120.392 32.406C118.343 32.406 116.545 31.9903 114.998 31.159C113.471 30.3277 112.282 29.129 111.431 27.563C110.58 25.997 110.155 24.112 110.155 21.908C110.155 19.7427 110.59 17.848 111.46 16.224C112.349 14.6 113.558 13.3337 115.085 12.425C116.632 11.5163 118.41 11.062 120.421 11.062ZM120.305 11.584C119.222 11.584 118.275 12.019 117.463 12.889C116.67 13.759 116.052 14.9577 115.607 16.485C115.182 18.0123 114.969 19.7813 114.969 21.792C114.969 23.8413 115.211 25.6297 115.694 27.157C116.197 28.665 116.864 29.8347 117.695 30.666C118.546 31.478 119.483 31.884 120.508 31.884C121.591 31.884 122.528 31.449 123.321 30.579C124.133 29.709 124.752 28.5103 125.177 26.983C125.622 25.4363 125.844 23.6673 125.844 21.676C125.844 19.6073 125.593 17.819 125.09 16.311C124.607 14.803 123.94 13.643 123.089 12.831C122.258 11.9997 121.33 11.584 120.305 11.584Z" fill="black"/>
<path d="M5.7941 36.892C6.4101 36.892 6.9141 36.9853 7.3061 37.172C7.70743 37.3493 8.0621 37.5593 8.3701 37.802C8.55677 37.942 8.69677 37.9607 8.7901 37.858C8.89277 37.746 8.96277 37.4893 9.0001 37.088H9.3221C9.30343 37.4427 9.28943 37.872 9.2801 38.376C9.27077 38.8707 9.2661 39.5333 9.2661 40.364H8.9441C8.87877 39.9533 8.81343 39.6173 8.7481 39.356C8.6921 39.0947 8.61277 38.8707 8.5101 38.684C8.41676 38.4973 8.2861 38.3153 8.1181 38.138C7.84743 37.802 7.5161 37.5593 7.1241 37.41C6.7321 37.2607 6.31677 37.186 5.8781 37.186C5.4021 37.186 4.9821 37.3073 4.6181 37.55C4.2541 37.7833 3.9461 38.1193 3.6941 38.558C3.45143 38.9967 3.26477 39.5147 3.1341 40.112C3.00343 40.7093 2.9381 41.3627 2.9381 42.072C2.9381 42.8 3.0081 43.4627 3.1481 44.06C3.2881 44.648 3.48877 45.1567 3.7501 45.586C4.02077 46.006 4.34276 46.3327 4.7161 46.566C5.09876 46.79 5.52343 46.902 5.9901 46.902C6.37277 46.902 6.76943 46.8273 7.1801 46.678C7.59077 46.5193 7.91743 46.2813 8.1601 45.964C8.42143 45.684 8.59877 45.3713 8.6921 45.026C8.79477 44.6713 8.87877 44.1907 8.9441 43.584H9.2661C9.2661 44.4427 9.27077 45.138 9.2801 45.67C9.28943 46.1927 9.30343 46.636 9.3221 47H9.0001C8.96277 46.5987 8.89743 46.3467 8.8041 46.244C8.7201 46.1413 8.57543 46.1553 8.3701 46.286C8.02477 46.5287 7.6561 46.7433 7.2641 46.93C6.88143 47.1073 6.38677 47.196 5.7801 47.196C4.8561 47.196 4.04876 46.9953 3.3581 46.594C2.66743 46.1927 2.13076 45.614 1.7481 44.858C1.36543 44.102 1.1741 43.192 1.1741 42.128C1.1741 41.0827 1.3701 40.168 1.7621 39.384C2.16343 38.6 2.70943 37.9887 3.4001 37.55C4.09077 37.1113 4.88877 36.892 5.7941 36.892ZM15.9348 36.892C16.8495 36.892 17.6521 37.0927 18.3428 37.494C19.0428 37.8953 19.5841 38.474 19.9668 39.23C20.3495 39.9767 20.5408 40.8867 20.5408 41.96C20.5408 43.0053 20.3448 43.92 19.9528 44.704C19.5608 45.488 19.0148 46.0993 18.3148 46.538C17.6148 46.9767 16.8168 47.196 15.9208 47.196C14.9968 47.196 14.1895 46.9953 13.4988 46.594C12.8081 46.1927 12.2715 45.614 11.8888 44.858C11.5061 44.102 11.3148 43.192 11.3148 42.128C11.3148 41.0827 11.5108 40.168 11.9028 39.384C12.3041 38.6 12.8501 37.9887 13.5408 37.55C14.2315 37.1113 15.0295 36.892 15.9348 36.892ZM15.8788 37.144C15.3001 37.144 14.7961 37.354 14.3668 37.774C13.9375 38.194 13.6061 38.7727 13.3728 39.51C13.1395 40.2473 13.0228 41.1013 13.0228 42.072C13.0228 43.0613 13.1535 43.9247 13.4148 44.662C13.6761 45.39 14.0308 45.9547 14.4788 46.356C14.9268 46.748 15.4261 46.944 15.9768 46.944C16.5555 46.944 17.0548 46.734 17.4748 46.314C17.9041 45.894 18.2355 45.3153 18.4688 44.578C18.7115 43.8313 18.8328 42.9773 18.8328 42.016C18.8328 41.0173 18.6975 40.154 18.4268 39.426C18.1655 38.698 17.8108 38.138 17.3628 37.746C16.9241 37.3447 16.4295 37.144 15.8788 37.144ZM33.4488 37.088V37.368C33.1315 37.3773 32.8935 37.4147 32.7348 37.48C32.5761 37.536 32.4688 37.648 32.4128 37.816C32.3661 37.9747 32.3428 38.2267 32.3428 38.572V45.516C32.3428 45.852 32.3661 46.104 32.4128 46.272C32.4688 46.44 32.5761 46.552 32.7348 46.608C32.8935 46.664 33.1315 46.7013 33.4488 46.72V47C33.2155 46.9813 32.9261 46.972 32.5808 46.972C32.2355 46.9627 31.8855 46.958 31.5308 46.958C31.1388 46.958 30.7701 46.9627 30.4248 46.972C30.0795 46.972 29.8041 46.9813 29.5988 47V46.72C29.9161 46.7013 30.1541 46.664 30.3128 46.608C30.4808 46.552 30.5928 46.44 30.6488 46.272C30.7048 46.104 30.7328 45.852 30.7328 45.516V37.858L30.8028 37.886L27.3588 47.056H27.1348L23.5228 37.984V45.152C23.5228 45.544 23.5508 45.852 23.6068 46.076C23.6628 46.2907 23.7841 46.4447 23.9708 46.538C24.1575 46.6313 24.4421 46.692 24.8248 46.72V47C24.6475 46.9813 24.4188 46.972 24.1388 46.972C23.8681 46.9627 23.6115 46.958 23.3688 46.958C23.1355 46.958 22.9021 46.9627 22.6688 46.972C22.4355 46.972 22.2441 46.9813 22.0948 47V46.72C22.4028 46.692 22.6361 46.636 22.7948 46.552C22.9535 46.4587 23.0608 46.3047 23.1168 46.09C23.1728 45.8753 23.2008 45.5813 23.2008 45.208V38.572C23.2008 38.2267 23.1728 37.9747 23.1168 37.816C23.0608 37.648 22.9535 37.536 22.7948 37.48C22.6361 37.4147 22.4028 37.3773 22.0948 37.368V37.088C22.2441 37.0973 22.4355 37.1067 22.6688 37.116C22.9021 37.1253 23.1355 37.13 23.3688 37.13C23.6395 37.13 23.9101 37.1253 24.1808 37.116C24.4608 37.1067 24.6988 37.0973 24.8948 37.088L27.9888 45.04L27.7228 45.222L30.7608 37.13C30.8821 37.13 31.0081 37.13 31.1388 37.13C31.2695 37.13 31.4001 37.13 31.5308 37.13C31.8855 37.13 32.2355 37.1253 32.5808 37.116C32.9261 37.1067 33.2155 37.0973 33.4488 37.088ZM46.3239 37.088V37.368C46.0065 37.3773 45.7685 37.4147 45.6099 37.48C45.4512 37.536 45.3439 37.648 45.2879 37.816C45.2412 37.9747 45.2179 38.2267 45.2179 38.572V45.516C45.2179 45.852 45.2412 46.104 45.2879 46.272C45.3439 46.44 45.4512 46.552 45.6099 46.608C45.7685 46.664 46.0065 46.7013 46.3239 46.72V47C46.0905 46.9813 45.8012 46.972 45.4559 46.972C45.1105 46.9627 44.7605 46.958 44.4059 46.958C44.0139 46.958 43.6452 46.9627 43.2999 46.972C42.9545 46.972 42.6792 46.9813 42.4739 47V46.72C42.7912 46.7013 43.0292 46.664 43.1879 46.608C43.3559 46.552 43.4679 46.44 43.5239 46.272C43.5799 46.104 43.6079 45.852 43.6079 45.516V37.858L43.6779 37.886L40.2339 47.056H40.0099L36.3979 37.984V45.152C36.3979 45.544 36.4259 45.852 36.4819 46.076C36.5379 46.2907 36.6592 46.4447 36.8459 46.538C37.0325 46.6313 37.3172 46.692 37.6999 46.72V47C37.5225 46.9813 37.2939 46.972 37.0139 46.972C36.7432 46.9627 36.4865 46.958 36.2439 46.958C36.0105 46.958 35.7772 46.9627 35.5439 46.972C35.3105 46.972 35.1192 46.9813 34.9699 47V46.72C35.2779 46.692 35.5112 46.636 35.6699 46.552C35.8285 46.4587 35.9359 46.3047 35.9919 46.09C36.0479 45.8753 36.0759 45.5813 36.0759 45.208V38.572C36.0759 38.2267 36.0479 37.9747 35.9919 37.816C35.9359 37.648 35.8285 37.536 35.6699 37.48C35.5112 37.4147 35.2779 37.3773 34.9699 37.368V37.088C35.1192 37.0973 35.3105 37.1067 35.5439 37.116C35.7772 37.1253 36.0105 37.13 36.2439 37.13C36.5145 37.13 36.7852 37.1253 37.0559 37.116C37.3359 37.1067 37.5739 37.0973 37.7699 37.088L40.8639 45.04L40.5979 45.222L43.6359 37.13C43.7572 37.13 43.8832 37.13 44.0139 37.13C44.1445 37.13 44.2752 37.13 44.4059 37.13C44.7605 37.13 45.1105 37.1253 45.4559 37.116C45.8012 37.1067 46.0905 37.0973 46.3239 37.088ZM54.985 37.088C54.9476 37.4427 54.9196 37.788 54.901 38.124C54.8916 38.4507 54.887 38.7027 54.887 38.88C54.887 39.0573 54.8916 39.2253 54.901 39.384C54.9103 39.5427 54.9196 39.6733 54.929 39.776H54.607C54.5416 39.1787 54.439 38.7073 54.299 38.362C54.1683 38.0167 53.9676 37.774 53.697 37.634C53.4356 37.4847 53.067 37.41 52.591 37.41H51.625C51.3263 37.41 51.0976 37.438 50.939 37.494C50.7896 37.5407 50.687 37.6433 50.631 37.802C50.575 37.9513 50.547 38.1893 50.547 38.516V45.572C50.547 45.8893 50.575 46.1273 50.631 46.286C50.687 46.4447 50.7896 46.552 50.939 46.608C51.0976 46.6547 51.3263 46.678 51.625 46.678H52.535C53.067 46.678 53.487 46.594 53.795 46.426C54.1123 46.258 54.3503 45.9827 54.509 45.6C54.677 45.2173 54.803 44.6947 54.887 44.032H55.209C55.181 44.3027 55.167 44.6573 55.167 45.096C55.167 45.2827 55.1716 45.5533 55.181 45.908C55.1996 46.2627 55.2276 46.6267 55.265 47C54.789 46.9813 54.2523 46.972 53.655 46.972C53.0576 46.9627 52.5256 46.958 52.059 46.958C51.8443 46.958 51.569 46.958 51.233 46.958C50.897 46.958 50.533 46.9627 50.141 46.972C49.7583 46.972 49.3663 46.9767 48.965 46.986C48.573 46.986 48.195 46.9907 47.831 47V46.72C48.1483 46.7013 48.3863 46.664 48.545 46.608C48.7036 46.552 48.8063 46.44 48.853 46.272C48.909 46.104 48.937 45.852 48.937 45.516V38.572C48.937 38.2267 48.909 37.9747 48.853 37.816C48.8063 37.648 48.699 37.536 48.531 37.48C48.3723 37.4147 48.139 37.3773 47.831 37.368V37.088C48.195 37.0973 48.573 37.1067 48.965 37.116C49.3663 37.116 49.7583 37.1207 50.141 37.13C50.533 37.13 50.897 37.13 51.233 37.13C51.569 37.13 51.8443 37.13 52.059 37.13C52.4883 37.13 52.9736 37.13 53.515 37.13C54.0656 37.1207 54.5556 37.1067 54.985 37.088ZM52.661 41.876C52.661 41.876 52.661 41.9227 52.661 42.016C52.661 42.1093 52.661 42.156 52.661 42.156H50.127C50.127 42.156 50.127 42.1093 50.127 42.016C50.127 41.9227 50.127 41.876 50.127 41.876H52.661ZM53.067 40.028C53.0296 40.56 53.011 40.966 53.011 41.246C53.0203 41.526 53.025 41.7827 53.025 42.016C53.025 42.2493 53.0296 42.506 53.039 42.786C53.0483 43.066 53.0716 43.472 53.109 44.004H52.787C52.7403 43.696 52.6796 43.402 52.605 43.122C52.5303 42.8327 52.395 42.5993 52.199 42.422C52.0123 42.2447 51.7183 42.156 51.317 42.156V41.876C51.6156 41.876 51.849 41.8153 52.017 41.694C52.1943 41.5727 52.3296 41.414 52.423 41.218C52.5163 41.022 52.5816 40.8213 52.619 40.616C52.6656 40.4013 52.7076 40.2053 52.745 40.028H53.067ZM56.8916 37.088C57.1062 37.0973 57.3816 37.1067 57.7176 37.116C58.0629 37.1253 58.4036 37.13 58.7396 37.13C59.1876 37.13 59.6122 37.1253 60.0136 37.116C60.4242 37.1067 60.7136 37.102 60.8816 37.102C61.6749 37.102 62.3329 37.2047 62.8556 37.41C63.3876 37.6153 63.7796 37.9047 64.0316 38.278C64.2929 38.642 64.4236 39.062 64.4236 39.538C64.4236 39.8273 64.3629 40.1353 64.2416 40.462C64.1296 40.7793 63.9289 41.078 63.6396 41.358C63.3502 41.6287 62.9582 41.8527 62.4636 42.03C61.9689 42.2073 61.3389 42.296 60.5736 42.296H59.2296V42.016H60.4336C61.0589 42.016 61.5349 41.9133 61.8616 41.708C62.1976 41.4933 62.4216 41.2133 62.5336 40.868C62.6549 40.5133 62.7156 40.1213 62.7156 39.692C62.7156 38.9547 62.5569 38.3853 62.2396 37.984C61.9222 37.5733 61.3716 37.368 60.5876 37.368C60.1862 37.368 59.9202 37.4473 59.7896 37.606C59.6682 37.7647 59.6076 38.0867 59.6076 38.572V45.516C59.6076 45.852 59.6356 46.104 59.6916 46.272C59.7476 46.44 59.8549 46.552 60.0136 46.608C60.1722 46.664 60.4056 46.7013 60.7136 46.72V47C60.4896 46.9813 60.2049 46.972 59.8596 46.972C59.5236 46.9627 59.1782 46.958 58.8236 46.958C58.4316 46.958 58.0629 46.9627 57.7176 46.972C57.3816 46.972 57.1062 46.9813 56.8916 47V46.72C57.2089 46.7013 57.4469 46.664 57.6056 46.608C57.7642 46.552 57.8669 46.44 57.9136 46.272C57.9696 46.104 57.9976 45.852 57.9976 45.516V38.572C57.9976 38.2267 57.9696 37.9747 57.9136 37.816C57.8669 37.648 57.7596 37.536 57.5916 37.48C57.4329 37.4147 57.1996 37.3773 56.8916 37.368V37.088ZM59.2576 42.058C59.7336 42.0767 60.1162 42.1 60.4056 42.128C60.6949 42.1467 60.9376 42.1653 61.1336 42.184C61.3296 42.2027 61.5116 42.226 61.6796 42.254C62.3796 42.3473 62.8882 42.534 63.2056 42.814C63.5322 43.094 63.7562 43.5233 63.8776 44.102L64.2276 45.53C64.3116 45.9313 64.4002 46.216 64.4936 46.384C64.5962 46.552 64.7456 46.636 64.9416 46.636C65.0909 46.6267 65.2122 46.5847 65.3056 46.51C65.4082 46.426 65.5156 46.314 65.6276 46.174L65.8236 46.328C65.6089 46.6173 65.3849 46.8367 65.1516 46.986C64.9182 47.126 64.6056 47.196 64.2136 47.196C63.8122 47.196 63.4669 47.0933 63.1776 46.888C62.8976 46.6733 62.6969 46.272 62.5756 45.684L62.2956 44.284C62.2116 43.8827 62.1182 43.5373 62.0156 43.248C61.9129 42.9493 61.7682 42.716 61.5816 42.548C61.4042 42.38 61.1429 42.296 60.7976 42.296H59.2856L59.2576 42.058ZM71.3688 36.892C71.9848 36.892 72.4888 36.9853 72.8808 37.172C73.2821 37.3493 73.6368 37.5593 73.9448 37.802C74.1314 37.942 74.2714 37.9607 74.3648 37.858C74.4674 37.746 74.5374 37.4893 74.5748 37.088H74.8968C74.8781 37.4427 74.8641 37.872 74.8548 38.376C74.8454 38.8707 74.8408 39.5333 74.8408 40.364H74.5188C74.4534 39.9533 74.3881 39.6173 74.3228 39.356C74.2668 39.0947 74.1874 38.8707 74.0848 38.684C73.9914 38.4973 73.8608 38.3153 73.6928 38.138C73.4221 37.802 73.0908 37.5593 72.6988 37.41C72.3068 37.2607 71.8914 37.186 71.4528 37.186C70.9768 37.186 70.5568 37.3073 70.1928 37.55C69.8288 37.7833 69.5208 38.1193 69.2688 38.558C69.0261 38.9967 68.8394 39.5147 68.7088 40.112C68.5781 40.7093 68.5128 41.3627 68.5128 42.072C68.5128 42.8 68.5828 43.4627 68.7228 44.06C68.8628 44.648 69.0634 45.1567 69.3248 45.586C69.5954 46.006 69.9174 46.3327 70.2908 46.566C70.6734 46.79 71.0981 46.902 71.5648 46.902C71.9474 46.902 72.3441 46.8273 72.7548 46.678C73.1654 46.5193 73.4921 46.2813 73.7348 45.964C73.9961 45.684 74.1734 45.3713 74.2668 45.026C74.3694 44.6713 74.4534 44.1907 74.5188 43.584H74.8408C74.8408 44.4427 74.8454 45.138 74.8548 45.67C74.8641 46.1927 74.8781 46.636 74.8968 47H74.5748C74.5374 46.5987 74.4721 46.3467 74.3788 46.244C74.2948 46.1413 74.1501 46.1553 73.9448 46.286C73.5994 46.5287 73.2308 46.7433 72.8388 46.93C72.4561 47.1073 71.9614 47.196 71.3548 47.196C70.4308 47.196 69.6234 46.9953 68.9328 46.594C68.2421 46.1927 67.7054 45.614 67.3228 44.858C66.9401 44.102 66.7488 43.192 66.7488 42.128C66.7488 41.0827 66.9448 40.168 67.3368 39.384C67.7381 38.6 68.2841 37.9887 68.9748 37.55C69.6654 37.1113 70.4634 36.892 71.3688 36.892ZM80.5575 37.088V37.368C80.2495 37.3773 80.0162 37.4147 79.8575 37.48C79.6988 37.536 79.5915 37.648 79.5355 37.816C79.4795 37.9747 79.4515 38.2267 79.4515 38.572V45.516C79.4515 45.852 79.4795 46.104 79.5355 46.272C79.5915 46.44 79.6988 46.552 79.8575 46.608C80.0162 46.664 80.2495 46.7013 80.5575 46.72V47C80.3335 46.9813 80.0488 46.972 79.7035 46.972C79.3675 46.9627 79.0222 46.958 78.6675 46.958C78.2755 46.958 77.9068 46.9627 77.5615 46.972C77.2255 46.972 76.9502 46.9813 76.7355 47V46.72C77.0528 46.7013 77.2908 46.664 77.4495 46.608C77.6082 46.552 77.7108 46.44 77.7575 46.272C77.8135 46.104 77.8415 45.852 77.8415 45.516V38.572C77.8415 38.2267 77.8135 37.9747 77.7575 37.816C77.7108 37.648 77.6035 37.536 77.4355 37.48C77.2768 37.4147 77.0435 37.3773 76.7355 37.368V37.088C76.9502 37.0973 77.2255 37.1067 77.5615 37.116C77.9068 37.1253 78.2755 37.13 78.6675 37.13C79.0222 37.13 79.3675 37.1253 79.7035 37.116C80.0488 37.1067 80.3335 37.0973 80.5575 37.088ZM86.2497 37.032L89.6657 45.824C89.7964 46.1693 89.9457 46.4027 90.1137 46.524C90.291 46.6453 90.4544 46.7107 90.6037 46.72V47C90.3797 46.9813 90.1137 46.972 89.8057 46.972C89.507 46.9627 89.2037 46.958 88.8957 46.958C88.5037 46.958 88.1397 46.9627 87.8037 46.972C87.4677 46.972 87.197 46.9813 86.9917 47V46.72C87.4677 46.7013 87.7664 46.622 87.8877 46.482C88.0184 46.3327 87.9904 46.02 87.8037 45.544L85.2837 38.74L85.5077 38.488L83.1837 44.564C83.0157 44.984 82.913 45.334 82.8757 45.614C82.8477 45.894 82.871 46.1133 82.9457 46.272C83.0297 46.4307 83.1697 46.5427 83.3657 46.608C83.5617 46.6733 83.8044 46.7107 84.0937 46.72V47C83.8137 46.9813 83.529 46.972 83.2397 46.972C82.9597 46.9627 82.6937 46.958 82.4417 46.958C82.2177 46.958 82.017 46.9627 81.8397 46.972C81.6717 46.972 81.5177 46.9813 81.3777 47V46.72C81.5737 46.6733 81.7697 46.5567 81.9657 46.37C82.1617 46.1833 82.3484 45.866 82.5257 45.418L85.7737 37.032C85.8484 37.032 85.9277 37.032 86.0117 37.032C86.0957 37.032 86.175 37.032 86.2497 37.032ZM87.7197 42.968V43.248H83.5477L83.6877 42.968H87.7197ZM95.0427 37.088V37.368C94.7253 37.3773 94.4827 37.4147 94.3147 37.48C94.156 37.536 94.0487 37.648 93.9927 37.816C93.9367 37.9747 93.9087 38.2267 93.9087 38.572V45.572C93.9087 45.8893 93.932 46.1273 93.9787 46.286C94.0347 46.4447 94.1373 46.552 94.2867 46.608C94.4453 46.6547 94.6693 46.678 94.9587 46.678H95.8687C96.27 46.678 96.606 46.622 96.8767 46.51C97.1567 46.398 97.39 46.23 97.5767 46.006C97.7633 45.782 97.908 45.4927 98.0107 45.138C98.1133 44.7833 98.1927 44.368 98.2487 43.892H98.5707C98.5427 44.1907 98.5287 44.5827 98.5287 45.068C98.5287 45.2547 98.5333 45.53 98.5427 45.894C98.5613 46.2487 98.5893 46.6173 98.6267 47C98.1507 46.9813 97.614 46.972 97.0167 46.972C96.4193 46.9627 95.8873 46.958 95.4207 46.958C95.206 46.958 94.9307 46.958 94.5947 46.958C94.2587 46.958 93.8947 46.9627 93.5027 46.972C93.12 46.972 92.728 46.9767 92.3267 46.986C91.9347 46.986 91.5567 46.9907 91.1927 47V46.72C91.51 46.7013 91.748 46.664 91.9067 46.608C92.0653 46.552 92.168 46.44 92.2147 46.272C92.2707 46.104 92.2987 45.852 92.2987 45.516V38.572C92.2987 38.2267 92.2707 37.9747 92.2147 37.816C92.168 37.648 92.0607 37.536 91.8927 37.48C91.734 37.4147 91.5007 37.3773 91.1927 37.368V37.088C91.4073 37.0973 91.6827 37.1067 92.0187 37.116C92.364 37.1253 92.7327 37.13 93.1247 37.13C93.4793 37.13 93.8293 37.1253 94.1747 37.116C94.5293 37.1067 94.8187 37.0973 95.0427 37.088ZM103.775 37.088V37.368C103.467 37.3773 103.233 37.4147 103.075 37.48C102.916 37.536 102.809 37.648 102.753 37.816C102.697 37.9747 102.669 38.2267 102.669 38.572V45.516C102.669 45.852 102.697 46.104 102.753 46.272C102.809 46.44 102.916 46.552 103.075 46.608C103.233 46.664 103.467 46.7013 103.775 46.72V47C103.551 46.9813 103.266 46.972 102.921 46.972C102.585 46.9627 102.239 46.958 101.885 46.958C101.493 46.958 101.124 46.9627 100.779 46.972C100.443 46.972 100.167 46.9813 99.9525 47V46.72C100.27 46.7013 100.508 46.664 100.667 46.608C100.825 46.552 100.928 46.44 100.975 46.272C101.031 46.104 101.059 45.852 101.059 45.516V38.572C101.059 38.2267 101.031 37.9747 100.975 37.816C100.928 37.648 100.821 37.536 100.653 37.48C100.494 37.4147 100.261 37.3773 99.9525 37.368V37.088C100.167 37.0973 100.443 37.1067 100.779 37.116C101.124 37.1253 101.493 37.13 101.885 37.13C102.239 37.13 102.585 37.1253 102.921 37.116C103.266 37.1067 103.551 37.0973 103.775 37.088ZM108.445 36.92C108.939 36.92 109.317 36.976 109.579 37.088C109.84 37.2 110.069 37.3213 110.265 37.452C110.377 37.5173 110.465 37.5687 110.531 37.606C110.605 37.634 110.675 37.648 110.741 37.648C110.834 37.648 110.899 37.5967 110.937 37.494C110.983 37.3913 111.021 37.2373 111.049 37.032H111.371C111.361 37.2 111.347 37.4007 111.329 37.634C111.319 37.858 111.31 38.1567 111.301 38.53C111.301 38.9033 111.301 39.3933 111.301 40H110.979C110.951 39.5427 110.848 39.0993 110.671 38.67C110.503 38.2407 110.251 37.8907 109.915 37.62C109.588 37.3493 109.168 37.214 108.655 37.214C108.179 37.214 107.782 37.3587 107.465 37.648C107.157 37.928 107.003 38.3013 107.003 38.768C107.003 39.1787 107.105 39.524 107.311 39.804C107.516 40.0747 107.796 40.3313 108.151 40.574C108.515 40.8073 108.925 41.0687 109.383 41.358C109.849 41.6567 110.269 41.9553 110.643 42.254C111.016 42.5433 111.31 42.8653 111.525 43.22C111.739 43.5747 111.847 44.004 111.847 44.508C111.847 45.1147 111.702 45.6187 111.413 46.02C111.133 46.412 110.755 46.706 110.279 46.902C109.803 47.098 109.28 47.196 108.711 47.196C108.188 47.196 107.773 47.14 107.465 47.028C107.157 46.916 106.895 46.7993 106.681 46.678C106.475 46.5473 106.317 46.482 106.205 46.482C106.111 46.482 106.041 46.5333 105.995 46.636C105.957 46.7387 105.925 46.8927 105.897 47.098H105.575C105.593 46.8927 105.603 46.6547 105.603 46.384C105.612 46.104 105.617 45.74 105.617 45.292C105.626 44.844 105.631 44.2793 105.631 43.598H105.953C105.99 44.1767 106.093 44.718 106.261 45.222C106.438 45.726 106.704 46.132 107.059 46.44C107.423 46.7387 107.903 46.888 108.501 46.888C108.818 46.888 109.112 46.8273 109.383 46.706C109.653 46.5847 109.873 46.3933 110.041 46.132C110.209 45.8707 110.293 45.5347 110.293 45.124C110.293 44.7413 110.199 44.4053 110.013 44.116C109.835 43.8267 109.583 43.5607 109.257 43.318C108.939 43.066 108.566 42.8093 108.137 42.548C107.698 42.268 107.287 41.988 106.905 41.708C106.522 41.428 106.214 41.1013 105.981 40.728C105.757 40.3547 105.645 39.9113 105.645 39.398C105.645 38.8287 105.775 38.362 106.037 37.998C106.307 37.634 106.653 37.3633 107.073 37.186C107.502 37.0087 107.959 36.92 108.445 36.92ZM121.446 37.088C121.409 37.48 121.381 37.8627 121.362 38.236C121.353 38.6 121.348 38.88 121.348 39.076C121.348 39.2907 121.353 39.496 121.362 39.692C121.372 39.888 121.381 40.056 121.39 40.196H121.068C120.975 39.496 120.849 38.9453 120.69 38.544C120.541 38.1427 120.322 37.8533 120.032 37.676C119.743 37.4987 119.328 37.41 118.786 37.41H118.184V45.39C118.184 45.7633 118.217 46.0433 118.282 46.23C118.357 46.4167 118.497 46.5427 118.702 46.608C118.917 46.664 119.225 46.7013 119.626 46.72V47C119.365 46.9813 119.029 46.972 118.618 46.972C118.208 46.9627 117.788 46.958 117.358 46.958C116.91 46.958 116.486 46.9627 116.084 46.972C115.692 46.972 115.375 46.9813 115.132 47V46.72C115.534 46.7013 115.837 46.664 116.042 46.608C116.248 46.5427 116.388 46.4167 116.462 46.23C116.537 46.0433 116.574 45.7633 116.574 45.39V37.41H115.958C115.436 37.41 115.025 37.4987 114.726 37.676C114.428 37.8533 114.204 38.1427 114.054 38.544C113.905 38.9453 113.784 39.496 113.69 40.196H113.368C113.387 40.056 113.396 39.888 113.396 39.692C113.406 39.496 113.41 39.2907 113.41 39.076C113.41 38.88 113.401 38.6 113.382 38.236C113.373 37.8627 113.35 37.48 113.312 37.088C113.714 37.0973 114.152 37.1067 114.628 37.116C115.104 37.1253 115.585 37.13 116.07 37.13C116.556 37.13 116.994 37.13 117.386 37.13C117.778 37.13 118.212 37.13 118.688 37.13C119.164 37.13 119.645 37.1253 120.13 37.116C120.616 37.1067 121.054 37.0973 121.446 37.088ZM126.275 37.032L129.691 45.824C129.822 46.1693 129.971 46.4027 130.139 46.524C130.317 46.6453 130.48 46.7107 130.629 46.72V47C130.405 46.9813 130.139 46.972 129.831 46.972C129.533 46.9627 129.229 46.958 128.921 46.958C128.529 46.958 128.165 46.9627 127.829 46.972C127.493 46.972 127.223 46.9813 127.017 47V46.72C127.493 46.7013 127.792 46.622 127.913 46.482C128.044 46.3327 128.016 46.02 127.829 45.544L125.309 38.74L125.533 38.488L123.209 44.564C123.041 44.984 122.939 45.334 122.901 45.614C122.873 45.894 122.897 46.1133 122.971 46.272C123.055 46.4307 123.195 46.5427 123.391 46.608C123.587 46.6733 123.83 46.7107 124.119 46.72V47C123.839 46.9813 123.555 46.972 123.265 46.972C122.985 46.9627 122.719 46.958 122.467 46.958C122.243 46.958 122.043 46.9627 121.865 46.972C121.697 46.972 121.543 46.9813 121.403 47V46.72C121.599 46.6733 121.795 46.5567 121.991 46.37C122.187 46.1833 122.374 45.866 122.551 45.418L125.799 37.032C125.874 37.032 125.953 37.032 126.037 37.032C126.121 37.032 126.201 37.032 126.275 37.032ZM127.745 42.968V43.248H123.573L123.713 42.968H127.745Z" fill="black"/>
</svg>
